; NON-PLATED HOLES START AT T1
; THROUGH (PLATED) HOLES START AT T100
M48
INCH
T1C0.125984
T100C0.038000
T101C0.031555
T102C0.031496
T103C0.015748
T104C0.040000
T105C0.035000
T106C0.030000
%
T1
X001654Y037954
X061654Y037954
X061654Y001954
X003654Y005954
T100
X043654Y018954
X051654Y037954
X027654Y037954
X041654Y018954
X029654Y000954
X020654Y037954
X054654Y018954
X027654Y003954
X044654Y037954
X033654Y037954
X057654Y018954
X017654Y000954
X009654Y037954
X045654Y018954
X006654Y037954
X005654Y037954
X031654Y037954
X052654Y018954
X017654Y037954
X016654Y037954
X029654Y037954
X055654Y018954
X044654Y018954
X019654Y037954
X039654Y037954
X056654Y018954
X021654Y000954
X015654Y037954
X057654Y037954
X041654Y037954
X039654Y018954
X030654Y037954
X054654Y037954
X051654Y018954
X053654Y037954
X042654Y018954
X025654Y000954
X021654Y037954
X027654Y006954
X032654Y037954
X004654Y037954
X042654Y037954
X040654Y037954
X052654Y037954
X053654Y018954
X043654Y037954
X040654Y018954
X055654Y037954
X003654Y037954
X028654Y037954
X045654Y037954
X056654Y037954
X023654Y004954
X018654Y037954
X008654Y037954
X007654Y037954
T101
X007620Y004920
T102
X005690Y004920
T103
X017654Y022954
X028654Y015954
X005654Y016954
X007654Y020954
X043654Y021954
X022654Y024954
X030654Y015954
X057654Y006954
X006654Y021954
X033654Y015954
X007654Y010954
X045654Y006961
X009654Y016954
X005654Y022954
X033654Y007954
X004654Y023954
X006654Y013954
X007654Y012954
X008654Y011954
X028654Y023954
X016654Y000954
X020654Y019954
X022654Y022954
X032654Y019954
X007654Y016954
X022654Y023954
X003654Y024954
X021654Y018954
X008654Y016954
X010654Y016954
X015654Y024954
X054654Y003954
X040654Y024954
X030654Y021954
X022654Y019954
X044654Y005954
X005654Y014954
X027654Y024954
X029654Y022954
X039654Y000954
X033654Y018954
X051654Y000954
X031654Y015954
X055654Y004954
X040654Y001954
X003654Y015954
X029654Y015954
X031654Y020954
X006654Y016954
X039654Y025954
X042654Y022954
X044654Y020954
X022654Y021954
X009654Y006954
X045654Y019954
X036654Y006954
X016654Y023954
X009654Y018954
X038654Y001954
X053657Y002973
X041654Y002954
X032654Y007954
X041654Y023954
X008654Y019954
X018654Y021954
X032654Y015954
X022654Y020954
X019654Y020954
X031654Y007954
X042654Y003954
X052654Y001954
X043654Y004954
X035654Y006954
X034654Y006954
X037654Y006954
X056654Y005954
T104
X001276Y002954
X002654Y002954
T105
X009654Y036954
X051652Y007935
X044654Y026954
X011654Y001954
X041654Y026954
X052654Y017954
X032654Y029954
X011654Y012954
X042654Y036954
X005654Y029954
X053654Y032954
X020654Y000954
X039654Y026954
X024654Y012954
X014654Y010954
X047635Y010935
X014654Y008954
X008654Y036954
X039654Y013954
X026654Y004954
X003654Y036954
X035654Y026954
X024654Y004954
X052654Y026954
X055654Y032954
X031654Y026954
X042654Y029954
X021654Y016954
X022654Y000954
X058652Y010935
X055654Y036954
X051654Y013954
X053654Y013954
X043654Y036954
X021654Y012954
X045635Y007935
X021654Y011954
X014654Y004954
X032654Y032954
X040654Y029954
X056654Y017954
X052654Y036954
X027654Y000954
X021654Y010954
X038654Y029954
X030654Y036954
X024654Y015954
X059654Y029954
X043654Y013954
X003654Y026954
X059652Y010935
X024654Y009954
X016654Y032954
X014654Y014954
X028654Y006954
X051654Y036954
X006654Y029954
X044635Y010935
X014654Y003954
X021654Y013954
X001654Y012954
X043654Y032954
X028654Y000954
X051654Y026954
X040654Y013954
X051652Y010935
X024654Y014954
X027654Y029954
X015654Y036954
X026654Y026954
X054654Y032954
X044654Y013954
X019654Y029954
X001654Y010726
X011654Y007954
X030654Y003954
X011654Y002954
X028654Y003954
X033654Y036954
X026654Y000954
X004214Y008954
X011654Y010954
X011654Y008954
X031654Y029954
X011654Y003954
X057654Y013954
X018654Y026954
X014654Y016954
X017654Y036954
X040654Y026954
X014654Y011954
X043654Y017954
X033654Y026954
X011654Y006954
X057654Y032954
X015654Y004954
X045635Y010935
X039654Y032954
X019654Y003954
X016654Y036954
X038635Y010935
X030654Y006954
X045654Y017954
X035654Y029954
X032654Y000954
X058654Y026954
X055654Y029954
X007654Y032954
X019654Y007954
X002654Y026954
X015654Y006954
X022654Y029954
X019654Y004954
X020654Y036954
X021654Y009954
X044654Y036954
X045654Y032954
X004214Y010726
X057654Y017954
X046654Y029954
X055652Y010935
X044654Y029954
X017654Y026954
X031654Y036954
X022654Y026954
X007654Y036954
X010654Y026954
X021654Y026954
X004654Y026954
X027654Y032954
X039635Y010935
X011654Y026954
X030654Y029954
X045654Y029954
X029654Y029954
X014654Y015954
X051654Y029954
X056654Y029954
X053652Y007935
X011654Y004954
X033654Y029954
X057654Y036954
X019654Y026954
X028654Y029954
X009654Y032954
X011654Y005954
X029654Y006954
X011654Y011954
X015654Y005954
X042635Y010935
X055652Y007935
X032654Y036954
X042654Y013954
X050652Y007935
X006654Y032954
X015654Y007954
X053654Y026954
X008654Y026954
X028654Y032954
X040635Y007935
X030654Y032954
X056652Y010935
X014654Y026954
X056654Y032954
X009654Y026954
X029654Y036954
X014654Y009954
X020654Y026954
X009654Y029954
X042635Y007935
X053654Y017954
X053654Y036954
X043654Y026954
X015654Y001954
X040654Y036954
X033654Y032954
X039635Y007935
X029654Y032954
X003654Y029954
X006654Y036954
X002654Y029954
X045654Y026954
X039654Y017954
X050652Y010935
X020654Y032954
X047635Y007935
X043654Y029954
X052654Y013954
X015654Y032954
X054652Y010935
X041654Y029954
X056654Y026954
X043635Y010935
X057652Y010935
X019654Y005954
X007654Y029954
X025654Y004954
X024654Y016954
X007654Y026954
X038654Y026954
X042654Y017954
X046654Y026954
X052654Y032954
X018654Y029954
X019654Y006954
X057654Y029954
X051654Y017954
X014654Y012954
X021654Y014954
X059652Y007935
X050654Y029954
X005654Y026954
X014654Y029954
X011654Y029954
X056654Y036954
X053654Y029954
X014654Y013954
X019654Y032954
X003654Y032954
X055654Y026954
X047654Y029954
X019654Y036954
X019654Y000954
X028654Y026954
X042654Y032954
X039654Y029954
X052652Y007935
X006654Y026954
X004654Y036954
X050654Y026954
X014654Y005954
X014654Y006954
X059654Y026954
X027654Y026954
X014654Y007954
X054654Y017954
X021654Y015954
X020654Y029954
X032654Y026954
X040654Y032954
X044654Y032954
X054654Y026954
X011654Y013954
X011654Y014954
X030654Y026954
X041654Y036954
X001654Y016954
X024654Y000954
X054654Y029954
X038635Y007935
X041654Y017954
X055654Y017954
X015654Y026954
X017654Y032954
X039654Y036954
X015654Y002954
X051654Y032954
X058654Y029954
X045654Y036954
X042654Y026954
X044635Y007935
X021654Y032954
X017654Y029954
X011654Y009954
X024654Y013954
X041635Y010935
X021654Y036954
X041654Y032954
X054654Y013954
X008654Y032954
X034654Y026954
X041654Y013954
X001654Y008954
X056652Y007935
X023654Y026954
X057652Y007935
X005654Y032954
X046635Y007935
X004654Y029954
X047654Y026954
X044654Y017954
X030654Y000954
X015654Y003954
X023654Y029954
X040654Y017954
X046635Y010935
X043635Y007935
X053652Y010935
X045654Y013954
X056654Y013954
X028654Y036954
X016654Y026954
X023654Y000954
X024654Y011954
X057654Y026954
X004654Y032954
X011654Y015954
X034654Y029954
X016654Y029954
X011654Y016954
X027654Y036954
X052652Y010935
X024654Y010954
X031654Y000954
X052654Y029954
X005654Y036954
X058652Y007935
X018654Y032954
X054652Y007935
X010654Y029954
X041635Y007935
X029654Y026954
X026654Y029954
X054654Y036954
X018654Y000954
X018654Y036954
X029654Y003954
X040635Y010935
X015654Y029954
X021654Y029954
X055654Y013954
X031654Y032954
X008654Y029954
T106
X049654Y009954
X001654Y028954
X001654Y027952
X037654Y027952
X022654Y017954
X015654Y010954
X037654Y009954
X037654Y028954
X008654Y001954
X025654Y028954
X006656Y002954
X013654Y027952
X005654Y002954
X049654Y028954
X023656Y017954
X049654Y008952
X013654Y028954
X007653Y001954
X049654Y027952
X037654Y008952
X025654Y027952
X015654Y009952
T00
M30
