G04 MADE WITH FRITZING*
G04 WWW.FRITZING.ORG*
G04 DOUBLE SIDED*
G04 HOLES PLATED*
G04 CONTOUR ON CENTER OF CONTOUR VECTOR*
%ASAXBY*%
%FSLAX23Y23*%
%MOIN*%
%OFA0B0*%
%SFA1.0B1.0*%
%ADD10R,6.307090X3.944880X6.291090X3.928880*%
%ADD11C,0.008000*%
%ADD12R,0.001000X0.001000*%
%LNSILK0*%
G90*
G70*
G54D11*
X4Y3941D02*
X6303Y3941D01*
X6303Y4D01*
X4Y4D01*
X4Y3941D01*
D02*
G54D12*
X4781Y605D02*
X4790Y605D01*
X4925Y605D02*
X4934Y605D01*
X4779Y604D02*
X4791Y604D01*
X4923Y604D02*
X4935Y604D01*
X4779Y603D02*
X4792Y603D01*
X4923Y603D02*
X4936Y603D01*
X4778Y602D02*
X4792Y602D01*
X4922Y602D02*
X4936Y602D01*
X5642Y602D02*
X5642Y602D01*
X4778Y601D02*
X4792Y601D01*
X4833Y601D02*
X4837Y601D01*
X4922Y601D02*
X4936Y601D01*
X4977Y601D02*
X4981Y601D01*
X5017Y601D02*
X5020Y601D01*
X5233Y601D02*
X5236Y601D01*
X5337Y601D02*
X5341Y601D01*
X5841Y601D02*
X5845Y601D01*
X5998Y601D02*
X6031Y601D01*
X6057Y601D02*
X6081Y601D01*
X6137Y601D02*
X6175Y601D01*
X4778Y600D02*
X4792Y600D01*
X4832Y600D02*
X4838Y600D01*
X4922Y600D02*
X4936Y600D01*
X4976Y600D02*
X4982Y600D01*
X5015Y600D02*
X5022Y600D01*
X5231Y600D02*
X5238Y600D01*
X5336Y600D02*
X5342Y600D01*
X5840Y600D02*
X5846Y600D01*
X5995Y600D02*
X6031Y600D01*
X6056Y600D02*
X6084Y600D01*
X6135Y600D02*
X6175Y600D01*
X4778Y599D02*
X4792Y599D01*
X4831Y599D02*
X4839Y599D01*
X4922Y599D02*
X4936Y599D01*
X4975Y599D02*
X4983Y599D01*
X5015Y599D02*
X5022Y599D01*
X5231Y599D02*
X5238Y599D01*
X5335Y599D02*
X5343Y599D01*
X5839Y599D02*
X5847Y599D01*
X5993Y599D02*
X6031Y599D01*
X6055Y599D02*
X6085Y599D01*
X6133Y599D02*
X6175Y599D01*
X4778Y598D02*
X4792Y598D01*
X4831Y598D02*
X4839Y598D01*
X4922Y598D02*
X4936Y598D01*
X4975Y598D02*
X4984Y598D01*
X5014Y598D02*
X5023Y598D01*
X5230Y598D02*
X5239Y598D01*
X5335Y598D02*
X5343Y598D01*
X5839Y598D02*
X5847Y598D01*
X5991Y598D02*
X6031Y598D01*
X6054Y598D02*
X6087Y598D01*
X6132Y598D02*
X6175Y598D01*
X4778Y597D02*
X4792Y597D01*
X4830Y597D02*
X4839Y597D01*
X4922Y597D02*
X4936Y597D01*
X4974Y597D02*
X4986Y597D01*
X5014Y597D02*
X5023Y597D01*
X5230Y597D02*
X5239Y597D01*
X5334Y597D02*
X5343Y597D01*
X5838Y597D02*
X5847Y597D01*
X5990Y597D02*
X6031Y597D01*
X6054Y597D02*
X6088Y597D01*
X6131Y597D02*
X6175Y597D01*
X4778Y596D02*
X4792Y596D01*
X4830Y596D02*
X4839Y596D01*
X4922Y596D02*
X4936Y596D01*
X4974Y596D02*
X4987Y596D01*
X5014Y596D02*
X5023Y596D01*
X5230Y596D02*
X5239Y596D01*
X5334Y596D02*
X5343Y596D01*
X5838Y596D02*
X5847Y596D01*
X5989Y596D02*
X6031Y596D01*
X6054Y596D02*
X6089Y596D01*
X6130Y596D02*
X6175Y596D01*
X4778Y595D02*
X4792Y595D01*
X4830Y595D02*
X4839Y595D01*
X4922Y595D02*
X4936Y595D01*
X4974Y595D02*
X4988Y595D01*
X5014Y595D02*
X5023Y595D01*
X5230Y595D02*
X5239Y595D01*
X5334Y595D02*
X5343Y595D01*
X5838Y595D02*
X5847Y595D01*
X5988Y595D02*
X6031Y595D01*
X6055Y595D02*
X6090Y595D01*
X6129Y595D02*
X6175Y595D01*
X4779Y594D02*
X4791Y594D01*
X4830Y594D02*
X4839Y594D01*
X4923Y594D02*
X4935Y594D01*
X4975Y594D02*
X4989Y594D01*
X5014Y594D02*
X5023Y594D01*
X5230Y594D02*
X5239Y594D01*
X5334Y594D02*
X5343Y594D01*
X5838Y594D02*
X5847Y594D01*
X5987Y594D02*
X6031Y594D01*
X6055Y594D02*
X6090Y594D01*
X6128Y594D02*
X6175Y594D01*
X4780Y593D02*
X4791Y593D01*
X4830Y593D02*
X4839Y593D01*
X4924Y593D02*
X4935Y593D01*
X4976Y593D02*
X4990Y593D01*
X5014Y593D02*
X5023Y593D01*
X5230Y593D02*
X5239Y593D01*
X5334Y593D02*
X5343Y593D01*
X5838Y593D02*
X5847Y593D01*
X5986Y593D02*
X6031Y593D01*
X6056Y593D02*
X6091Y593D01*
X6128Y593D02*
X6175Y593D01*
X4781Y592D02*
X4789Y592D01*
X4830Y592D02*
X4839Y592D01*
X4925Y592D02*
X4933Y592D01*
X4977Y592D02*
X4991Y592D01*
X5014Y592D02*
X5023Y592D01*
X5230Y592D02*
X5239Y592D01*
X5334Y592D02*
X5343Y592D01*
X5838Y592D02*
X5847Y592D01*
X5985Y592D02*
X6031Y592D01*
X6057Y592D02*
X6091Y592D01*
X6127Y592D02*
X6175Y592D01*
X4830Y591D02*
X4839Y591D01*
X4978Y591D02*
X4993Y591D01*
X5014Y591D02*
X5023Y591D01*
X5230Y591D02*
X5239Y591D01*
X5334Y591D02*
X5343Y591D01*
X5838Y591D02*
X5847Y591D01*
X5985Y591D02*
X5998Y591D01*
X6022Y591D02*
X6031Y591D01*
X6080Y591D02*
X6092Y591D01*
X6127Y591D02*
X6138Y591D01*
X6166Y591D02*
X6175Y591D01*
X4830Y590D02*
X4839Y590D01*
X4979Y590D02*
X4994Y590D01*
X5014Y590D02*
X5023Y590D01*
X5230Y590D02*
X5239Y590D01*
X5334Y590D02*
X5343Y590D01*
X5838Y590D02*
X5847Y590D01*
X5984Y590D02*
X5996Y590D01*
X6022Y590D02*
X6031Y590D01*
X6081Y590D02*
X6092Y590D01*
X6127Y590D02*
X6137Y590D01*
X6166Y590D02*
X6175Y590D01*
X4830Y589D02*
X4839Y589D01*
X4980Y589D02*
X4995Y589D01*
X5014Y589D02*
X5023Y589D01*
X5230Y589D02*
X5239Y589D01*
X5334Y589D02*
X5343Y589D01*
X5838Y589D02*
X5847Y589D01*
X5984Y589D02*
X5995Y589D01*
X6022Y589D02*
X6031Y589D01*
X6082Y589D02*
X6093Y589D01*
X6126Y589D02*
X6136Y589D01*
X6166Y589D02*
X6175Y589D01*
X4830Y588D02*
X4839Y588D01*
X4982Y588D02*
X4996Y588D01*
X5014Y588D02*
X5023Y588D01*
X5230Y588D02*
X5239Y588D01*
X5334Y588D02*
X5343Y588D01*
X5838Y588D02*
X5847Y588D01*
X5983Y588D02*
X5994Y588D01*
X6022Y588D02*
X6031Y588D01*
X6083Y588D02*
X6093Y588D01*
X6126Y588D02*
X6136Y588D01*
X6166Y588D02*
X6175Y588D01*
X4830Y587D02*
X4839Y587D01*
X4983Y587D02*
X4997Y587D01*
X5014Y587D02*
X5023Y587D01*
X5230Y587D02*
X5239Y587D01*
X5334Y587D02*
X5343Y587D01*
X5838Y587D02*
X5847Y587D01*
X5983Y587D02*
X5993Y587D01*
X6022Y587D02*
X6031Y587D01*
X6083Y587D02*
X6094Y587D01*
X6126Y587D02*
X6135Y587D01*
X6166Y587D02*
X6175Y587D01*
X4830Y586D02*
X4839Y586D01*
X4984Y586D02*
X4998Y586D01*
X5014Y586D02*
X5023Y586D01*
X5230Y586D02*
X5239Y586D01*
X5334Y586D02*
X5343Y586D01*
X5838Y586D02*
X5847Y586D01*
X5983Y586D02*
X5993Y586D01*
X6022Y586D02*
X6031Y586D01*
X6084Y586D02*
X6094Y586D01*
X6126Y586D02*
X6135Y586D01*
X6166Y586D02*
X6175Y586D01*
X4830Y585D02*
X4839Y585D01*
X4985Y585D02*
X5000Y585D01*
X5014Y585D02*
X5023Y585D01*
X5230Y585D02*
X5239Y585D01*
X5334Y585D02*
X5343Y585D01*
X5838Y585D02*
X5847Y585D01*
X5983Y585D02*
X5992Y585D01*
X6022Y585D02*
X6031Y585D01*
X6084Y585D02*
X6095Y585D01*
X6126Y585D02*
X6135Y585D01*
X6166Y585D02*
X6175Y585D01*
X4830Y584D02*
X4839Y584D01*
X4986Y584D02*
X5001Y584D01*
X5014Y584D02*
X5023Y584D01*
X5230Y584D02*
X5239Y584D01*
X5334Y584D02*
X5343Y584D01*
X5838Y584D02*
X5847Y584D01*
X5982Y584D02*
X5992Y584D01*
X6022Y584D02*
X6031Y584D01*
X6085Y584D02*
X6095Y584D01*
X6126Y584D02*
X6135Y584D01*
X6166Y584D02*
X6175Y584D01*
X4830Y583D02*
X4839Y583D01*
X4987Y583D02*
X5002Y583D01*
X5014Y583D02*
X5023Y583D01*
X5230Y583D02*
X5239Y583D01*
X5334Y583D02*
X5343Y583D01*
X5838Y583D02*
X5847Y583D01*
X5982Y583D02*
X5991Y583D01*
X6022Y583D02*
X6031Y583D01*
X6085Y583D02*
X6096Y583D01*
X6126Y583D02*
X6135Y583D01*
X6166Y583D02*
X6175Y583D01*
X4830Y582D02*
X4839Y582D01*
X4989Y582D02*
X5003Y582D01*
X5014Y582D02*
X5023Y582D01*
X5230Y582D02*
X5239Y582D01*
X5334Y582D02*
X5343Y582D01*
X5838Y582D02*
X5847Y582D01*
X5982Y582D02*
X5991Y582D01*
X6022Y582D02*
X6031Y582D01*
X6086Y582D02*
X6096Y582D01*
X6126Y582D02*
X6135Y582D01*
X6166Y582D02*
X6175Y582D01*
X4830Y581D02*
X4839Y581D01*
X4990Y581D02*
X5004Y581D01*
X5014Y581D02*
X5023Y581D01*
X5230Y581D02*
X5239Y581D01*
X5334Y581D02*
X5343Y581D01*
X5838Y581D02*
X5847Y581D01*
X5982Y581D02*
X5991Y581D01*
X6022Y581D02*
X6031Y581D01*
X6086Y581D02*
X6097Y581D01*
X6126Y581D02*
X6135Y581D01*
X6166Y581D02*
X6175Y581D01*
X4553Y580D02*
X4580Y580D01*
X4630Y580D02*
X4648Y580D01*
X4690Y580D02*
X4692Y580D01*
X4707Y580D02*
X4720Y580D01*
X4781Y580D02*
X4799Y580D01*
X4830Y580D02*
X4839Y580D01*
X4851Y580D02*
X4864Y580D01*
X4925Y580D02*
X4943Y580D01*
X4991Y580D02*
X5005Y580D01*
X5014Y580D02*
X5023Y580D01*
X5121Y580D02*
X5124Y580D01*
X5161Y580D02*
X5164Y580D01*
X5206Y580D02*
X5219Y580D01*
X5230Y580D02*
X5239Y580D01*
X5334Y580D02*
X5343Y580D01*
X5355Y580D02*
X5368Y580D01*
X5422Y580D02*
X5440Y580D01*
X5491Y580D02*
X5502Y580D01*
X5521Y580D02*
X5524Y580D01*
X5553Y580D02*
X5556Y580D01*
X5571Y580D02*
X5584Y580D01*
X5645Y580D02*
X5647Y580D01*
X5705Y580D02*
X5732Y580D01*
X5782Y580D02*
X5800Y580D01*
X5838Y580D02*
X5847Y580D01*
X5859Y580D02*
X5872Y580D01*
X5982Y580D02*
X5991Y580D01*
X6022Y580D02*
X6031Y580D01*
X6087Y580D02*
X6097Y580D01*
X6126Y580D02*
X6135Y580D01*
X6166Y580D02*
X6175Y580D01*
X4550Y579D02*
X4583Y579D01*
X4627Y579D02*
X4651Y579D01*
X4688Y579D02*
X4694Y579D01*
X4704Y579D02*
X4723Y579D01*
X4780Y579D02*
X4800Y579D01*
X4830Y579D02*
X4839Y579D01*
X4848Y579D02*
X4867Y579D01*
X4924Y579D02*
X4944Y579D01*
X4992Y579D02*
X5007Y579D01*
X5014Y579D02*
X5023Y579D01*
X5120Y579D02*
X5126Y579D01*
X5160Y579D02*
X5165Y579D01*
X5203Y579D02*
X5222Y579D01*
X5230Y579D02*
X5239Y579D01*
X5334Y579D02*
X5343Y579D01*
X5352Y579D02*
X5371Y579D01*
X5419Y579D02*
X5443Y579D01*
X5488Y579D02*
X5505Y579D01*
X5520Y579D02*
X5525Y579D01*
X5552Y579D02*
X5558Y579D01*
X5568Y579D02*
X5587Y579D01*
X5644Y579D02*
X5647Y579D01*
X5702Y579D02*
X5735Y579D01*
X5779Y579D02*
X5803Y579D01*
X5838Y579D02*
X5847Y579D01*
X5856Y579D02*
X5875Y579D01*
X5982Y579D02*
X5991Y579D01*
X6022Y579D02*
X6031Y579D01*
X6087Y579D02*
X6098Y579D01*
X6126Y579D02*
X6135Y579D01*
X6166Y579D02*
X6175Y579D01*
X4549Y578D02*
X4584Y578D01*
X4625Y578D02*
X4652Y578D01*
X4687Y578D02*
X4694Y578D01*
X4702Y578D02*
X4724Y578D01*
X4779Y578D02*
X4801Y578D01*
X4830Y578D02*
X4839Y578D01*
X4846Y578D02*
X4868Y578D01*
X4923Y578D02*
X4945Y578D01*
X4993Y578D02*
X5008Y578D01*
X5014Y578D02*
X5023Y578D01*
X5119Y578D02*
X5127Y578D01*
X5159Y578D02*
X5166Y578D01*
X5201Y578D02*
X5224Y578D01*
X5230Y578D02*
X5239Y578D01*
X5334Y578D02*
X5343Y578D01*
X5350Y578D02*
X5372Y578D01*
X5417Y578D02*
X5444Y578D01*
X5486Y578D02*
X5507Y578D01*
X5519Y578D02*
X5526Y578D01*
X5551Y578D02*
X5558Y578D01*
X5566Y578D02*
X5588Y578D01*
X5643Y578D02*
X5648Y578D01*
X5701Y578D02*
X5736Y578D01*
X5777Y578D02*
X5804Y578D01*
X5838Y578D02*
X5847Y578D01*
X5854Y578D02*
X5876Y578D01*
X5982Y578D02*
X5991Y578D01*
X6022Y578D02*
X6031Y578D01*
X6088Y578D02*
X6098Y578D01*
X6126Y578D02*
X6135Y578D01*
X6166Y578D02*
X6175Y578D01*
X4547Y577D02*
X4586Y577D01*
X4623Y577D02*
X4654Y577D01*
X4687Y577D02*
X4695Y577D01*
X4701Y577D02*
X4726Y577D01*
X4778Y577D02*
X4802Y577D01*
X4830Y577D02*
X4839Y577D01*
X4845Y577D02*
X4870Y577D01*
X4922Y577D02*
X4946Y577D01*
X4994Y577D02*
X5009Y577D01*
X5014Y577D02*
X5023Y577D01*
X5119Y577D02*
X5127Y577D01*
X5158Y577D02*
X5167Y577D01*
X5200Y577D02*
X5225Y577D01*
X5230Y577D02*
X5239Y577D01*
X5334Y577D02*
X5343Y577D01*
X5348Y577D02*
X5374Y577D01*
X5415Y577D02*
X5446Y577D01*
X5485Y577D02*
X5509Y577D01*
X5518Y577D02*
X5527Y577D01*
X5551Y577D02*
X5559Y577D01*
X5564Y577D02*
X5590Y577D01*
X5642Y577D02*
X5650Y577D01*
X5699Y577D02*
X5738Y577D01*
X5775Y577D02*
X5806Y577D01*
X5838Y577D02*
X5847Y577D01*
X5852Y577D02*
X5878Y577D01*
X5982Y577D02*
X5991Y577D01*
X6022Y577D02*
X6031Y577D01*
X6088Y577D02*
X6099Y577D01*
X6126Y577D02*
X6135Y577D01*
X6166Y577D02*
X6175Y577D01*
X4546Y576D02*
X4587Y576D01*
X4622Y576D02*
X4655Y576D01*
X4686Y576D02*
X4695Y576D01*
X4699Y576D02*
X4727Y576D01*
X4778Y576D02*
X4802Y576D01*
X4830Y576D02*
X4839Y576D01*
X4843Y576D02*
X4871Y576D01*
X4922Y576D02*
X4946Y576D01*
X4996Y576D02*
X5010Y576D01*
X5014Y576D02*
X5023Y576D01*
X5118Y576D02*
X5127Y576D01*
X5158Y576D02*
X5167Y576D01*
X5198Y576D02*
X5227Y576D01*
X5230Y576D02*
X5239Y576D01*
X5334Y576D02*
X5343Y576D01*
X5347Y576D02*
X5375Y576D01*
X5414Y576D02*
X5447Y576D01*
X5484Y576D02*
X5510Y576D01*
X5518Y576D02*
X5527Y576D01*
X5550Y576D02*
X5559Y576D01*
X5563Y576D02*
X5591Y576D01*
X5642Y576D02*
X5651Y576D01*
X5698Y576D02*
X5739Y576D01*
X5774Y576D02*
X5807Y576D01*
X5838Y576D02*
X5847Y576D01*
X5851Y576D02*
X5879Y576D01*
X5982Y576D02*
X5991Y576D01*
X6022Y576D02*
X6031Y576D01*
X6089Y576D02*
X6099Y576D01*
X6126Y576D02*
X6135Y576D01*
X6166Y576D02*
X6175Y576D01*
X4545Y575D02*
X4588Y575D01*
X4621Y575D02*
X4656Y575D01*
X4686Y575D02*
X4695Y575D01*
X4698Y575D02*
X4728Y575D01*
X4778Y575D02*
X4802Y575D01*
X4830Y575D02*
X4839Y575D01*
X4842Y575D02*
X4872Y575D01*
X4922Y575D02*
X4946Y575D01*
X4997Y575D02*
X5011Y575D01*
X5014Y575D02*
X5023Y575D01*
X5118Y575D02*
X5127Y575D01*
X5158Y575D02*
X5167Y575D01*
X5197Y575D02*
X5228Y575D01*
X5230Y575D02*
X5239Y575D01*
X5334Y575D02*
X5343Y575D01*
X5346Y575D02*
X5376Y575D01*
X5413Y575D02*
X5448Y575D01*
X5483Y575D02*
X5512Y575D01*
X5518Y575D02*
X5527Y575D01*
X5550Y575D02*
X5559Y575D01*
X5562Y575D02*
X5592Y575D01*
X5642Y575D02*
X5653Y575D01*
X5697Y575D02*
X5739Y575D01*
X5773Y575D02*
X5808Y575D01*
X5838Y575D02*
X5847Y575D01*
X5850Y575D02*
X5880Y575D01*
X5982Y575D02*
X5992Y575D01*
X6022Y575D02*
X6031Y575D01*
X6089Y575D02*
X6100Y575D01*
X6126Y575D02*
X6135Y575D01*
X6166Y575D02*
X6175Y575D01*
X4544Y574D02*
X4588Y574D01*
X4620Y574D02*
X4657Y574D01*
X4686Y574D02*
X4729Y574D01*
X4778Y574D02*
X4802Y574D01*
X4830Y574D02*
X4873Y574D01*
X4922Y574D02*
X4946Y574D01*
X4998Y574D02*
X5023Y574D01*
X5118Y574D02*
X5127Y574D01*
X5158Y574D02*
X5167Y574D01*
X5196Y574D02*
X5239Y574D01*
X5334Y574D02*
X5377Y574D01*
X5412Y574D02*
X5449Y574D01*
X5482Y574D02*
X5514Y574D01*
X5518Y574D02*
X5527Y574D01*
X5550Y574D02*
X5593Y574D01*
X5642Y574D02*
X5654Y574D01*
X5696Y574D02*
X5740Y574D01*
X5772Y574D02*
X5809Y574D01*
X5838Y574D02*
X5881Y574D01*
X5983Y574D02*
X5992Y574D01*
X6022Y574D02*
X6031Y574D01*
X6090Y574D02*
X6100Y574D01*
X6126Y574D02*
X6135Y574D01*
X6166Y574D02*
X6175Y574D01*
X4544Y573D02*
X4589Y573D01*
X4619Y573D02*
X4659Y573D01*
X4686Y573D02*
X4731Y573D01*
X4778Y573D02*
X4802Y573D01*
X4830Y573D02*
X4874Y573D01*
X4922Y573D02*
X4946Y573D01*
X4999Y573D02*
X5023Y573D01*
X5118Y573D02*
X5127Y573D01*
X5158Y573D02*
X5167Y573D01*
X5195Y573D02*
X5239Y573D01*
X5334Y573D02*
X5378Y573D01*
X5411Y573D02*
X5450Y573D01*
X5482Y573D02*
X5515Y573D01*
X5518Y573D02*
X5527Y573D01*
X5550Y573D02*
X5594Y573D01*
X5642Y573D02*
X5657Y573D01*
X5696Y573D02*
X5741Y573D01*
X5771Y573D02*
X5810Y573D01*
X5838Y573D02*
X5882Y573D01*
X5983Y573D02*
X5993Y573D01*
X6022Y573D02*
X6031Y573D01*
X6090Y573D02*
X6101Y573D01*
X6126Y573D02*
X6135Y573D01*
X6166Y573D02*
X6175Y573D01*
X4543Y572D02*
X4589Y572D01*
X4618Y572D02*
X4659Y572D01*
X4686Y572D02*
X4731Y572D01*
X4778Y572D02*
X4801Y572D01*
X4830Y572D02*
X4875Y572D01*
X4922Y572D02*
X4945Y572D01*
X5000Y572D02*
X5023Y572D01*
X5118Y572D02*
X5127Y572D01*
X5158Y572D02*
X5167Y572D01*
X5194Y572D02*
X5239Y572D01*
X5334Y572D02*
X5379Y572D01*
X5410Y572D02*
X5451Y572D01*
X5481Y572D02*
X5527Y572D01*
X5550Y572D02*
X5595Y572D01*
X5642Y572D02*
X5660Y572D01*
X5695Y572D02*
X5741Y572D01*
X5770Y572D02*
X5811Y572D01*
X5838Y572D02*
X5883Y572D01*
X5983Y572D02*
X5993Y572D01*
X6022Y572D02*
X6031Y572D01*
X6091Y572D02*
X6101Y572D01*
X6126Y572D02*
X6135Y572D01*
X6166Y572D02*
X6175Y572D01*
X4543Y571D02*
X4589Y571D01*
X4617Y571D02*
X4660Y571D01*
X4686Y571D02*
X4732Y571D01*
X4778Y571D02*
X4800Y571D01*
X4830Y571D02*
X4876Y571D01*
X4922Y571D02*
X4944Y571D01*
X5001Y571D02*
X5023Y571D01*
X5118Y571D02*
X5127Y571D01*
X5158Y571D02*
X5167Y571D01*
X5193Y571D02*
X5239Y571D01*
X5334Y571D02*
X5380Y571D01*
X5409Y571D02*
X5452Y571D01*
X5481Y571D02*
X5527Y571D01*
X5550Y571D02*
X5596Y571D01*
X5642Y571D02*
X5663Y571D01*
X5695Y571D02*
X5741Y571D01*
X5769Y571D02*
X5812Y571D01*
X5838Y571D02*
X5884Y571D01*
X5983Y571D02*
X5994Y571D01*
X6022Y571D02*
X6031Y571D01*
X6091Y571D02*
X6101Y571D01*
X6126Y571D02*
X6135Y571D01*
X6166Y571D02*
X6175Y571D01*
X4544Y570D02*
X4554Y570D01*
X4579Y570D02*
X4590Y570D01*
X4616Y570D02*
X4630Y570D01*
X4647Y570D02*
X4661Y570D01*
X4686Y570D02*
X4707Y570D01*
X4719Y570D02*
X4733Y570D01*
X4778Y570D02*
X4787Y570D01*
X4830Y570D02*
X4851Y570D01*
X4863Y570D02*
X4877Y570D01*
X4922Y570D02*
X4931Y570D01*
X5003Y570D02*
X5023Y570D01*
X5118Y570D02*
X5127Y570D01*
X5158Y570D02*
X5167Y570D01*
X5192Y570D02*
X5206Y570D01*
X5218Y570D02*
X5239Y570D01*
X5334Y570D02*
X5355Y570D01*
X5367Y570D02*
X5381Y570D01*
X5408Y570D02*
X5422Y570D01*
X5439Y570D02*
X5453Y570D01*
X5480Y570D02*
X5492Y570D01*
X5502Y570D02*
X5527Y570D01*
X5550Y570D02*
X5571Y570D01*
X5583Y570D02*
X5597Y570D01*
X5642Y570D02*
X5651Y570D01*
X5696Y570D02*
X5706Y570D01*
X5731Y570D02*
X5742Y570D01*
X5768Y570D02*
X5782Y570D01*
X5799Y570D02*
X5813Y570D01*
X5838Y570D02*
X5859Y570D01*
X5871Y570D02*
X5885Y570D01*
X5984Y570D02*
X5995Y570D01*
X6022Y570D02*
X6031Y570D01*
X6092Y570D02*
X6102Y570D01*
X6126Y570D02*
X6135Y570D01*
X6166Y570D02*
X6175Y570D01*
X4544Y569D02*
X4553Y569D01*
X4580Y569D02*
X4590Y569D01*
X4616Y569D02*
X4628Y569D01*
X4649Y569D02*
X4661Y569D01*
X4686Y569D02*
X4706Y569D01*
X4721Y569D02*
X4733Y569D01*
X4778Y569D02*
X4787Y569D01*
X4830Y569D02*
X4850Y569D01*
X4865Y569D02*
X4878Y569D01*
X4922Y569D02*
X4931Y569D01*
X5004Y569D02*
X5023Y569D01*
X5118Y569D02*
X5127Y569D01*
X5158Y569D02*
X5167Y569D01*
X5192Y569D02*
X5205Y569D01*
X5220Y569D02*
X5239Y569D01*
X5334Y569D02*
X5354Y569D01*
X5369Y569D02*
X5382Y569D01*
X5408Y569D02*
X5420Y569D01*
X5441Y569D02*
X5453Y569D01*
X5480Y569D02*
X5490Y569D01*
X5504Y569D02*
X5527Y569D01*
X5550Y569D02*
X5570Y569D01*
X5585Y569D02*
X5597Y569D01*
X5642Y569D02*
X5651Y569D01*
X5696Y569D02*
X5705Y569D01*
X5732Y569D02*
X5742Y569D01*
X5768Y569D02*
X5780Y569D01*
X5801Y569D02*
X5813Y569D01*
X5838Y569D02*
X5858Y569D01*
X5873Y569D02*
X5886Y569D01*
X5984Y569D02*
X5997Y569D01*
X6022Y569D02*
X6031Y569D01*
X6092Y569D02*
X6102Y569D01*
X6126Y569D02*
X6135Y569D01*
X6166Y569D02*
X6175Y569D01*
X4544Y568D02*
X4551Y568D01*
X4581Y568D02*
X4590Y568D01*
X4615Y568D02*
X4627Y568D01*
X4650Y568D02*
X4662Y568D01*
X4686Y568D02*
X4704Y568D01*
X4722Y568D02*
X4734Y568D01*
X4778Y568D02*
X4787Y568D01*
X4830Y568D02*
X4848Y568D01*
X4866Y568D02*
X4878Y568D01*
X4922Y568D02*
X4931Y568D01*
X5005Y568D02*
X5023Y568D01*
X5118Y568D02*
X5127Y568D01*
X5158Y568D02*
X5167Y568D01*
X5191Y568D02*
X5203Y568D01*
X5221Y568D02*
X5239Y568D01*
X5334Y568D02*
X5352Y568D01*
X5370Y568D02*
X5382Y568D01*
X5407Y568D02*
X5419Y568D01*
X5442Y568D02*
X5454Y568D01*
X5480Y568D02*
X5490Y568D01*
X5505Y568D02*
X5527Y568D01*
X5550Y568D02*
X5568Y568D01*
X5586Y568D02*
X5598Y568D01*
X5642Y568D02*
X5651Y568D01*
X5696Y568D02*
X5703Y568D01*
X5733Y568D02*
X5742Y568D01*
X5767Y568D02*
X5779Y568D01*
X5802Y568D02*
X5814Y568D01*
X5838Y568D02*
X5856Y568D01*
X5874Y568D02*
X5886Y568D01*
X5985Y568D02*
X5999Y568D01*
X6022Y568D02*
X6031Y568D01*
X6093Y568D02*
X6102Y568D01*
X6126Y568D02*
X6135Y568D01*
X6166Y568D02*
X6175Y568D01*
X4546Y567D02*
X4550Y567D01*
X4581Y567D02*
X4590Y567D01*
X4615Y567D02*
X4626Y567D01*
X4651Y567D02*
X4662Y567D01*
X4686Y567D02*
X4703Y567D01*
X4723Y567D02*
X4734Y567D01*
X4778Y567D02*
X4787Y567D01*
X4830Y567D02*
X4847Y567D01*
X4867Y567D02*
X4878Y567D01*
X4922Y567D02*
X4931Y567D01*
X5006Y567D02*
X5023Y567D01*
X5118Y567D02*
X5128Y567D01*
X5158Y567D02*
X5167Y567D01*
X5191Y567D02*
X5202Y567D01*
X5222Y567D02*
X5239Y567D01*
X5334Y567D02*
X5351Y567D01*
X5371Y567D02*
X5382Y567D01*
X5407Y567D02*
X5418Y567D01*
X5443Y567D02*
X5454Y567D01*
X5480Y567D02*
X5489Y567D01*
X5507Y567D02*
X5527Y567D01*
X5550Y567D02*
X5567Y567D01*
X5587Y567D02*
X5598Y567D01*
X5642Y567D02*
X5651Y567D01*
X5698Y567D02*
X5702Y567D01*
X5733Y567D02*
X5742Y567D01*
X5767Y567D02*
X5778Y567D01*
X5803Y567D02*
X5814Y567D01*
X5838Y567D02*
X5855Y567D01*
X5875Y567D02*
X5886Y567D01*
X5985Y567D02*
X6031Y567D01*
X6093Y567D02*
X6103Y567D01*
X6126Y567D02*
X6136Y567D01*
X6166Y567D02*
X6175Y567D01*
X4580Y566D02*
X4590Y566D01*
X4615Y566D02*
X4625Y566D01*
X4652Y566D02*
X4663Y566D01*
X4686Y566D02*
X4702Y566D01*
X4724Y566D02*
X4735Y566D01*
X4778Y566D02*
X4787Y566D01*
X4830Y566D02*
X4846Y566D01*
X4868Y566D02*
X4879Y566D01*
X4922Y566D02*
X4931Y566D01*
X5007Y566D02*
X5023Y566D01*
X5118Y566D02*
X5128Y566D01*
X5157Y566D02*
X5167Y566D01*
X5191Y566D02*
X5201Y566D01*
X5223Y566D02*
X5239Y566D01*
X5334Y566D02*
X5350Y566D01*
X5372Y566D02*
X5383Y566D01*
X5407Y566D02*
X5417Y566D01*
X5444Y566D02*
X5454Y566D01*
X5480Y566D02*
X5489Y566D01*
X5508Y566D02*
X5527Y566D01*
X5550Y566D02*
X5566Y566D01*
X5588Y566D02*
X5599Y566D01*
X5642Y566D02*
X5651Y566D01*
X5732Y566D02*
X5742Y566D01*
X5767Y566D02*
X5777Y566D01*
X5804Y566D02*
X5814Y566D01*
X5838Y566D02*
X5854Y566D01*
X5876Y566D02*
X5887Y566D01*
X5986Y566D02*
X6031Y566D01*
X6093Y566D02*
X6103Y566D01*
X6126Y566D02*
X6136Y566D01*
X6166Y566D02*
X6175Y566D01*
X4579Y565D02*
X4590Y565D01*
X4615Y565D02*
X4624Y565D01*
X4653Y565D02*
X4663Y565D01*
X4686Y565D02*
X4701Y565D01*
X4725Y565D02*
X4735Y565D01*
X4778Y565D02*
X4787Y565D01*
X4830Y565D02*
X4845Y565D01*
X4869Y565D02*
X4879Y565D01*
X4922Y565D02*
X4931Y565D01*
X5008Y565D02*
X5023Y565D01*
X5119Y565D02*
X5129Y565D01*
X5157Y565D02*
X5167Y565D01*
X5191Y565D02*
X5200Y565D01*
X5224Y565D02*
X5239Y565D01*
X5334Y565D02*
X5349Y565D01*
X5373Y565D02*
X5383Y565D01*
X5407Y565D02*
X5416Y565D01*
X5445Y565D02*
X5455Y565D01*
X5479Y565D02*
X5489Y565D01*
X5510Y565D02*
X5527Y565D01*
X5550Y565D02*
X5565Y565D01*
X5589Y565D02*
X5599Y565D01*
X5642Y565D02*
X5651Y565D01*
X5731Y565D02*
X5741Y565D01*
X5767Y565D02*
X5776Y565D01*
X5805Y565D02*
X5815Y565D01*
X5838Y565D02*
X5853Y565D01*
X5877Y565D02*
X5887Y565D01*
X5987Y565D02*
X6031Y565D01*
X6094Y565D02*
X6103Y565D01*
X6127Y565D02*
X6137Y565D01*
X6166Y565D02*
X6175Y565D01*
X4577Y564D02*
X4589Y564D01*
X4614Y564D02*
X4624Y564D01*
X4654Y564D02*
X4663Y564D01*
X4686Y564D02*
X4700Y564D01*
X4726Y564D02*
X4735Y564D01*
X4778Y564D02*
X4787Y564D01*
X4830Y564D02*
X4844Y564D01*
X4870Y564D02*
X4879Y564D01*
X4922Y564D02*
X4931Y564D01*
X5010Y564D02*
X5023Y564D01*
X5119Y564D02*
X5129Y564D01*
X5156Y564D02*
X5166Y564D01*
X5190Y564D02*
X5200Y564D01*
X5226Y564D02*
X5239Y564D01*
X5334Y564D02*
X5348Y564D01*
X5374Y564D02*
X5383Y564D01*
X5406Y564D02*
X5416Y564D01*
X5446Y564D02*
X5455Y564D01*
X5479Y564D02*
X5489Y564D01*
X5511Y564D02*
X5527Y564D01*
X5550Y564D02*
X5564Y564D01*
X5590Y564D02*
X5599Y564D01*
X5642Y564D02*
X5651Y564D01*
X5729Y564D02*
X5741Y564D01*
X5766Y564D02*
X5776Y564D01*
X5806Y564D02*
X5815Y564D01*
X5838Y564D02*
X5852Y564D01*
X5878Y564D02*
X5887Y564D01*
X5988Y564D02*
X6031Y564D01*
X6094Y564D02*
X6103Y564D01*
X6127Y564D02*
X6138Y564D01*
X6166Y564D02*
X6175Y564D01*
X4575Y563D02*
X4589Y563D01*
X4614Y563D02*
X4623Y563D01*
X4654Y563D02*
X4663Y563D01*
X4686Y563D02*
X4699Y563D01*
X4726Y563D02*
X4735Y563D01*
X4778Y563D02*
X4787Y563D01*
X4830Y563D02*
X4843Y563D01*
X4870Y563D02*
X4879Y563D01*
X4922Y563D02*
X4931Y563D01*
X5011Y563D02*
X5023Y563D01*
X5120Y563D02*
X5130Y563D01*
X5156Y563D02*
X5166Y563D01*
X5190Y563D02*
X5199Y563D01*
X5227Y563D02*
X5239Y563D01*
X5334Y563D02*
X5347Y563D01*
X5374Y563D02*
X5383Y563D01*
X5406Y563D02*
X5415Y563D01*
X5446Y563D02*
X5455Y563D01*
X5479Y563D02*
X5489Y563D01*
X5513Y563D02*
X5527Y563D01*
X5550Y563D02*
X5563Y563D01*
X5590Y563D02*
X5599Y563D01*
X5642Y563D02*
X5651Y563D01*
X5727Y563D02*
X5741Y563D01*
X5766Y563D02*
X5775Y563D01*
X5806Y563D02*
X5815Y563D01*
X5838Y563D02*
X5851Y563D01*
X5878Y563D02*
X5887Y563D01*
X5989Y563D02*
X6031Y563D01*
X6094Y563D02*
X6103Y563D01*
X6127Y563D02*
X6175Y563D01*
X4572Y562D02*
X4588Y562D01*
X4614Y562D02*
X4623Y562D01*
X4654Y562D02*
X4663Y562D01*
X4686Y562D02*
X4698Y562D01*
X4726Y562D02*
X4735Y562D01*
X4778Y562D02*
X4787Y562D01*
X4830Y562D02*
X4842Y562D01*
X4870Y562D02*
X4879Y562D01*
X4922Y562D02*
X4931Y562D01*
X5011Y562D02*
X5023Y562D01*
X5120Y562D02*
X5130Y562D01*
X5155Y562D02*
X5165Y562D01*
X5190Y562D02*
X5199Y562D01*
X5228Y562D02*
X5239Y562D01*
X5334Y562D02*
X5346Y562D01*
X5374Y562D02*
X5383Y562D01*
X5406Y562D02*
X5415Y562D01*
X5446Y562D02*
X5455Y562D01*
X5479Y562D02*
X5488Y562D01*
X5515Y562D02*
X5527Y562D01*
X5550Y562D02*
X5561Y562D01*
X5590Y562D02*
X5599Y562D01*
X5642Y562D02*
X5651Y562D01*
X5724Y562D02*
X5740Y562D01*
X5766Y562D02*
X5775Y562D01*
X5806Y562D02*
X5815Y562D01*
X5838Y562D02*
X5849Y562D01*
X5878Y562D02*
X5887Y562D01*
X5989Y562D02*
X6031Y562D01*
X6094Y562D02*
X6103Y562D01*
X6128Y562D02*
X6175Y562D01*
X4570Y561D02*
X4588Y561D01*
X4614Y561D02*
X4623Y561D01*
X4654Y561D02*
X4663Y561D01*
X4686Y561D02*
X4697Y561D01*
X4726Y561D02*
X4735Y561D01*
X4778Y561D02*
X4787Y561D01*
X4830Y561D02*
X4841Y561D01*
X4870Y561D02*
X4879Y561D01*
X4922Y561D02*
X4931Y561D01*
X5009Y561D02*
X5023Y561D01*
X5120Y561D02*
X5130Y561D01*
X5155Y561D02*
X5165Y561D01*
X5190Y561D02*
X5199Y561D01*
X5229Y561D02*
X5239Y561D01*
X5334Y561D02*
X5345Y561D01*
X5374Y561D02*
X5383Y561D01*
X5406Y561D02*
X5415Y561D01*
X5446Y561D02*
X5455Y561D01*
X5479Y561D02*
X5488Y561D01*
X5516Y561D02*
X5527Y561D01*
X5550Y561D02*
X5561Y561D01*
X5590Y561D02*
X5599Y561D01*
X5642Y561D02*
X5651Y561D01*
X5722Y561D02*
X5740Y561D01*
X5766Y561D02*
X5775Y561D01*
X5806Y561D02*
X5815Y561D01*
X5838Y561D02*
X5849Y561D01*
X5878Y561D02*
X5887Y561D01*
X5988Y561D02*
X6031Y561D01*
X6094Y561D02*
X6103Y561D01*
X6128Y561D02*
X6175Y561D01*
X4568Y560D02*
X4587Y560D01*
X4614Y560D02*
X4623Y560D01*
X4654Y560D02*
X4663Y560D01*
X4686Y560D02*
X4696Y560D01*
X4726Y560D02*
X4735Y560D01*
X4778Y560D02*
X4787Y560D01*
X4830Y560D02*
X4840Y560D01*
X4870Y560D02*
X4879Y560D01*
X4922Y560D02*
X4931Y560D01*
X5008Y560D02*
X5023Y560D01*
X5121Y560D02*
X5131Y560D01*
X5154Y560D02*
X5165Y560D01*
X5190Y560D02*
X5199Y560D01*
X5230Y560D02*
X5239Y560D01*
X5334Y560D02*
X5344Y560D01*
X5374Y560D02*
X5383Y560D01*
X5406Y560D02*
X5415Y560D01*
X5446Y560D02*
X5455Y560D01*
X5479Y560D02*
X5488Y560D01*
X5518Y560D02*
X5527Y560D01*
X5550Y560D02*
X5560Y560D01*
X5590Y560D02*
X5599Y560D01*
X5642Y560D02*
X5651Y560D01*
X5720Y560D02*
X5739Y560D01*
X5766Y560D02*
X5775Y560D01*
X5806Y560D02*
X5815Y560D01*
X5838Y560D02*
X5848Y560D01*
X5878Y560D02*
X5887Y560D01*
X5987Y560D02*
X6031Y560D01*
X6094Y560D02*
X6103Y560D01*
X6129Y560D02*
X6175Y560D01*
X4565Y559D02*
X4586Y559D01*
X4614Y559D02*
X4623Y559D01*
X4654Y559D02*
X4663Y559D01*
X4686Y559D02*
X4695Y559D01*
X4726Y559D02*
X4735Y559D01*
X4778Y559D02*
X4787Y559D01*
X4830Y559D02*
X4839Y559D01*
X4870Y559D02*
X4879Y559D01*
X4922Y559D02*
X4931Y559D01*
X5007Y559D02*
X5023Y559D01*
X5121Y559D02*
X5131Y559D01*
X5154Y559D02*
X5164Y559D01*
X5190Y559D02*
X5199Y559D01*
X5230Y559D02*
X5239Y559D01*
X5334Y559D02*
X5343Y559D01*
X5374Y559D02*
X5383Y559D01*
X5406Y559D02*
X5415Y559D01*
X5446Y559D02*
X5455Y559D01*
X5479Y559D02*
X5488Y559D01*
X5518Y559D02*
X5527Y559D01*
X5550Y559D02*
X5559Y559D01*
X5590Y559D02*
X5599Y559D01*
X5642Y559D02*
X5651Y559D01*
X5717Y559D02*
X5738Y559D01*
X5766Y559D02*
X5775Y559D01*
X5806Y559D02*
X5815Y559D01*
X5838Y559D02*
X5847Y559D01*
X5878Y559D02*
X5887Y559D01*
X5986Y559D02*
X6031Y559D01*
X6093Y559D02*
X6103Y559D01*
X6130Y559D02*
X6175Y559D01*
X4563Y558D02*
X4586Y558D01*
X4614Y558D02*
X4623Y558D01*
X4654Y558D02*
X4663Y558D01*
X4686Y558D02*
X4695Y558D01*
X4726Y558D02*
X4735Y558D01*
X4778Y558D02*
X4787Y558D01*
X4830Y558D02*
X4839Y558D01*
X4870Y558D02*
X4879Y558D01*
X4922Y558D02*
X4931Y558D01*
X5006Y558D02*
X5023Y558D01*
X5122Y558D02*
X5132Y558D01*
X5154Y558D02*
X5164Y558D01*
X5190Y558D02*
X5199Y558D01*
X5230Y558D02*
X5239Y558D01*
X5334Y558D02*
X5343Y558D01*
X5374Y558D02*
X5383Y558D01*
X5406Y558D02*
X5415Y558D01*
X5446Y558D02*
X5455Y558D01*
X5479Y558D02*
X5488Y558D01*
X5518Y558D02*
X5527Y558D01*
X5550Y558D02*
X5559Y558D01*
X5590Y558D02*
X5599Y558D01*
X5642Y558D02*
X5651Y558D01*
X5715Y558D02*
X5738Y558D01*
X5766Y558D02*
X5775Y558D01*
X5806Y558D02*
X5815Y558D01*
X5838Y558D02*
X5847Y558D01*
X5878Y558D02*
X5887Y558D01*
X5985Y558D02*
X6031Y558D01*
X6093Y558D02*
X6103Y558D01*
X6131Y558D02*
X6175Y558D01*
X4561Y557D02*
X4584Y557D01*
X4614Y557D02*
X4623Y557D01*
X4654Y557D02*
X4663Y557D01*
X4686Y557D02*
X4695Y557D01*
X4726Y557D02*
X4735Y557D01*
X4778Y557D02*
X4787Y557D01*
X4830Y557D02*
X4839Y557D01*
X4870Y557D02*
X4879Y557D01*
X4922Y557D02*
X4931Y557D01*
X5005Y557D02*
X5023Y557D01*
X5122Y557D02*
X5132Y557D01*
X5153Y557D02*
X5163Y557D01*
X5190Y557D02*
X5199Y557D01*
X5230Y557D02*
X5239Y557D01*
X5334Y557D02*
X5343Y557D01*
X5374Y557D02*
X5383Y557D01*
X5406Y557D02*
X5415Y557D01*
X5446Y557D02*
X5455Y557D01*
X5479Y557D02*
X5488Y557D01*
X5518Y557D02*
X5527Y557D01*
X5550Y557D02*
X5559Y557D01*
X5590Y557D02*
X5599Y557D01*
X5642Y557D02*
X5651Y557D01*
X5713Y557D02*
X5736Y557D01*
X5766Y557D02*
X5775Y557D01*
X5806Y557D02*
X5815Y557D01*
X5838Y557D02*
X5847Y557D01*
X5878Y557D02*
X5887Y557D01*
X5985Y557D02*
X5998Y557D01*
X6022Y557D02*
X6031Y557D01*
X6093Y557D02*
X6102Y557D01*
X6132Y557D02*
X6175Y557D01*
X4558Y556D02*
X4583Y556D01*
X4614Y556D02*
X4623Y556D01*
X4654Y556D02*
X4663Y556D01*
X4686Y556D02*
X4695Y556D01*
X4726Y556D02*
X4735Y556D01*
X4778Y556D02*
X4787Y556D01*
X4830Y556D02*
X4839Y556D01*
X4870Y556D02*
X4879Y556D01*
X4922Y556D02*
X4931Y556D01*
X5004Y556D02*
X5023Y556D01*
X5123Y556D02*
X5133Y556D01*
X5153Y556D02*
X5163Y556D01*
X5190Y556D02*
X5199Y556D01*
X5230Y556D02*
X5239Y556D01*
X5334Y556D02*
X5343Y556D01*
X5374Y556D02*
X5383Y556D01*
X5406Y556D02*
X5415Y556D01*
X5446Y556D02*
X5455Y556D01*
X5479Y556D02*
X5488Y556D01*
X5518Y556D02*
X5527Y556D01*
X5550Y556D02*
X5559Y556D01*
X5590Y556D02*
X5599Y556D01*
X5642Y556D02*
X5651Y556D01*
X5710Y556D02*
X5735Y556D01*
X5766Y556D02*
X5775Y556D01*
X5806Y556D02*
X5815Y556D01*
X5838Y556D02*
X5847Y556D01*
X5878Y556D02*
X5887Y556D01*
X5984Y556D02*
X5996Y556D01*
X6022Y556D02*
X6031Y556D01*
X6092Y556D02*
X6102Y556D01*
X6133Y556D02*
X6175Y556D01*
X4556Y555D02*
X4580Y555D01*
X4614Y555D02*
X4624Y555D01*
X4654Y555D02*
X4663Y555D01*
X4686Y555D02*
X4695Y555D01*
X4726Y555D02*
X4735Y555D01*
X4778Y555D02*
X4787Y555D01*
X4830Y555D02*
X4839Y555D01*
X4870Y555D02*
X4879Y555D01*
X4922Y555D02*
X4931Y555D01*
X5002Y555D02*
X5023Y555D01*
X5123Y555D02*
X5133Y555D01*
X5152Y555D02*
X5162Y555D01*
X5190Y555D02*
X5199Y555D01*
X5230Y555D02*
X5239Y555D01*
X5334Y555D02*
X5343Y555D01*
X5374Y555D02*
X5383Y555D01*
X5406Y555D02*
X5416Y555D01*
X5446Y555D02*
X5455Y555D01*
X5479Y555D02*
X5488Y555D01*
X5518Y555D02*
X5527Y555D01*
X5550Y555D02*
X5559Y555D01*
X5590Y555D02*
X5599Y555D01*
X5642Y555D02*
X5651Y555D01*
X5708Y555D02*
X5732Y555D01*
X5766Y555D02*
X5776Y555D01*
X5806Y555D02*
X5815Y555D01*
X5838Y555D02*
X5847Y555D01*
X5878Y555D02*
X5887Y555D01*
X5984Y555D02*
X5995Y555D01*
X6022Y555D02*
X6031Y555D01*
X6092Y555D02*
X6102Y555D01*
X6135Y555D02*
X6175Y555D01*
X4554Y554D02*
X4578Y554D01*
X4614Y554D02*
X4663Y554D01*
X4686Y554D02*
X4695Y554D01*
X4726Y554D02*
X4735Y554D01*
X4778Y554D02*
X4787Y554D01*
X4830Y554D02*
X4839Y554D01*
X4870Y554D02*
X4879Y554D01*
X4922Y554D02*
X4931Y554D01*
X5001Y554D02*
X5023Y554D01*
X5123Y554D02*
X5134Y554D01*
X5152Y554D02*
X5162Y554D01*
X5190Y554D02*
X5199Y554D01*
X5230Y554D02*
X5239Y554D01*
X5334Y554D02*
X5343Y554D01*
X5374Y554D02*
X5383Y554D01*
X5406Y554D02*
X5455Y554D01*
X5479Y554D02*
X5488Y554D01*
X5518Y554D02*
X5527Y554D01*
X5550Y554D02*
X5559Y554D01*
X5590Y554D02*
X5599Y554D01*
X5642Y554D02*
X5651Y554D01*
X5706Y554D02*
X5730Y554D01*
X5766Y554D02*
X5815Y554D01*
X5838Y554D02*
X5847Y554D01*
X5878Y554D02*
X5887Y554D01*
X5983Y554D02*
X5994Y554D01*
X6022Y554D02*
X6031Y554D01*
X6091Y554D02*
X6101Y554D01*
X6137Y554D02*
X6175Y554D01*
X4551Y553D02*
X4576Y553D01*
X4614Y553D02*
X4663Y553D01*
X4686Y553D02*
X4695Y553D01*
X4726Y553D02*
X4735Y553D01*
X4778Y553D02*
X4787Y553D01*
X4830Y553D02*
X4839Y553D01*
X4870Y553D02*
X4879Y553D01*
X4922Y553D02*
X4931Y553D01*
X5000Y553D02*
X5023Y553D01*
X5124Y553D02*
X5134Y553D01*
X5151Y553D02*
X5161Y553D01*
X5190Y553D02*
X5199Y553D01*
X5230Y553D02*
X5239Y553D01*
X5334Y553D02*
X5343Y553D01*
X5374Y553D02*
X5383Y553D01*
X5406Y553D02*
X5455Y553D01*
X5479Y553D02*
X5488Y553D01*
X5518Y553D02*
X5527Y553D01*
X5550Y553D02*
X5559Y553D01*
X5590Y553D02*
X5599Y553D01*
X5642Y553D02*
X5651Y553D01*
X5703Y553D02*
X5728Y553D01*
X5766Y553D02*
X5815Y553D01*
X5838Y553D02*
X5847Y553D01*
X5878Y553D02*
X5887Y553D01*
X5983Y553D02*
X5993Y553D01*
X6022Y553D02*
X6031Y553D01*
X6091Y553D02*
X6101Y553D01*
X6166Y553D02*
X6175Y553D01*
X4550Y552D02*
X4573Y552D01*
X4614Y552D02*
X4663Y552D01*
X4686Y552D02*
X4695Y552D01*
X4726Y552D02*
X4735Y552D01*
X4778Y552D02*
X4787Y552D01*
X4830Y552D02*
X4839Y552D01*
X4870Y552D02*
X4879Y552D01*
X4922Y552D02*
X4931Y552D01*
X4999Y552D02*
X5023Y552D01*
X5124Y552D02*
X5134Y552D01*
X5151Y552D02*
X5161Y552D01*
X5190Y552D02*
X5199Y552D01*
X5230Y552D02*
X5239Y552D01*
X5334Y552D02*
X5343Y552D01*
X5374Y552D02*
X5383Y552D01*
X5406Y552D02*
X5455Y552D01*
X5479Y552D02*
X5488Y552D01*
X5518Y552D02*
X5527Y552D01*
X5550Y552D02*
X5559Y552D01*
X5590Y552D02*
X5599Y552D01*
X5642Y552D02*
X5651Y552D01*
X5702Y552D02*
X5725Y552D01*
X5766Y552D02*
X5815Y552D01*
X5838Y552D02*
X5847Y552D01*
X5878Y552D02*
X5887Y552D01*
X5983Y552D02*
X5992Y552D01*
X6022Y552D02*
X6031Y552D01*
X6090Y552D02*
X6100Y552D01*
X6166Y552D02*
X6175Y552D01*
X4548Y551D02*
X4571Y551D01*
X4614Y551D02*
X4663Y551D01*
X4686Y551D02*
X4695Y551D01*
X4726Y551D02*
X4735Y551D01*
X4778Y551D02*
X4787Y551D01*
X4830Y551D02*
X4839Y551D01*
X4870Y551D02*
X4879Y551D01*
X4922Y551D02*
X4931Y551D01*
X4998Y551D02*
X5012Y551D01*
X5014Y551D02*
X5023Y551D01*
X5125Y551D02*
X5135Y551D01*
X5151Y551D02*
X5161Y551D01*
X5190Y551D02*
X5199Y551D01*
X5230Y551D02*
X5239Y551D01*
X5334Y551D02*
X5343Y551D01*
X5374Y551D02*
X5383Y551D01*
X5406Y551D02*
X5455Y551D01*
X5479Y551D02*
X5488Y551D01*
X5518Y551D02*
X5527Y551D01*
X5550Y551D02*
X5559Y551D01*
X5590Y551D02*
X5599Y551D01*
X5642Y551D02*
X5651Y551D01*
X5700Y551D02*
X5723Y551D01*
X5766Y551D02*
X5815Y551D01*
X5838Y551D02*
X5847Y551D01*
X5878Y551D02*
X5887Y551D01*
X5983Y551D02*
X5992Y551D01*
X6022Y551D02*
X6031Y551D01*
X6090Y551D02*
X6100Y551D01*
X6166Y551D02*
X6175Y551D01*
X4547Y550D02*
X4569Y550D01*
X4614Y550D02*
X4663Y550D01*
X4686Y550D02*
X4695Y550D01*
X4726Y550D02*
X4735Y550D01*
X4778Y550D02*
X4787Y550D01*
X4830Y550D02*
X4839Y550D01*
X4870Y550D02*
X4879Y550D01*
X4922Y550D02*
X4931Y550D01*
X4996Y550D02*
X5011Y550D01*
X5014Y550D02*
X5023Y550D01*
X5125Y550D02*
X5135Y550D01*
X5150Y550D02*
X5160Y550D01*
X5190Y550D02*
X5199Y550D01*
X5230Y550D02*
X5239Y550D01*
X5334Y550D02*
X5343Y550D01*
X5374Y550D02*
X5383Y550D01*
X5406Y550D02*
X5455Y550D01*
X5479Y550D02*
X5488Y550D01*
X5518Y550D02*
X5527Y550D01*
X5550Y550D02*
X5559Y550D01*
X5590Y550D02*
X5599Y550D01*
X5642Y550D02*
X5651Y550D01*
X5699Y550D02*
X5721Y550D01*
X5766Y550D02*
X5815Y550D01*
X5838Y550D02*
X5847Y550D01*
X5878Y550D02*
X5887Y550D01*
X5982Y550D02*
X5992Y550D01*
X6022Y550D02*
X6031Y550D01*
X6089Y550D02*
X6100Y550D01*
X6166Y550D02*
X6175Y550D01*
X4546Y549D02*
X4567Y549D01*
X4614Y549D02*
X4663Y549D01*
X4686Y549D02*
X4696Y549D01*
X4726Y549D02*
X4735Y549D01*
X4778Y549D02*
X4787Y549D01*
X4830Y549D02*
X4839Y549D01*
X4870Y549D02*
X4879Y549D01*
X4922Y549D02*
X4931Y549D01*
X4995Y549D02*
X5010Y549D01*
X5014Y549D02*
X5023Y549D01*
X5126Y549D02*
X5136Y549D01*
X5150Y549D02*
X5160Y549D01*
X5190Y549D02*
X5199Y549D01*
X5230Y549D02*
X5239Y549D01*
X5334Y549D02*
X5343Y549D01*
X5374Y549D02*
X5383Y549D01*
X5406Y549D02*
X5455Y549D01*
X5479Y549D02*
X5488Y549D01*
X5518Y549D02*
X5527Y549D01*
X5550Y549D02*
X5559Y549D01*
X5590Y549D02*
X5599Y549D01*
X5642Y549D02*
X5651Y549D01*
X5698Y549D02*
X5719Y549D01*
X5766Y549D02*
X5815Y549D01*
X5838Y549D02*
X5847Y549D01*
X5878Y549D02*
X5887Y549D01*
X5982Y549D02*
X5991Y549D01*
X6022Y549D02*
X6031Y549D01*
X6089Y549D02*
X6099Y549D01*
X6166Y549D02*
X6175Y549D01*
X4545Y548D02*
X4564Y548D01*
X4615Y548D02*
X4663Y548D01*
X4686Y548D02*
X4696Y548D01*
X4726Y548D02*
X4735Y548D01*
X4778Y548D02*
X4787Y548D01*
X4830Y548D02*
X4839Y548D01*
X4870Y548D02*
X4879Y548D01*
X4922Y548D02*
X4931Y548D01*
X4994Y548D02*
X5009Y548D01*
X5014Y548D02*
X5023Y548D01*
X5126Y548D02*
X5136Y548D01*
X5149Y548D02*
X5159Y548D01*
X5190Y548D02*
X5199Y548D01*
X5230Y548D02*
X5239Y548D01*
X5334Y548D02*
X5343Y548D01*
X5374Y548D02*
X5383Y548D01*
X5407Y548D02*
X5455Y548D01*
X5479Y548D02*
X5488Y548D01*
X5518Y548D02*
X5527Y548D01*
X5550Y548D02*
X5560Y548D01*
X5590Y548D02*
X5599Y548D01*
X5642Y548D02*
X5651Y548D01*
X5697Y548D02*
X5716Y548D01*
X5767Y548D02*
X5815Y548D01*
X5838Y548D02*
X5847Y548D01*
X5878Y548D02*
X5887Y548D01*
X5982Y548D02*
X5991Y548D01*
X6022Y548D02*
X6031Y548D01*
X6088Y548D02*
X6099Y548D01*
X6166Y548D02*
X6175Y548D01*
X4545Y547D02*
X4562Y547D01*
X4615Y547D02*
X4663Y547D01*
X4686Y547D02*
X4697Y547D01*
X4726Y547D02*
X4735Y547D01*
X4778Y547D02*
X4787Y547D01*
X4830Y547D02*
X4839Y547D01*
X4870Y547D02*
X4879Y547D01*
X4922Y547D02*
X4931Y547D01*
X4993Y547D02*
X5008Y547D01*
X5014Y547D02*
X5023Y547D01*
X5127Y547D02*
X5137Y547D01*
X5149Y547D02*
X5159Y547D01*
X5190Y547D02*
X5199Y547D01*
X5230Y547D02*
X5239Y547D01*
X5334Y547D02*
X5343Y547D01*
X5374Y547D02*
X5383Y547D01*
X5407Y547D02*
X5455Y547D01*
X5479Y547D02*
X5488Y547D01*
X5518Y547D02*
X5527Y547D01*
X5550Y547D02*
X5561Y547D01*
X5590Y547D02*
X5599Y547D01*
X5642Y547D02*
X5651Y547D01*
X5697Y547D02*
X5714Y547D01*
X5767Y547D02*
X5815Y547D01*
X5838Y547D02*
X5847Y547D01*
X5878Y547D02*
X5887Y547D01*
X5982Y547D02*
X5991Y547D01*
X6022Y547D02*
X6031Y547D01*
X6088Y547D02*
X6098Y547D01*
X6166Y547D02*
X6175Y547D01*
X4544Y546D02*
X4560Y546D01*
X4616Y546D02*
X4663Y546D01*
X4686Y546D02*
X4698Y546D01*
X4726Y546D02*
X4735Y546D01*
X4778Y546D02*
X4787Y546D01*
X4830Y546D02*
X4839Y546D01*
X4870Y546D02*
X4879Y546D01*
X4922Y546D02*
X4931Y546D01*
X4992Y546D02*
X5006Y546D01*
X5014Y546D02*
X5023Y546D01*
X5127Y546D02*
X5137Y546D01*
X5148Y546D02*
X5158Y546D01*
X5190Y546D02*
X5199Y546D01*
X5230Y546D02*
X5239Y546D01*
X5334Y546D02*
X5343Y546D01*
X5374Y546D02*
X5383Y546D01*
X5408Y546D02*
X5455Y546D01*
X5479Y546D02*
X5488Y546D01*
X5518Y546D02*
X5527Y546D01*
X5550Y546D02*
X5562Y546D01*
X5590Y546D02*
X5599Y546D01*
X5642Y546D02*
X5651Y546D01*
X5696Y546D02*
X5712Y546D01*
X5768Y546D02*
X5815Y546D01*
X5838Y546D02*
X5847Y546D01*
X5878Y546D02*
X5887Y546D01*
X5982Y546D02*
X5991Y546D01*
X6022Y546D02*
X6031Y546D01*
X6087Y546D02*
X6098Y546D01*
X6166Y546D02*
X6175Y546D01*
X4544Y545D02*
X4557Y545D01*
X4618Y545D02*
X4663Y545D01*
X4686Y545D02*
X4699Y545D01*
X4726Y545D02*
X4735Y545D01*
X4778Y545D02*
X4787Y545D01*
X4830Y545D02*
X4839Y545D01*
X4870Y545D02*
X4879Y545D01*
X4922Y545D02*
X4931Y545D01*
X4991Y545D02*
X5005Y545D01*
X5014Y545D02*
X5023Y545D01*
X5127Y545D02*
X5138Y545D01*
X5148Y545D02*
X5158Y545D01*
X5190Y545D02*
X5199Y545D01*
X5230Y545D02*
X5239Y545D01*
X5334Y545D02*
X5343Y545D01*
X5374Y545D02*
X5383Y545D01*
X5410Y545D02*
X5455Y545D01*
X5479Y545D02*
X5488Y545D01*
X5518Y545D02*
X5527Y545D01*
X5550Y545D02*
X5563Y545D01*
X5590Y545D02*
X5599Y545D01*
X5642Y545D02*
X5651Y545D01*
X5696Y545D02*
X5709Y545D01*
X5770Y545D02*
X5815Y545D01*
X5838Y545D02*
X5847Y545D01*
X5878Y545D02*
X5887Y545D01*
X5982Y545D02*
X5991Y545D01*
X6022Y545D02*
X6031Y545D01*
X6087Y545D02*
X6097Y545D01*
X6166Y545D02*
X6175Y545D01*
X4543Y544D02*
X4555Y544D01*
X4654Y544D02*
X4663Y544D01*
X4686Y544D02*
X4700Y544D01*
X4726Y544D02*
X4735Y544D01*
X4778Y544D02*
X4787Y544D01*
X4830Y544D02*
X4840Y544D01*
X4870Y544D02*
X4879Y544D01*
X4922Y544D02*
X4931Y544D01*
X4989Y544D02*
X5004Y544D01*
X5014Y544D02*
X5023Y544D01*
X5128Y544D02*
X5138Y544D01*
X5148Y544D02*
X5157Y544D01*
X5190Y544D02*
X5199Y544D01*
X5229Y544D02*
X5239Y544D01*
X5334Y544D02*
X5344Y544D01*
X5374Y544D02*
X5383Y544D01*
X5446Y544D02*
X5455Y544D01*
X5479Y544D02*
X5488Y544D01*
X5518Y544D02*
X5527Y544D01*
X5550Y544D02*
X5564Y544D01*
X5590Y544D02*
X5599Y544D01*
X5642Y544D02*
X5651Y544D01*
X5695Y544D02*
X5707Y544D01*
X5806Y544D02*
X5815Y544D01*
X5838Y544D02*
X5848Y544D01*
X5878Y544D02*
X5887Y544D01*
X5982Y544D02*
X5991Y544D01*
X6022Y544D02*
X6031Y544D01*
X6086Y544D02*
X6097Y544D01*
X6166Y544D02*
X6175Y544D01*
X4543Y543D02*
X4553Y543D01*
X4654Y543D02*
X4663Y543D01*
X4686Y543D02*
X4701Y543D01*
X4725Y543D02*
X4735Y543D01*
X4778Y543D02*
X4787Y543D01*
X4830Y543D02*
X4841Y543D01*
X4870Y543D02*
X4879Y543D01*
X4922Y543D02*
X4931Y543D01*
X4988Y543D02*
X5003Y543D01*
X5014Y543D02*
X5023Y543D01*
X5128Y543D02*
X5138Y543D01*
X5147Y543D02*
X5157Y543D01*
X5190Y543D02*
X5199Y543D01*
X5229Y543D02*
X5239Y543D01*
X5334Y543D02*
X5345Y543D01*
X5374Y543D02*
X5383Y543D01*
X5446Y543D02*
X5455Y543D01*
X5479Y543D02*
X5488Y543D01*
X5518Y543D02*
X5527Y543D01*
X5550Y543D02*
X5565Y543D01*
X5589Y543D02*
X5599Y543D01*
X5642Y543D02*
X5651Y543D01*
X5695Y543D02*
X5705Y543D01*
X5806Y543D02*
X5815Y543D01*
X5838Y543D02*
X5849Y543D01*
X5878Y543D02*
X5887Y543D01*
X5982Y543D02*
X5991Y543D01*
X6022Y543D02*
X6031Y543D01*
X6086Y543D02*
X6096Y543D01*
X6166Y543D02*
X6175Y543D01*
X4543Y542D02*
X4552Y542D01*
X4654Y542D02*
X4663Y542D01*
X4686Y542D02*
X4702Y542D01*
X4724Y542D02*
X4734Y542D01*
X4778Y542D02*
X4787Y542D01*
X4830Y542D02*
X4841Y542D01*
X4870Y542D02*
X4879Y542D01*
X4922Y542D02*
X4931Y542D01*
X4987Y542D02*
X5002Y542D01*
X5014Y542D02*
X5023Y542D01*
X5129Y542D02*
X5139Y542D01*
X5147Y542D02*
X5157Y542D01*
X5190Y542D02*
X5199Y542D01*
X5228Y542D02*
X5239Y542D01*
X5334Y542D02*
X5345Y542D01*
X5374Y542D02*
X5383Y542D01*
X5446Y542D02*
X5455Y542D01*
X5479Y542D02*
X5488Y542D01*
X5518Y542D02*
X5527Y542D01*
X5550Y542D02*
X5566Y542D01*
X5588Y542D02*
X5598Y542D01*
X5642Y542D02*
X5651Y542D01*
X5695Y542D02*
X5704Y542D01*
X5806Y542D02*
X5815Y542D01*
X5838Y542D02*
X5849Y542D01*
X5878Y542D02*
X5887Y542D01*
X5982Y542D02*
X5992Y542D01*
X6022Y542D02*
X6031Y542D01*
X6085Y542D02*
X6096Y542D01*
X6166Y542D02*
X6175Y542D01*
X4543Y541D02*
X4552Y541D01*
X4654Y541D02*
X4663Y541D01*
X4686Y541D02*
X4704Y541D01*
X4723Y541D02*
X4734Y541D01*
X4778Y541D02*
X4787Y541D01*
X4830Y541D02*
X4843Y541D01*
X4870Y541D02*
X4879Y541D01*
X4922Y541D02*
X4931Y541D01*
X4986Y541D02*
X5001Y541D01*
X5014Y541D02*
X5023Y541D01*
X5129Y541D02*
X5139Y541D01*
X5146Y541D02*
X5156Y541D01*
X5190Y541D02*
X5199Y541D01*
X5227Y541D02*
X5239Y541D01*
X5334Y541D02*
X5347Y541D01*
X5374Y541D02*
X5383Y541D01*
X5446Y541D02*
X5455Y541D01*
X5479Y541D02*
X5488Y541D01*
X5518Y541D02*
X5527Y541D01*
X5550Y541D02*
X5568Y541D01*
X5587Y541D02*
X5598Y541D01*
X5642Y541D02*
X5651Y541D01*
X5694Y541D02*
X5704Y541D01*
X5806Y541D02*
X5815Y541D01*
X5838Y541D02*
X5851Y541D01*
X5878Y541D02*
X5887Y541D01*
X5982Y541D02*
X5992Y541D01*
X6022Y541D02*
X6031Y541D01*
X6085Y541D02*
X6095Y541D01*
X6166Y541D02*
X6175Y541D01*
X4542Y540D02*
X4552Y540D01*
X4654Y540D02*
X4663Y540D01*
X4686Y540D02*
X4705Y540D01*
X4722Y540D02*
X4734Y540D01*
X4778Y540D02*
X4787Y540D01*
X4830Y540D02*
X4844Y540D01*
X4870Y540D02*
X4879Y540D01*
X4922Y540D02*
X4931Y540D01*
X4985Y540D02*
X4999Y540D01*
X5014Y540D02*
X5023Y540D01*
X5130Y540D02*
X5140Y540D01*
X5146Y540D02*
X5156Y540D01*
X5190Y540D02*
X5200Y540D01*
X5226Y540D02*
X5239Y540D01*
X5334Y540D02*
X5348Y540D01*
X5374Y540D02*
X5383Y540D01*
X5446Y540D02*
X5455Y540D01*
X5479Y540D02*
X5488Y540D01*
X5518Y540D02*
X5527Y540D01*
X5550Y540D02*
X5569Y540D01*
X5586Y540D02*
X5598Y540D01*
X5642Y540D02*
X5651Y540D01*
X5694Y540D02*
X5704Y540D01*
X5806Y540D02*
X5815Y540D01*
X5838Y540D02*
X5852Y540D01*
X5878Y540D02*
X5887Y540D01*
X5983Y540D02*
X5992Y540D01*
X6022Y540D02*
X6031Y540D01*
X6084Y540D02*
X6095Y540D01*
X6166Y540D02*
X6175Y540D01*
X4542Y539D02*
X4552Y539D01*
X4653Y539D02*
X4663Y539D01*
X4686Y539D02*
X4706Y539D01*
X4721Y539D02*
X4733Y539D01*
X4778Y539D02*
X4787Y539D01*
X4830Y539D02*
X4845Y539D01*
X4869Y539D02*
X4879Y539D01*
X4922Y539D02*
X4931Y539D01*
X4984Y539D02*
X4998Y539D01*
X5014Y539D02*
X5023Y539D01*
X5130Y539D02*
X5140Y539D01*
X5145Y539D02*
X5155Y539D01*
X5190Y539D02*
X5200Y539D01*
X5224Y539D02*
X5239Y539D01*
X5334Y539D02*
X5349Y539D01*
X5373Y539D02*
X5383Y539D01*
X5445Y539D02*
X5455Y539D01*
X5479Y539D02*
X5488Y539D01*
X5518Y539D02*
X5527Y539D01*
X5550Y539D02*
X5570Y539D01*
X5585Y539D02*
X5597Y539D01*
X5642Y539D02*
X5651Y539D01*
X5694Y539D02*
X5704Y539D01*
X5805Y539D02*
X5815Y539D01*
X5838Y539D02*
X5853Y539D01*
X5877Y539D02*
X5887Y539D01*
X5983Y539D02*
X5993Y539D01*
X6022Y539D02*
X6031Y539D01*
X6084Y539D02*
X6094Y539D01*
X6166Y539D02*
X6175Y539D01*
X4542Y538D02*
X4552Y538D01*
X4652Y538D02*
X4663Y538D01*
X4686Y538D02*
X4708Y538D01*
X4718Y538D02*
X4733Y538D01*
X4778Y538D02*
X4787Y538D01*
X4830Y538D02*
X4846Y538D01*
X4868Y538D02*
X4879Y538D01*
X4922Y538D02*
X4931Y538D01*
X4982Y538D02*
X4997Y538D01*
X5014Y538D02*
X5023Y538D01*
X5130Y538D02*
X5141Y538D01*
X5145Y538D02*
X5155Y538D01*
X5191Y538D02*
X5201Y538D01*
X5223Y538D02*
X5239Y538D01*
X5334Y538D02*
X5350Y538D01*
X5372Y538D02*
X5383Y538D01*
X5444Y538D02*
X5455Y538D01*
X5479Y538D02*
X5488Y538D01*
X5518Y538D02*
X5527Y538D01*
X5550Y538D02*
X5572Y538D01*
X5582Y538D02*
X5597Y538D01*
X5642Y538D02*
X5651Y538D01*
X5694Y538D02*
X5704Y538D01*
X5804Y538D02*
X5815Y538D01*
X5838Y538D02*
X5854Y538D01*
X5876Y538D02*
X5887Y538D01*
X5983Y538D02*
X5993Y538D01*
X6022Y538D02*
X6031Y538D01*
X6083Y538D02*
X6094Y538D01*
X6166Y538D02*
X6175Y538D01*
X4543Y537D02*
X4552Y537D01*
X4584Y537D02*
X4589Y537D01*
X4651Y537D02*
X4662Y537D01*
X4686Y537D02*
X4732Y537D01*
X4778Y537D02*
X4787Y537D01*
X4830Y537D02*
X4847Y537D01*
X4867Y537D02*
X4878Y537D01*
X4922Y537D02*
X4931Y537D01*
X4981Y537D02*
X4996Y537D01*
X5014Y537D02*
X5023Y537D01*
X5131Y537D02*
X5154Y537D01*
X5191Y537D02*
X5202Y537D01*
X5222Y537D02*
X5239Y537D01*
X5334Y537D02*
X5351Y537D01*
X5371Y537D02*
X5382Y537D01*
X5443Y537D02*
X5454Y537D01*
X5479Y537D02*
X5488Y537D01*
X5518Y537D02*
X5527Y537D01*
X5550Y537D02*
X5596Y537D01*
X5642Y537D02*
X5651Y537D01*
X5695Y537D02*
X5704Y537D01*
X5736Y537D02*
X5741Y537D01*
X5803Y537D02*
X5814Y537D01*
X5838Y537D02*
X5855Y537D01*
X5875Y537D02*
X5886Y537D01*
X5983Y537D02*
X5994Y537D01*
X6022Y537D02*
X6031Y537D01*
X6083Y537D02*
X6093Y537D01*
X6166Y537D02*
X6175Y537D01*
X4543Y536D02*
X4553Y536D01*
X4583Y536D02*
X4590Y536D01*
X4650Y536D02*
X4662Y536D01*
X4686Y536D02*
X4731Y536D01*
X4778Y536D02*
X4787Y536D01*
X4830Y536D02*
X4848Y536D01*
X4866Y536D02*
X4878Y536D01*
X4922Y536D02*
X4931Y536D01*
X4980Y536D02*
X4995Y536D01*
X5014Y536D02*
X5023Y536D01*
X5131Y536D02*
X5154Y536D01*
X5191Y536D02*
X5203Y536D01*
X5221Y536D02*
X5239Y536D01*
X5334Y536D02*
X5352Y536D01*
X5370Y536D02*
X5382Y536D01*
X5442Y536D02*
X5454Y536D01*
X5479Y536D02*
X5488Y536D01*
X5518Y536D02*
X5527Y536D01*
X5550Y536D02*
X5595Y536D01*
X5642Y536D02*
X5651Y536D01*
X5695Y536D02*
X5705Y536D01*
X5735Y536D02*
X5742Y536D01*
X5802Y536D02*
X5814Y536D01*
X5838Y536D02*
X5856Y536D01*
X5874Y536D02*
X5886Y536D01*
X5984Y536D02*
X5995Y536D01*
X6022Y536D02*
X6031Y536D01*
X6082Y536D02*
X6092Y536D01*
X6166Y536D02*
X6175Y536D01*
X4543Y535D02*
X4553Y535D01*
X4581Y535D02*
X4591Y535D01*
X4649Y535D02*
X4662Y535D01*
X4686Y535D02*
X4730Y535D01*
X4778Y535D02*
X4787Y535D01*
X4830Y535D02*
X4850Y535D01*
X4865Y535D02*
X4878Y535D01*
X4922Y535D02*
X4931Y535D01*
X4979Y535D02*
X4994Y535D01*
X5014Y535D02*
X5023Y535D01*
X5132Y535D02*
X5154Y535D01*
X5192Y535D02*
X5205Y535D01*
X5220Y535D02*
X5239Y535D01*
X5334Y535D02*
X5354Y535D01*
X5369Y535D02*
X5382Y535D01*
X5441Y535D02*
X5454Y535D01*
X5479Y535D02*
X5488Y535D01*
X5518Y535D02*
X5527Y535D01*
X5550Y535D02*
X5594Y535D01*
X5642Y535D02*
X5651Y535D01*
X5695Y535D02*
X5705Y535D01*
X5733Y535D02*
X5743Y535D01*
X5801Y535D02*
X5814Y535D01*
X5838Y535D02*
X5858Y535D01*
X5873Y535D02*
X5886Y535D01*
X5984Y535D02*
X5997Y535D01*
X6022Y535D02*
X6031Y535D01*
X6081Y535D02*
X6092Y535D01*
X6166Y535D02*
X6175Y535D01*
X4543Y534D02*
X4555Y534D01*
X4579Y534D02*
X4591Y534D01*
X4647Y534D02*
X4661Y534D01*
X4686Y534D02*
X4695Y534D01*
X4697Y534D02*
X4729Y534D01*
X4778Y534D02*
X4787Y534D01*
X4830Y534D02*
X4851Y534D01*
X4863Y534D02*
X4877Y534D01*
X4922Y534D02*
X4931Y534D01*
X4978Y534D02*
X4992Y534D01*
X5014Y534D02*
X5023Y534D01*
X5132Y534D02*
X5153Y534D01*
X5192Y534D02*
X5206Y534D01*
X5218Y534D02*
X5239Y534D01*
X5334Y534D02*
X5355Y534D01*
X5367Y534D02*
X5381Y534D01*
X5439Y534D02*
X5453Y534D01*
X5478Y534D02*
X5488Y534D01*
X5518Y534D02*
X5527Y534D01*
X5550Y534D02*
X5559Y534D01*
X5561Y534D02*
X5593Y534D01*
X5642Y534D02*
X5651Y534D01*
X5695Y534D02*
X5707Y534D01*
X5731Y534D02*
X5743Y534D01*
X5799Y534D02*
X5813Y534D01*
X5838Y534D02*
X5859Y534D01*
X5871Y534D02*
X5885Y534D01*
X5985Y534D02*
X5999Y534D01*
X6022Y534D02*
X6031Y534D01*
X6080Y534D02*
X6091Y534D01*
X6166Y534D02*
X6175Y534D01*
X4544Y533D02*
X4591Y533D01*
X4617Y533D02*
X4660Y533D01*
X4686Y533D02*
X4695Y533D01*
X4698Y533D02*
X4728Y533D01*
X4766Y533D02*
X4799Y533D01*
X4830Y533D02*
X4876Y533D01*
X4910Y533D02*
X4943Y533D01*
X4977Y533D02*
X4991Y533D01*
X5014Y533D02*
X5023Y533D01*
X5133Y533D02*
X5153Y533D01*
X5193Y533D02*
X5239Y533D01*
X5334Y533D02*
X5380Y533D01*
X5409Y533D02*
X5452Y533D01*
X5478Y533D02*
X5487Y533D01*
X5518Y533D02*
X5527Y533D01*
X5550Y533D02*
X5559Y533D01*
X5562Y533D02*
X5592Y533D01*
X5630Y533D02*
X5663Y533D01*
X5696Y533D02*
X5743Y533D01*
X5769Y533D02*
X5812Y533D01*
X5838Y533D02*
X5884Y533D01*
X5985Y533D02*
X6031Y533D01*
X6057Y533D02*
X6091Y533D01*
X6166Y533D02*
X6175Y533D01*
X4544Y532D02*
X4591Y532D01*
X4616Y532D02*
X4660Y532D01*
X4686Y532D02*
X4695Y532D01*
X4699Y532D02*
X4727Y532D01*
X4765Y532D02*
X4801Y532D01*
X4830Y532D02*
X4875Y532D01*
X4909Y532D02*
X4945Y532D01*
X4976Y532D02*
X4990Y532D01*
X5014Y532D02*
X5023Y532D01*
X5133Y532D02*
X5152Y532D01*
X5194Y532D02*
X5239Y532D01*
X5334Y532D02*
X5379Y532D01*
X5408Y532D02*
X5451Y532D01*
X5478Y532D02*
X5487Y532D01*
X5518Y532D02*
X5527Y532D01*
X5550Y532D02*
X5559Y532D01*
X5563Y532D02*
X5591Y532D01*
X5629Y532D02*
X5665Y532D01*
X5696Y532D02*
X5743Y532D01*
X5768Y532D02*
X5811Y532D01*
X5838Y532D02*
X5883Y532D01*
X5986Y532D02*
X6031Y532D01*
X6056Y532D02*
X6090Y532D01*
X6166Y532D02*
X6175Y532D01*
X4545Y531D02*
X4591Y531D01*
X4615Y531D02*
X4659Y531D01*
X4686Y531D02*
X4695Y531D01*
X4701Y531D02*
X4726Y531D01*
X4764Y531D02*
X4801Y531D01*
X4830Y531D02*
X4875Y531D01*
X4908Y531D02*
X4945Y531D01*
X4975Y531D02*
X4989Y531D01*
X5014Y531D02*
X5023Y531D01*
X5134Y531D02*
X5152Y531D01*
X5195Y531D02*
X5239Y531D01*
X5334Y531D02*
X5379Y531D01*
X5407Y531D02*
X5451Y531D01*
X5478Y531D02*
X5487Y531D01*
X5518Y531D02*
X5527Y531D01*
X5550Y531D02*
X5559Y531D01*
X5565Y531D02*
X5590Y531D01*
X5628Y531D02*
X5665Y531D01*
X5697Y531D02*
X5743Y531D01*
X5767Y531D02*
X5811Y531D01*
X5838Y531D02*
X5883Y531D01*
X5987Y531D02*
X6031Y531D01*
X6055Y531D02*
X6090Y531D01*
X6166Y531D02*
X6175Y531D01*
X4545Y530D02*
X4590Y530D01*
X4615Y530D02*
X4658Y530D01*
X4686Y530D02*
X4695Y530D01*
X4702Y530D02*
X4724Y530D01*
X4763Y530D02*
X4802Y530D01*
X4830Y530D02*
X4874Y530D01*
X4907Y530D02*
X4946Y530D01*
X4974Y530D02*
X4988Y530D01*
X5014Y530D02*
X5023Y530D01*
X5134Y530D02*
X5151Y530D01*
X5196Y530D02*
X5239Y530D01*
X5334Y530D02*
X5377Y530D01*
X5406Y530D02*
X5449Y530D01*
X5478Y530D02*
X5487Y530D01*
X5518Y530D02*
X5527Y530D01*
X5550Y530D02*
X5559Y530D01*
X5566Y530D02*
X5588Y530D01*
X5627Y530D02*
X5666Y530D01*
X5697Y530D02*
X5742Y530D01*
X5766Y530D02*
X5809Y530D01*
X5838Y530D02*
X5881Y530D01*
X5988Y530D02*
X6031Y530D01*
X6054Y530D02*
X6089Y530D01*
X6166Y530D02*
X6175Y530D01*
X4546Y529D02*
X4589Y529D01*
X4614Y529D02*
X4656Y529D01*
X4686Y529D02*
X4695Y529D01*
X4704Y529D02*
X4722Y529D01*
X4763Y529D02*
X4802Y529D01*
X4830Y529D02*
X4839Y529D01*
X4842Y529D02*
X4872Y529D01*
X4907Y529D02*
X4946Y529D01*
X4974Y529D02*
X4987Y529D01*
X5014Y529D02*
X5023Y529D01*
X5134Y529D02*
X5150Y529D01*
X5197Y529D02*
X5228Y529D01*
X5230Y529D02*
X5239Y529D01*
X5334Y529D02*
X5343Y529D01*
X5346Y529D02*
X5376Y529D01*
X5406Y529D02*
X5448Y529D01*
X5478Y529D02*
X5487Y529D01*
X5518Y529D02*
X5527Y529D01*
X5550Y529D02*
X5559Y529D01*
X5568Y529D02*
X5586Y529D01*
X5627Y529D02*
X5666Y529D01*
X5698Y529D02*
X5741Y529D01*
X5766Y529D02*
X5808Y529D01*
X5838Y529D02*
X5847Y529D01*
X5850Y529D02*
X5880Y529D01*
X5989Y529D02*
X6031Y529D01*
X6054Y529D02*
X6088Y529D01*
X6166Y529D02*
X6175Y529D01*
X4547Y528D02*
X4588Y528D01*
X4614Y528D02*
X4655Y528D01*
X4686Y528D02*
X4695Y528D01*
X4708Y528D02*
X4718Y528D01*
X4763Y528D02*
X4802Y528D01*
X4830Y528D02*
X4839Y528D01*
X4843Y528D02*
X4871Y528D01*
X4907Y528D02*
X4946Y528D01*
X4974Y528D02*
X4985Y528D01*
X5014Y528D02*
X5023Y528D01*
X5135Y528D02*
X5149Y528D01*
X5198Y528D02*
X5226Y528D01*
X5230Y528D02*
X5239Y528D01*
X5334Y528D02*
X5343Y528D01*
X5347Y528D02*
X5375Y528D01*
X5406Y528D02*
X5447Y528D01*
X5478Y528D02*
X5487Y528D01*
X5518Y528D02*
X5527Y528D01*
X5550Y528D02*
X5559Y528D01*
X5572Y528D02*
X5582Y528D01*
X5627Y528D02*
X5666Y528D01*
X5699Y528D02*
X5740Y528D01*
X5766Y528D02*
X5807Y528D01*
X5838Y528D02*
X5847Y528D01*
X5851Y528D02*
X5879Y528D01*
X5990Y528D02*
X6031Y528D01*
X6054Y528D02*
X6087Y528D01*
X6166Y528D02*
X6175Y528D01*
X4548Y527D02*
X4587Y527D01*
X4615Y527D02*
X4654Y527D01*
X4686Y527D02*
X4695Y527D01*
X4764Y527D02*
X4802Y527D01*
X4831Y527D02*
X4839Y527D01*
X4844Y527D02*
X4870Y527D01*
X4908Y527D02*
X4946Y527D01*
X4975Y527D02*
X4984Y527D01*
X5014Y527D02*
X5023Y527D01*
X5135Y527D02*
X5145Y527D01*
X5200Y527D02*
X5225Y527D01*
X5230Y527D02*
X5239Y527D01*
X5335Y527D02*
X5343Y527D01*
X5348Y527D02*
X5374Y527D01*
X5407Y527D02*
X5446Y527D01*
X5479Y527D02*
X5487Y527D01*
X5518Y527D02*
X5527Y527D01*
X5550Y527D02*
X5559Y527D01*
X5628Y527D02*
X5666Y527D01*
X5700Y527D02*
X5739Y527D01*
X5767Y527D02*
X5806Y527D01*
X5839Y527D02*
X5847Y527D01*
X5852Y527D02*
X5878Y527D01*
X5991Y527D02*
X6031Y527D01*
X6055Y527D02*
X6086Y527D01*
X6166Y527D02*
X6175Y527D01*
X4550Y526D02*
X4585Y526D01*
X4615Y526D02*
X4653Y526D01*
X4686Y526D02*
X4695Y526D01*
X4764Y526D02*
X4801Y526D01*
X4831Y526D02*
X4838Y526D01*
X4846Y526D02*
X4869Y526D01*
X4908Y526D02*
X4945Y526D01*
X4975Y526D02*
X4983Y526D01*
X5015Y526D02*
X5022Y526D01*
X5136Y526D02*
X5146Y526D01*
X5201Y526D02*
X5224Y526D01*
X5231Y526D02*
X5238Y526D01*
X5335Y526D02*
X5342Y526D01*
X5350Y526D02*
X5373Y526D01*
X5407Y526D02*
X5445Y526D01*
X5479Y526D02*
X5486Y526D01*
X5519Y526D02*
X5526Y526D01*
X5550Y526D02*
X5559Y526D01*
X5628Y526D02*
X5665Y526D01*
X5702Y526D02*
X5737Y526D01*
X5767Y526D02*
X5805Y526D01*
X5839Y526D02*
X5846Y526D01*
X5854Y526D02*
X5877Y526D01*
X5993Y526D02*
X6031Y526D01*
X6055Y526D02*
X6085Y526D01*
X6167Y526D02*
X6174Y526D01*
X4551Y525D02*
X4583Y525D01*
X4616Y525D02*
X4651Y525D01*
X4686Y525D02*
X4695Y525D01*
X4765Y525D02*
X4800Y525D01*
X4832Y525D02*
X4838Y525D01*
X4848Y525D02*
X4867Y525D01*
X4909Y525D02*
X4944Y525D01*
X4976Y525D02*
X4982Y525D01*
X5016Y525D02*
X5021Y525D01*
X5136Y525D02*
X5146Y525D01*
X5203Y525D02*
X5222Y525D01*
X5232Y525D02*
X5237Y525D01*
X5336Y525D02*
X5342Y525D01*
X5352Y525D02*
X5371Y525D01*
X5408Y525D02*
X5443Y525D01*
X5480Y525D02*
X5486Y525D01*
X5520Y525D02*
X5525Y525D01*
X5550Y525D02*
X5559Y525D01*
X5629Y525D02*
X5664Y525D01*
X5703Y525D02*
X5735Y525D01*
X5768Y525D02*
X5803Y525D01*
X5840Y525D02*
X5846Y525D01*
X5856Y525D02*
X5875Y525D01*
X5995Y525D02*
X6031Y525D01*
X6056Y525D02*
X6083Y525D01*
X6168Y525D02*
X6173Y525D01*
X4554Y524D02*
X4579Y524D01*
X4618Y524D02*
X4648Y524D01*
X4686Y524D02*
X4695Y524D01*
X4767Y524D02*
X4799Y524D01*
X4834Y524D02*
X4836Y524D01*
X4851Y524D02*
X4864Y524D01*
X4911Y524D02*
X4943Y524D01*
X4978Y524D02*
X4980Y524D01*
X5017Y524D02*
X5020Y524D01*
X5137Y524D02*
X5147Y524D01*
X5206Y524D02*
X5219Y524D01*
X5233Y524D02*
X5236Y524D01*
X5338Y524D02*
X5340Y524D01*
X5355Y524D02*
X5368Y524D01*
X5410Y524D02*
X5440Y524D01*
X5482Y524D02*
X5484Y524D01*
X5521Y524D02*
X5524Y524D01*
X5550Y524D02*
X5559Y524D01*
X5630Y524D02*
X5663Y524D01*
X5706Y524D02*
X5731Y524D01*
X5769Y524D02*
X5800Y524D01*
X5841Y524D02*
X5844Y524D01*
X5859Y524D02*
X5872Y524D01*
X5999Y524D02*
X6031Y524D01*
X6057Y524D02*
X6080Y524D01*
X6169Y524D02*
X6172Y524D01*
X4686Y523D02*
X4695Y523D01*
X5137Y523D02*
X5147Y523D01*
X5550Y523D02*
X5559Y523D01*
X4686Y522D02*
X4695Y522D01*
X5137Y522D02*
X5148Y522D01*
X5550Y522D02*
X5559Y522D01*
X4686Y521D02*
X4695Y521D01*
X5138Y521D02*
X5148Y521D01*
X5550Y521D02*
X5559Y521D01*
X4686Y520D02*
X4695Y520D01*
X5138Y520D02*
X5148Y520D01*
X5550Y520D02*
X5559Y520D01*
X4686Y519D02*
X4696Y519D01*
X5139Y519D02*
X5149Y519D01*
X5550Y519D02*
X5558Y519D01*
X4686Y518D02*
X4696Y518D01*
X5139Y518D02*
X5149Y518D01*
X5550Y518D02*
X5555Y518D01*
X4687Y517D02*
X4697Y517D01*
X5140Y517D02*
X5150Y517D01*
X5551Y517D02*
X5553Y517D01*
X4687Y516D02*
X4698Y516D01*
X5140Y516D02*
X5150Y516D01*
X5551Y516D02*
X5551Y516D01*
X4687Y515D02*
X4699Y515D01*
X5141Y515D02*
X5151Y515D01*
X4688Y514D02*
X4700Y514D01*
X5141Y514D02*
X5151Y514D01*
X4688Y513D02*
X4702Y513D01*
X5141Y513D02*
X5152Y513D01*
X4689Y512D02*
X4727Y512D01*
X5142Y512D02*
X5164Y512D01*
X5585Y512D02*
X5591Y512D01*
X4690Y511D02*
X4729Y511D01*
X5142Y511D02*
X5166Y511D01*
X5586Y511D02*
X5593Y511D01*
X4691Y510D02*
X4729Y510D01*
X5143Y510D02*
X5166Y510D01*
X5586Y510D02*
X5593Y510D01*
X4692Y509D02*
X4730Y509D01*
X5143Y509D02*
X5167Y509D01*
X5587Y509D02*
X5594Y509D01*
X4693Y508D02*
X4730Y508D01*
X5144Y508D02*
X5167Y508D01*
X5588Y508D02*
X5594Y508D01*
X4694Y507D02*
X4730Y507D01*
X5144Y507D02*
X5167Y507D01*
X5588Y507D02*
X5594Y507D01*
X4695Y506D02*
X4730Y506D01*
X5144Y506D02*
X5167Y506D01*
X5589Y506D02*
X5594Y506D01*
X4697Y505D02*
X4729Y505D01*
X5145Y505D02*
X5166Y505D01*
X5589Y505D02*
X5593Y505D01*
X4698Y504D02*
X4729Y504D01*
X5146Y504D02*
X5166Y504D01*
X5589Y504D02*
X5593Y504D01*
X4701Y503D02*
X4727Y503D01*
X5147Y503D02*
X5164Y503D01*
X5590Y503D02*
X5591Y503D01*
X5203Y474D02*
X5211Y474D01*
X5348Y474D02*
X5356Y474D01*
X5202Y473D02*
X5213Y473D01*
X5346Y473D02*
X5357Y473D01*
X5201Y472D02*
X5213Y472D01*
X5345Y472D02*
X5358Y472D01*
X5200Y471D02*
X5214Y471D01*
X5345Y471D02*
X5358Y471D01*
X3518Y470D02*
X3529Y470D01*
X3555Y470D02*
X3566Y470D01*
X4241Y470D02*
X4252Y470D01*
X4278Y470D02*
X4289Y470D01*
X4501Y470D02*
X4502Y470D01*
X4770Y470D02*
X4786Y470D01*
X4832Y470D02*
X4867Y470D01*
X4987Y470D02*
X5003Y470D01*
X5200Y470D02*
X5214Y470D01*
X5345Y470D02*
X5359Y470D01*
X5618Y470D02*
X5619Y470D01*
X6051Y470D02*
X6053Y470D01*
X6124Y470D02*
X6165Y470D01*
X3517Y469D02*
X3530Y469D01*
X3554Y469D02*
X3567Y469D01*
X4240Y469D02*
X4253Y469D01*
X4277Y469D02*
X4289Y469D01*
X4499Y469D02*
X4504Y469D01*
X4768Y469D02*
X4788Y469D01*
X4828Y469D02*
X4868Y469D01*
X4985Y469D02*
X5005Y469D01*
X5200Y469D02*
X5214Y469D01*
X5345Y469D02*
X5359Y469D01*
X5616Y469D02*
X5621Y469D01*
X6049Y469D02*
X6055Y469D01*
X6122Y469D02*
X6167Y469D01*
X3517Y468D02*
X3531Y468D01*
X3553Y468D02*
X3567Y468D01*
X4240Y468D02*
X4254Y468D01*
X4276Y468D02*
X4289Y468D01*
X4498Y468D02*
X4505Y468D01*
X4767Y468D02*
X4789Y468D01*
X4826Y468D02*
X4868Y468D01*
X4984Y468D02*
X5006Y468D01*
X5200Y468D02*
X5214Y468D01*
X5345Y468D02*
X5359Y468D01*
X5615Y468D02*
X5622Y468D01*
X6048Y468D02*
X6056Y468D01*
X6121Y468D02*
X6168Y468D01*
X3517Y467D02*
X3531Y467D01*
X3553Y467D02*
X3567Y467D01*
X4240Y467D02*
X4254Y467D01*
X4275Y467D02*
X4289Y467D01*
X4497Y467D02*
X4506Y467D01*
X4767Y467D02*
X4790Y467D01*
X4825Y467D02*
X4868Y467D01*
X4984Y467D02*
X5007Y467D01*
X5200Y467D02*
X5214Y467D01*
X5345Y467D02*
X5359Y467D01*
X5614Y467D02*
X5622Y467D01*
X6048Y467D02*
X6056Y467D01*
X6120Y467D02*
X6168Y467D01*
X3517Y466D02*
X3532Y466D01*
X3552Y466D02*
X3567Y466D01*
X4240Y466D02*
X4255Y466D01*
X4275Y466D02*
X4289Y466D01*
X4497Y466D02*
X4506Y466D01*
X4766Y466D02*
X4790Y466D01*
X4823Y466D02*
X4868Y466D01*
X4983Y466D02*
X5007Y466D01*
X5200Y466D02*
X5214Y466D01*
X5345Y466D02*
X5359Y466D01*
X5614Y466D02*
X5623Y466D01*
X6048Y466D02*
X6056Y466D01*
X6120Y466D02*
X6169Y466D01*
X3517Y465D02*
X3533Y465D01*
X3551Y465D02*
X3567Y465D01*
X4240Y465D02*
X4256Y465D01*
X4274Y465D02*
X4289Y465D01*
X4497Y465D02*
X4506Y465D01*
X4766Y465D02*
X4790Y465D01*
X4822Y465D02*
X4868Y465D01*
X4983Y465D02*
X5007Y465D01*
X5200Y465D02*
X5214Y465D01*
X5345Y465D02*
X5359Y465D01*
X5614Y465D02*
X5623Y465D01*
X6047Y465D02*
X6057Y465D01*
X6120Y465D02*
X6169Y465D01*
X3517Y464D02*
X3534Y464D01*
X3550Y464D02*
X3567Y464D01*
X4240Y464D02*
X4256Y464D01*
X4273Y464D02*
X4289Y464D01*
X4497Y464D02*
X4506Y464D01*
X4766Y464D02*
X4790Y464D01*
X4822Y464D02*
X4868Y464D01*
X4983Y464D02*
X5007Y464D01*
X5200Y464D02*
X5214Y464D01*
X5345Y464D02*
X5358Y464D01*
X5614Y464D02*
X5623Y464D01*
X6047Y464D02*
X6057Y464D01*
X6120Y464D02*
X6168Y464D01*
X3517Y463D02*
X3534Y463D01*
X3550Y463D02*
X3567Y463D01*
X4240Y463D02*
X4257Y463D01*
X4273Y463D02*
X4289Y463D01*
X4497Y463D02*
X4506Y463D01*
X4766Y463D02*
X4790Y463D01*
X4821Y463D02*
X4868Y463D01*
X4983Y463D02*
X5007Y463D01*
X5201Y463D02*
X5214Y463D01*
X5345Y463D02*
X5358Y463D01*
X5614Y463D02*
X5623Y463D01*
X6047Y463D02*
X6057Y463D01*
X6120Y463D02*
X6168Y463D01*
X3517Y462D02*
X3535Y462D01*
X3549Y462D02*
X3567Y462D01*
X4240Y462D02*
X4258Y462D01*
X4272Y462D02*
X4289Y462D01*
X4497Y462D02*
X4506Y462D01*
X4766Y462D02*
X4789Y462D01*
X4820Y462D02*
X4868Y462D01*
X4983Y462D02*
X5006Y462D01*
X5201Y462D02*
X5213Y462D01*
X5346Y462D02*
X5357Y462D01*
X5614Y462D02*
X5623Y462D01*
X6047Y462D02*
X6057Y462D01*
X6121Y462D02*
X6167Y462D01*
X3517Y461D02*
X3536Y461D01*
X3548Y461D02*
X3567Y461D01*
X4240Y461D02*
X4258Y461D01*
X4271Y461D02*
X4289Y461D01*
X4497Y461D02*
X4506Y461D01*
X4766Y461D02*
X4788Y461D01*
X4820Y461D02*
X4868Y461D01*
X4983Y461D02*
X5005Y461D01*
X5202Y461D02*
X5212Y461D01*
X5347Y461D02*
X5356Y461D01*
X5614Y461D02*
X5623Y461D01*
X6047Y461D02*
X6057Y461D01*
X6122Y461D02*
X6166Y461D01*
X3517Y460D02*
X3536Y460D01*
X3548Y460D02*
X3567Y460D01*
X4240Y460D02*
X4259Y460D01*
X4270Y460D02*
X4289Y460D01*
X4497Y460D02*
X4506Y460D01*
X4766Y460D02*
X4776Y460D01*
X4819Y460D02*
X4833Y460D01*
X4858Y460D02*
X4868Y460D01*
X4983Y460D02*
X4993Y460D01*
X5614Y460D02*
X5623Y460D01*
X6047Y460D02*
X6057Y460D01*
X6139Y460D02*
X6149Y460D01*
X3517Y459D02*
X3537Y459D01*
X3547Y459D02*
X3567Y459D01*
X4240Y459D02*
X4260Y459D01*
X4270Y459D02*
X4289Y459D01*
X4497Y459D02*
X4506Y459D01*
X4766Y459D02*
X4775Y459D01*
X4819Y459D02*
X4830Y459D01*
X4858Y459D02*
X4868Y459D01*
X4983Y459D02*
X4992Y459D01*
X5614Y459D02*
X5623Y459D01*
X6047Y459D02*
X6057Y459D01*
X6140Y459D02*
X6149Y459D01*
X3517Y458D02*
X3538Y458D01*
X3546Y458D02*
X3567Y458D01*
X4240Y458D02*
X4261Y458D01*
X4269Y458D02*
X4289Y458D01*
X4497Y458D02*
X4506Y458D01*
X4766Y458D02*
X4775Y458D01*
X4819Y458D02*
X4829Y458D01*
X4858Y458D02*
X4868Y458D01*
X4983Y458D02*
X4992Y458D01*
X5614Y458D02*
X5623Y458D01*
X6047Y458D02*
X6057Y458D01*
X6140Y458D02*
X6149Y458D01*
X3517Y457D02*
X3538Y457D01*
X3546Y457D02*
X3567Y457D01*
X4240Y457D02*
X4261Y457D01*
X4268Y457D02*
X4289Y457D01*
X4497Y457D02*
X4506Y457D01*
X4766Y457D02*
X4775Y457D01*
X4819Y457D02*
X4828Y457D01*
X4858Y457D02*
X4868Y457D01*
X4983Y457D02*
X4992Y457D01*
X5614Y457D02*
X5623Y457D01*
X6047Y457D02*
X6057Y457D01*
X6140Y457D02*
X6149Y457D01*
X3517Y456D02*
X3539Y456D01*
X3545Y456D02*
X3567Y456D01*
X4240Y456D02*
X4262Y456D01*
X4268Y456D02*
X4289Y456D01*
X4497Y456D02*
X4506Y456D01*
X4766Y456D02*
X4775Y456D01*
X4819Y456D02*
X4828Y456D01*
X4858Y456D02*
X4868Y456D01*
X4983Y456D02*
X4992Y456D01*
X5614Y456D02*
X5623Y456D01*
X6047Y456D02*
X6057Y456D01*
X6140Y456D02*
X6149Y456D01*
X3517Y455D02*
X3527Y455D01*
X3529Y455D02*
X3540Y455D01*
X3544Y455D02*
X3567Y455D01*
X4240Y455D02*
X4249Y455D01*
X4251Y455D02*
X4263Y455D01*
X4267Y455D02*
X4278Y455D01*
X4280Y455D02*
X4289Y455D01*
X4497Y455D02*
X4506Y455D01*
X4766Y455D02*
X4775Y455D01*
X4819Y455D02*
X4828Y455D01*
X4858Y455D02*
X4868Y455D01*
X4983Y455D02*
X4992Y455D01*
X5614Y455D02*
X5623Y455D01*
X6047Y455D02*
X6057Y455D01*
X6140Y455D02*
X6149Y455D01*
X3517Y454D02*
X3527Y454D01*
X3529Y454D02*
X3541Y454D01*
X3543Y454D02*
X3555Y454D01*
X3557Y454D02*
X3567Y454D01*
X4240Y454D02*
X4249Y454D01*
X4252Y454D02*
X4263Y454D01*
X4266Y454D02*
X4278Y454D01*
X4280Y454D02*
X4289Y454D01*
X4497Y454D02*
X4506Y454D01*
X4766Y454D02*
X4775Y454D01*
X4819Y454D02*
X4828Y454D01*
X4858Y454D02*
X4868Y454D01*
X4983Y454D02*
X4992Y454D01*
X5614Y454D02*
X5623Y454D01*
X6047Y454D02*
X6057Y454D01*
X6140Y454D02*
X6149Y454D01*
X3517Y453D02*
X3527Y453D01*
X3530Y453D02*
X3541Y453D01*
X3543Y453D02*
X3554Y453D01*
X3557Y453D02*
X3567Y453D01*
X4240Y453D02*
X4249Y453D01*
X4253Y453D02*
X4277Y453D01*
X4280Y453D02*
X4289Y453D01*
X4497Y453D02*
X4506Y453D01*
X4766Y453D02*
X4775Y453D01*
X4819Y453D02*
X4828Y453D01*
X4858Y453D02*
X4868Y453D01*
X4983Y453D02*
X4992Y453D01*
X5614Y453D02*
X5623Y453D01*
X6047Y453D02*
X6057Y453D01*
X6140Y453D02*
X6149Y453D01*
X3517Y452D02*
X3527Y452D01*
X3531Y452D02*
X3554Y452D01*
X3557Y452D02*
X3567Y452D01*
X4240Y452D02*
X4249Y452D01*
X4253Y452D02*
X4276Y452D01*
X4280Y452D02*
X4289Y452D01*
X4497Y452D02*
X4506Y452D01*
X4766Y452D02*
X4775Y452D01*
X4819Y452D02*
X4828Y452D01*
X4858Y452D02*
X4868Y452D01*
X4983Y452D02*
X4992Y452D01*
X5614Y452D02*
X5623Y452D01*
X6047Y452D02*
X6057Y452D01*
X6140Y452D02*
X6149Y452D01*
X3517Y451D02*
X3527Y451D01*
X3531Y451D02*
X3553Y451D01*
X3557Y451D02*
X3567Y451D01*
X4240Y451D02*
X4249Y451D01*
X4254Y451D02*
X4276Y451D01*
X4280Y451D02*
X4289Y451D01*
X4497Y451D02*
X4506Y451D01*
X4766Y451D02*
X4775Y451D01*
X4819Y451D02*
X4828Y451D01*
X4858Y451D02*
X4868Y451D01*
X4983Y451D02*
X4992Y451D01*
X5614Y451D02*
X5623Y451D01*
X6047Y451D02*
X6057Y451D01*
X6140Y451D02*
X6149Y451D01*
X3517Y450D02*
X3527Y450D01*
X3532Y450D02*
X3552Y450D01*
X3557Y450D02*
X3567Y450D01*
X4240Y450D02*
X4249Y450D01*
X4255Y450D02*
X4275Y450D01*
X4280Y450D02*
X4289Y450D01*
X4497Y450D02*
X4506Y450D01*
X4766Y450D02*
X4775Y450D01*
X4819Y450D02*
X4828Y450D01*
X4858Y450D02*
X4868Y450D01*
X4983Y450D02*
X4992Y450D01*
X5614Y450D02*
X5623Y450D01*
X6047Y450D02*
X6057Y450D01*
X6140Y450D02*
X6149Y450D01*
X3517Y449D02*
X3527Y449D01*
X3533Y449D02*
X3551Y449D01*
X3557Y449D02*
X3567Y449D01*
X4240Y449D02*
X4249Y449D01*
X4256Y449D02*
X4274Y449D01*
X4280Y449D02*
X4289Y449D01*
X4497Y449D02*
X4506Y449D01*
X4766Y449D02*
X4775Y449D01*
X4819Y449D02*
X4828Y449D01*
X4858Y449D02*
X4868Y449D01*
X4983Y449D02*
X4992Y449D01*
X5614Y449D02*
X5623Y449D01*
X6047Y449D02*
X6057Y449D01*
X6140Y449D02*
X6149Y449D01*
X3517Y448D02*
X3527Y448D01*
X3533Y448D02*
X3551Y448D01*
X3557Y448D02*
X3567Y448D01*
X3673Y448D02*
X3688Y448D01*
X3704Y448D02*
X3709Y448D01*
X3746Y448D02*
X3771Y448D01*
X3809Y448D02*
X3851Y448D01*
X3881Y448D02*
X3923Y448D01*
X3962Y448D02*
X3988Y448D01*
X4026Y448D02*
X4054Y448D01*
X4106Y448D02*
X4123Y448D01*
X4138Y448D02*
X4142Y448D01*
X4179Y448D02*
X4205Y448D01*
X4240Y448D02*
X4249Y448D01*
X4256Y448D02*
X4274Y448D01*
X4280Y448D02*
X4289Y448D01*
X4387Y448D02*
X4392Y448D01*
X4427Y448D02*
X4432Y448D01*
X4471Y448D02*
X4487Y448D01*
X4497Y448D02*
X4506Y448D01*
X4613Y448D02*
X4628Y448D01*
X4644Y448D02*
X4648Y448D01*
X4685Y448D02*
X4711Y448D01*
X4766Y448D02*
X4775Y448D01*
X4819Y448D02*
X4828Y448D01*
X4858Y448D02*
X4868Y448D01*
X4983Y448D02*
X4992Y448D01*
X5047Y448D02*
X5072Y448D01*
X5119Y448D02*
X5134Y448D01*
X5150Y448D02*
X5154Y448D01*
X5202Y448D02*
X5222Y448D01*
X5255Y448D02*
X5259Y448D01*
X5271Y448D02*
X5288Y448D01*
X5347Y448D02*
X5366Y448D01*
X5407Y448D02*
X5424Y448D01*
X5439Y448D02*
X5444Y448D01*
X5483Y448D02*
X5505Y448D01*
X5614Y448D02*
X5623Y448D01*
X5632Y448D02*
X5649Y448D01*
X5697Y448D02*
X5712Y448D01*
X5728Y448D02*
X5733Y448D01*
X5769Y448D02*
X5795Y448D01*
X5914Y448D02*
X5940Y448D01*
X5989Y448D02*
X6011Y448D01*
X6047Y448D02*
X6057Y448D01*
X6066Y448D02*
X6083Y448D01*
X6140Y448D02*
X6149Y448D01*
X3517Y447D02*
X3527Y447D01*
X3534Y447D02*
X3550Y447D01*
X3557Y447D02*
X3567Y447D01*
X3671Y447D02*
X3690Y447D01*
X3703Y447D02*
X3710Y447D01*
X3743Y447D02*
X3772Y447D01*
X3808Y447D02*
X3852Y447D01*
X3880Y447D02*
X3924Y447D01*
X3960Y447D02*
X3989Y447D01*
X4025Y447D02*
X4056Y447D01*
X4104Y447D02*
X4124Y447D01*
X4137Y447D02*
X4144Y447D01*
X4177Y447D02*
X4206Y447D01*
X4240Y447D02*
X4249Y447D01*
X4257Y447D02*
X4273Y447D01*
X4280Y447D02*
X4289Y447D01*
X4386Y447D02*
X4393Y447D01*
X4426Y447D02*
X4433Y447D01*
X4469Y447D02*
X4490Y447D01*
X4497Y447D02*
X4506Y447D01*
X4611Y447D02*
X4630Y447D01*
X4643Y447D02*
X4650Y447D01*
X4683Y447D02*
X4712Y447D01*
X4766Y447D02*
X4775Y447D01*
X4819Y447D02*
X4828Y447D01*
X4858Y447D02*
X4868Y447D01*
X4983Y447D02*
X4992Y447D01*
X5044Y447D02*
X5073Y447D01*
X5117Y447D02*
X5136Y447D01*
X5149Y447D02*
X5156Y447D01*
X5201Y447D02*
X5223Y447D01*
X5254Y447D02*
X5260Y447D01*
X5269Y447D02*
X5290Y447D01*
X5346Y447D02*
X5367Y447D01*
X5405Y447D02*
X5425Y447D01*
X5438Y447D02*
X5445Y447D01*
X5481Y447D02*
X5507Y447D01*
X5614Y447D02*
X5623Y447D01*
X5630Y447D02*
X5651Y447D01*
X5695Y447D02*
X5714Y447D01*
X5727Y447D02*
X5734Y447D01*
X5767Y447D02*
X5796Y447D01*
X5912Y447D02*
X5941Y447D01*
X5987Y447D02*
X6013Y447D01*
X6047Y447D02*
X6057Y447D01*
X6064Y447D02*
X6085Y447D01*
X6140Y447D02*
X6149Y447D01*
X3517Y446D02*
X3527Y446D01*
X3535Y446D02*
X3549Y446D01*
X3557Y446D02*
X3567Y446D01*
X3670Y446D02*
X3692Y446D01*
X3702Y446D02*
X3711Y446D01*
X3742Y446D02*
X3773Y446D01*
X3807Y446D02*
X3853Y446D01*
X3879Y446D02*
X3925Y446D01*
X3959Y446D02*
X3990Y446D01*
X4024Y446D02*
X4058Y446D01*
X4102Y446D02*
X4125Y446D01*
X4136Y446D02*
X4144Y446D01*
X4176Y446D02*
X4207Y446D01*
X4240Y446D02*
X4249Y446D01*
X4258Y446D02*
X4272Y446D01*
X4280Y446D02*
X4289Y446D01*
X4385Y446D02*
X4394Y446D01*
X4425Y446D02*
X4433Y446D01*
X4467Y446D02*
X4491Y446D01*
X4497Y446D02*
X4506Y446D01*
X4609Y446D02*
X4632Y446D01*
X4642Y446D02*
X4650Y446D01*
X4682Y446D02*
X4713Y446D01*
X4766Y446D02*
X4775Y446D01*
X4819Y446D02*
X4828Y446D01*
X4858Y446D02*
X4868Y446D01*
X4983Y446D02*
X4992Y446D01*
X5043Y446D02*
X5074Y446D01*
X5115Y446D02*
X5138Y446D01*
X5148Y446D02*
X5156Y446D01*
X5201Y446D02*
X5224Y446D01*
X5253Y446D02*
X5261Y446D01*
X5267Y446D02*
X5291Y446D01*
X5345Y446D02*
X5368Y446D01*
X5403Y446D02*
X5426Y446D01*
X5437Y446D02*
X5445Y446D01*
X5479Y446D02*
X5508Y446D01*
X5614Y446D02*
X5623Y446D01*
X5629Y446D02*
X5653Y446D01*
X5694Y446D02*
X5716Y446D01*
X5726Y446D02*
X5734Y446D01*
X5766Y446D02*
X5797Y446D01*
X5910Y446D02*
X5941Y446D01*
X5985Y446D02*
X6014Y446D01*
X6047Y446D02*
X6057Y446D01*
X6062Y446D02*
X6087Y446D01*
X6140Y446D02*
X6149Y446D01*
X3517Y445D02*
X3527Y445D01*
X3536Y445D02*
X3549Y445D01*
X3557Y445D02*
X3567Y445D01*
X3668Y445D02*
X3694Y445D01*
X3702Y445D02*
X3711Y445D01*
X3741Y445D02*
X3773Y445D01*
X3807Y445D02*
X3853Y445D01*
X3879Y445D02*
X3925Y445D01*
X3957Y445D02*
X3990Y445D01*
X4024Y445D02*
X4059Y445D01*
X4101Y445D02*
X4126Y445D01*
X4136Y445D02*
X4145Y445D01*
X4174Y445D02*
X4207Y445D01*
X4240Y445D02*
X4249Y445D01*
X4258Y445D02*
X4271Y445D01*
X4280Y445D02*
X4289Y445D01*
X4385Y445D02*
X4394Y445D01*
X4425Y445D02*
X4434Y445D01*
X4466Y445D02*
X4493Y445D01*
X4497Y445D02*
X4506Y445D01*
X4608Y445D02*
X4633Y445D01*
X4642Y445D02*
X4651Y445D01*
X4680Y445D02*
X4713Y445D01*
X4766Y445D02*
X4775Y445D01*
X4819Y445D02*
X4828Y445D01*
X4858Y445D02*
X4868Y445D01*
X4983Y445D02*
X4992Y445D01*
X5042Y445D02*
X5074Y445D01*
X5114Y445D02*
X5139Y445D01*
X5148Y445D02*
X5156Y445D01*
X5200Y445D02*
X5224Y445D01*
X5253Y445D02*
X5261Y445D01*
X5266Y445D02*
X5293Y445D01*
X5345Y445D02*
X5368Y445D01*
X5402Y445D02*
X5427Y445D01*
X5437Y445D02*
X5446Y445D01*
X5478Y445D02*
X5510Y445D01*
X5614Y445D02*
X5623Y445D01*
X5627Y445D02*
X5654Y445D01*
X5692Y445D02*
X5718Y445D01*
X5726Y445D02*
X5735Y445D01*
X5765Y445D02*
X5797Y445D01*
X5909Y445D02*
X5942Y445D01*
X5984Y445D02*
X6016Y445D01*
X6047Y445D02*
X6057Y445D01*
X6061Y445D02*
X6088Y445D01*
X6140Y445D02*
X6149Y445D01*
X3517Y444D02*
X3527Y444D01*
X3536Y444D02*
X3548Y444D01*
X3557Y444D02*
X3567Y444D01*
X3667Y444D02*
X3695Y444D01*
X3702Y444D02*
X3711Y444D01*
X3740Y444D02*
X3773Y444D01*
X3807Y444D02*
X3853Y444D01*
X3879Y444D02*
X3925Y444D01*
X3957Y444D02*
X3990Y444D01*
X4024Y444D02*
X4061Y444D01*
X4100Y444D02*
X4127Y444D01*
X4136Y444D02*
X4145Y444D01*
X4173Y444D02*
X4207Y444D01*
X4240Y444D02*
X4249Y444D01*
X4259Y444D02*
X4271Y444D01*
X4280Y444D02*
X4289Y444D01*
X4385Y444D02*
X4394Y444D01*
X4425Y444D02*
X4434Y444D01*
X4465Y444D02*
X4494Y444D01*
X4497Y444D02*
X4506Y444D01*
X4607Y444D02*
X4635Y444D01*
X4642Y444D02*
X4651Y444D01*
X4679Y444D02*
X4713Y444D01*
X4766Y444D02*
X4775Y444D01*
X4819Y444D02*
X4828Y444D01*
X4858Y444D02*
X4868Y444D01*
X4983Y444D02*
X4992Y444D01*
X5041Y444D02*
X5074Y444D01*
X5113Y444D02*
X5141Y444D01*
X5148Y444D02*
X5157Y444D01*
X5200Y444D02*
X5224Y444D01*
X5252Y444D02*
X5261Y444D01*
X5265Y444D02*
X5294Y444D01*
X5345Y444D02*
X5369Y444D01*
X5401Y444D02*
X5429Y444D01*
X5437Y444D02*
X5446Y444D01*
X5477Y444D02*
X5511Y444D01*
X5614Y444D02*
X5623Y444D01*
X5626Y444D02*
X5655Y444D01*
X5691Y444D02*
X5719Y444D01*
X5726Y444D02*
X5735Y444D01*
X5764Y444D02*
X5797Y444D01*
X5908Y444D02*
X5942Y444D01*
X5982Y444D02*
X6017Y444D01*
X6047Y444D02*
X6057Y444D01*
X6060Y444D02*
X6089Y444D01*
X6140Y444D02*
X6149Y444D01*
X3517Y443D02*
X3527Y443D01*
X3537Y443D02*
X3547Y443D01*
X3557Y443D02*
X3567Y443D01*
X3667Y443D02*
X3697Y443D01*
X3702Y443D02*
X3711Y443D01*
X3739Y443D02*
X3773Y443D01*
X3807Y443D02*
X3853Y443D01*
X3879Y443D02*
X3925Y443D01*
X3956Y443D02*
X3990Y443D01*
X4024Y443D02*
X4062Y443D01*
X4099Y443D02*
X4129Y443D01*
X4136Y443D02*
X4145Y443D01*
X4172Y443D02*
X4207Y443D01*
X4240Y443D02*
X4249Y443D01*
X4260Y443D02*
X4270Y443D01*
X4280Y443D02*
X4289Y443D01*
X4385Y443D02*
X4394Y443D01*
X4425Y443D02*
X4434Y443D01*
X4463Y443D02*
X4495Y443D01*
X4497Y443D02*
X4506Y443D01*
X4606Y443D02*
X4636Y443D01*
X4642Y443D02*
X4651Y443D01*
X4678Y443D02*
X4713Y443D01*
X4766Y443D02*
X4775Y443D01*
X4819Y443D02*
X4828Y443D01*
X4858Y443D02*
X4868Y443D01*
X4983Y443D02*
X4992Y443D01*
X5040Y443D02*
X5074Y443D01*
X5112Y443D02*
X5142Y443D01*
X5148Y443D02*
X5157Y443D01*
X5200Y443D02*
X5224Y443D01*
X5252Y443D02*
X5261Y443D01*
X5264Y443D02*
X5295Y443D01*
X5345Y443D02*
X5368Y443D01*
X5400Y443D02*
X5430Y443D01*
X5437Y443D02*
X5446Y443D01*
X5475Y443D02*
X5512Y443D01*
X5614Y443D02*
X5623Y443D01*
X5625Y443D02*
X5656Y443D01*
X5690Y443D02*
X5721Y443D01*
X5726Y443D02*
X5735Y443D01*
X5763Y443D02*
X5797Y443D01*
X5907Y443D02*
X5942Y443D01*
X5981Y443D02*
X6018Y443D01*
X6047Y443D02*
X6057Y443D01*
X6059Y443D02*
X6090Y443D01*
X6140Y443D02*
X6149Y443D01*
X3517Y442D02*
X3527Y442D01*
X3537Y442D02*
X3547Y442D01*
X3557Y442D02*
X3567Y442D01*
X3666Y442D02*
X3698Y442D01*
X3702Y442D02*
X3711Y442D01*
X3738Y442D02*
X3773Y442D01*
X3807Y442D02*
X3853Y442D01*
X3879Y442D02*
X3925Y442D01*
X3955Y442D02*
X3990Y442D01*
X4024Y442D02*
X4063Y442D01*
X4098Y442D02*
X4130Y442D01*
X4136Y442D02*
X4145Y442D01*
X4172Y442D02*
X4207Y442D01*
X4240Y442D02*
X4249Y442D01*
X4260Y442D02*
X4269Y442D01*
X4280Y442D02*
X4289Y442D01*
X4385Y442D02*
X4394Y442D01*
X4425Y442D02*
X4434Y442D01*
X4462Y442D02*
X4506Y442D01*
X4605Y442D02*
X4638Y442D01*
X4642Y442D02*
X4651Y442D01*
X4678Y442D02*
X4713Y442D01*
X4766Y442D02*
X4775Y442D01*
X4819Y442D02*
X4828Y442D01*
X4858Y442D02*
X4868Y442D01*
X4983Y442D02*
X4992Y442D01*
X5039Y442D02*
X5074Y442D01*
X5111Y442D02*
X5144Y442D01*
X5148Y442D02*
X5157Y442D01*
X5200Y442D02*
X5224Y442D01*
X5252Y442D02*
X5296Y442D01*
X5345Y442D02*
X5368Y442D01*
X5399Y442D02*
X5431Y442D01*
X5437Y442D02*
X5446Y442D01*
X5474Y442D02*
X5513Y442D01*
X5614Y442D02*
X5658Y442D01*
X5690Y442D02*
X5722Y442D01*
X5726Y442D02*
X5735Y442D01*
X5762Y442D02*
X5797Y442D01*
X5907Y442D02*
X5942Y442D01*
X5980Y442D02*
X6019Y442D01*
X6047Y442D02*
X6091Y442D01*
X6140Y442D02*
X6149Y442D01*
X3517Y441D02*
X3527Y441D01*
X3537Y441D02*
X3547Y441D01*
X3557Y441D02*
X3567Y441D01*
X3665Y441D02*
X3700Y441D01*
X3702Y441D02*
X3711Y441D01*
X3737Y441D02*
X3772Y441D01*
X3807Y441D02*
X3852Y441D01*
X3879Y441D02*
X3925Y441D01*
X3954Y441D02*
X3989Y441D01*
X4024Y441D02*
X4064Y441D01*
X4098Y441D02*
X4131Y441D01*
X4136Y441D02*
X4145Y441D01*
X4171Y441D02*
X4206Y441D01*
X4240Y441D02*
X4249Y441D01*
X4260Y441D02*
X4269Y441D01*
X4280Y441D02*
X4289Y441D01*
X4385Y441D02*
X4394Y441D01*
X4425Y441D02*
X4434Y441D01*
X4461Y441D02*
X4506Y441D01*
X4605Y441D02*
X4640Y441D01*
X4642Y441D02*
X4651Y441D01*
X4677Y441D02*
X4712Y441D01*
X4766Y441D02*
X4775Y441D01*
X4819Y441D02*
X4828Y441D01*
X4858Y441D02*
X4868Y441D01*
X4983Y441D02*
X4992Y441D01*
X5039Y441D02*
X5074Y441D01*
X5111Y441D02*
X5146Y441D01*
X5148Y441D02*
X5157Y441D01*
X5200Y441D02*
X5223Y441D01*
X5252Y441D02*
X5297Y441D01*
X5345Y441D02*
X5368Y441D01*
X5399Y441D02*
X5432Y441D01*
X5437Y441D02*
X5446Y441D01*
X5473Y441D02*
X5514Y441D01*
X5614Y441D02*
X5659Y441D01*
X5689Y441D02*
X5724Y441D01*
X5726Y441D02*
X5735Y441D01*
X5761Y441D02*
X5796Y441D01*
X5906Y441D02*
X5941Y441D01*
X5979Y441D02*
X6020Y441D01*
X6047Y441D02*
X6092Y441D01*
X6140Y441D02*
X6149Y441D01*
X3517Y440D02*
X3527Y440D01*
X3537Y440D02*
X3547Y440D01*
X3557Y440D02*
X3567Y440D01*
X3665Y440D02*
X3711Y440D01*
X3737Y440D02*
X3772Y440D01*
X3807Y440D02*
X3851Y440D01*
X3879Y440D02*
X3924Y440D01*
X3954Y440D02*
X3988Y440D01*
X4025Y440D02*
X4065Y440D01*
X4097Y440D02*
X4132Y440D01*
X4136Y440D02*
X4145Y440D01*
X4171Y440D02*
X4205Y440D01*
X4240Y440D02*
X4249Y440D01*
X4260Y440D02*
X4269Y440D01*
X4280Y440D02*
X4289Y440D01*
X4385Y440D02*
X4394Y440D01*
X4425Y440D02*
X4434Y440D01*
X4460Y440D02*
X4506Y440D01*
X4604Y440D02*
X4651Y440D01*
X4677Y440D02*
X4711Y440D01*
X4766Y440D02*
X4775Y440D01*
X4819Y440D02*
X4828Y440D01*
X4858Y440D02*
X4868Y440D01*
X4983Y440D02*
X4992Y440D01*
X5038Y440D02*
X5073Y440D01*
X5110Y440D02*
X5157Y440D01*
X5200Y440D02*
X5222Y440D01*
X5252Y440D02*
X5298Y440D01*
X5345Y440D02*
X5367Y440D01*
X5398Y440D02*
X5433Y440D01*
X5437Y440D02*
X5446Y440D01*
X5472Y440D02*
X5515Y440D01*
X5614Y440D02*
X5659Y440D01*
X5689Y440D02*
X5735Y440D01*
X5761Y440D02*
X5795Y440D01*
X5905Y440D02*
X5940Y440D01*
X5978Y440D02*
X6021Y440D01*
X6047Y440D02*
X6093Y440D01*
X6140Y440D02*
X6149Y440D01*
X3517Y439D02*
X3527Y439D01*
X3538Y439D02*
X3547Y439D01*
X3557Y439D02*
X3567Y439D01*
X3664Y439D02*
X3711Y439D01*
X3737Y439D02*
X3770Y439D01*
X3807Y439D02*
X3849Y439D01*
X3879Y439D02*
X3922Y439D01*
X3953Y439D02*
X3986Y439D01*
X4027Y439D02*
X4066Y439D01*
X4097Y439D02*
X4133Y439D01*
X4136Y439D02*
X4145Y439D01*
X4170Y439D02*
X4203Y439D01*
X4240Y439D02*
X4249Y439D01*
X4260Y439D02*
X4269Y439D01*
X4280Y439D02*
X4289Y439D01*
X4385Y439D02*
X4394Y439D01*
X4425Y439D02*
X4434Y439D01*
X4460Y439D02*
X4506Y439D01*
X4604Y439D02*
X4651Y439D01*
X4676Y439D02*
X4709Y439D01*
X4766Y439D02*
X4775Y439D01*
X4819Y439D02*
X4828Y439D01*
X4858Y439D02*
X4868Y439D01*
X4983Y439D02*
X4992Y439D01*
X5038Y439D02*
X5071Y439D01*
X5110Y439D02*
X5157Y439D01*
X5200Y439D02*
X5220Y439D01*
X5252Y439D02*
X5299Y439D01*
X5345Y439D02*
X5365Y439D01*
X5398Y439D02*
X5434Y439D01*
X5437Y439D02*
X5446Y439D01*
X5472Y439D02*
X5516Y439D01*
X5614Y439D02*
X5660Y439D01*
X5688Y439D02*
X5735Y439D01*
X5760Y439D02*
X5793Y439D01*
X5905Y439D02*
X5938Y439D01*
X5978Y439D02*
X6021Y439D01*
X6047Y439D02*
X6094Y439D01*
X6140Y439D02*
X6149Y439D01*
X3517Y438D02*
X3527Y438D01*
X3538Y438D02*
X3546Y438D01*
X3557Y438D02*
X3567Y438D01*
X3664Y438D02*
X3675Y438D01*
X3687Y438D02*
X3711Y438D01*
X3736Y438D02*
X3747Y438D01*
X3807Y438D02*
X3820Y438D01*
X3879Y438D02*
X3892Y438D01*
X3953Y438D02*
X3964Y438D01*
X4052Y438D02*
X4067Y438D01*
X4096Y438D02*
X4107Y438D01*
X4120Y438D02*
X4145Y438D01*
X4170Y438D02*
X4181Y438D01*
X4240Y438D02*
X4249Y438D01*
X4261Y438D02*
X4269Y438D01*
X4280Y438D02*
X4289Y438D01*
X4385Y438D02*
X4394Y438D01*
X4425Y438D02*
X4434Y438D01*
X4459Y438D02*
X4472Y438D01*
X4486Y438D02*
X4506Y438D01*
X4604Y438D02*
X4615Y438D01*
X4626Y438D02*
X4651Y438D01*
X4676Y438D02*
X4687Y438D01*
X4766Y438D02*
X4775Y438D01*
X4819Y438D02*
X4828Y438D01*
X4858Y438D02*
X4868Y438D01*
X4983Y438D02*
X4992Y438D01*
X5037Y438D02*
X5048Y438D01*
X5110Y438D02*
X5121Y438D01*
X5132Y438D02*
X5157Y438D01*
X5200Y438D02*
X5209Y438D01*
X5252Y438D02*
X5273Y438D01*
X5286Y438D02*
X5299Y438D01*
X5345Y438D02*
X5354Y438D01*
X5397Y438D02*
X5408Y438D01*
X5421Y438D02*
X5446Y438D01*
X5471Y438D02*
X5484Y438D01*
X5503Y438D02*
X5516Y438D01*
X5614Y438D02*
X5634Y438D01*
X5648Y438D02*
X5661Y438D01*
X5688Y438D02*
X5699Y438D01*
X5711Y438D02*
X5735Y438D01*
X5760Y438D02*
X5771Y438D01*
X5905Y438D02*
X5915Y438D01*
X5977Y438D02*
X5990Y438D01*
X6009Y438D02*
X6022Y438D01*
X6047Y438D02*
X6068Y438D01*
X6081Y438D02*
X6095Y438D01*
X6140Y438D02*
X6149Y438D01*
X3517Y437D02*
X3527Y437D01*
X3538Y437D02*
X3546Y437D01*
X3557Y437D02*
X3567Y437D01*
X3664Y437D02*
X3674Y437D01*
X3688Y437D02*
X3711Y437D01*
X3736Y437D02*
X3746Y437D01*
X3807Y437D02*
X3821Y437D01*
X3880Y437D02*
X3893Y437D01*
X3953Y437D02*
X3963Y437D01*
X4054Y437D02*
X4068Y437D01*
X4096Y437D02*
X4106Y437D01*
X4121Y437D02*
X4145Y437D01*
X4170Y437D02*
X4180Y437D01*
X4240Y437D02*
X4249Y437D01*
X4261Y437D02*
X4269Y437D01*
X4280Y437D02*
X4289Y437D01*
X4385Y437D02*
X4394Y437D01*
X4425Y437D02*
X4434Y437D01*
X4459Y437D02*
X4471Y437D01*
X4487Y437D02*
X4506Y437D01*
X4603Y437D02*
X4613Y437D01*
X4628Y437D02*
X4651Y437D01*
X4676Y437D02*
X4686Y437D01*
X4766Y437D02*
X4775Y437D01*
X4819Y437D02*
X4828Y437D01*
X4858Y437D02*
X4868Y437D01*
X4983Y437D02*
X4992Y437D01*
X5037Y437D02*
X5047Y437D01*
X5109Y437D02*
X5119Y437D01*
X5134Y437D02*
X5157Y437D01*
X5200Y437D02*
X5209Y437D01*
X5252Y437D02*
X5271Y437D01*
X5288Y437D02*
X5300Y437D01*
X5345Y437D02*
X5354Y437D01*
X5397Y437D02*
X5407Y437D01*
X5422Y437D02*
X5446Y437D01*
X5470Y437D02*
X5483Y437D01*
X5504Y437D02*
X5517Y437D01*
X5614Y437D02*
X5633Y437D01*
X5649Y437D02*
X5661Y437D01*
X5688Y437D02*
X5698Y437D01*
X5712Y437D02*
X5735Y437D01*
X5760Y437D02*
X5770Y437D01*
X5904Y437D02*
X5915Y437D01*
X5976Y437D02*
X5989Y437D01*
X6010Y437D02*
X6023Y437D01*
X6047Y437D02*
X6066Y437D01*
X6083Y437D02*
X6095Y437D01*
X6140Y437D02*
X6149Y437D01*
X3517Y436D02*
X3527Y436D01*
X3539Y436D02*
X3545Y436D01*
X3557Y436D02*
X3567Y436D01*
X3664Y436D02*
X3673Y436D01*
X3690Y436D02*
X3711Y436D01*
X3736Y436D02*
X3745Y436D01*
X3808Y436D02*
X3822Y436D01*
X3880Y436D02*
X3894Y436D01*
X3953Y436D02*
X3962Y436D01*
X4055Y436D02*
X4069Y436D01*
X4096Y436D02*
X4105Y436D01*
X4122Y436D02*
X4145Y436D01*
X4170Y436D02*
X4179Y436D01*
X4240Y436D02*
X4249Y436D01*
X4262Y436D02*
X4268Y436D01*
X4280Y436D02*
X4289Y436D01*
X4385Y436D02*
X4394Y436D01*
X4425Y436D02*
X4434Y436D01*
X4458Y436D02*
X4470Y436D01*
X4489Y436D02*
X4506Y436D01*
X4603Y436D02*
X4613Y436D01*
X4630Y436D02*
X4651Y436D01*
X4676Y436D02*
X4685Y436D01*
X4766Y436D02*
X4775Y436D01*
X4819Y436D02*
X4828Y436D01*
X4858Y436D02*
X4868Y436D01*
X4983Y436D02*
X4992Y436D01*
X5037Y436D02*
X5047Y436D01*
X5109Y436D02*
X5119Y436D01*
X5136Y436D02*
X5157Y436D01*
X5200Y436D02*
X5209Y436D01*
X5252Y436D02*
X5270Y436D01*
X5289Y436D02*
X5300Y436D01*
X5345Y436D02*
X5354Y436D01*
X5397Y436D02*
X5407Y436D01*
X5423Y436D02*
X5446Y436D01*
X5470Y436D02*
X5481Y436D01*
X5506Y436D02*
X5517Y436D01*
X5614Y436D02*
X5631Y436D01*
X5650Y436D02*
X5662Y436D01*
X5687Y436D02*
X5697Y436D01*
X5714Y436D02*
X5735Y436D01*
X5760Y436D02*
X5769Y436D01*
X5904Y436D02*
X5914Y436D01*
X5976Y436D02*
X5987Y436D01*
X6012Y436D02*
X6023Y436D01*
X6047Y436D02*
X6065Y436D01*
X6084Y436D02*
X6096Y436D01*
X6140Y436D02*
X6149Y436D01*
X3517Y435D02*
X3527Y435D01*
X3540Y435D02*
X3544Y435D01*
X3557Y435D02*
X3567Y435D01*
X3663Y435D02*
X3673Y435D01*
X3691Y435D02*
X3711Y435D01*
X3736Y435D02*
X3745Y435D01*
X3809Y435D02*
X3823Y435D01*
X3881Y435D02*
X3895Y435D01*
X3953Y435D02*
X3962Y435D01*
X4056Y435D02*
X4070Y435D01*
X4096Y435D02*
X4105Y435D01*
X4123Y435D02*
X4145Y435D01*
X4169Y435D02*
X4179Y435D01*
X4240Y435D02*
X4249Y435D01*
X4263Y435D02*
X4266Y435D01*
X4280Y435D02*
X4289Y435D01*
X4385Y435D02*
X4395Y435D01*
X4424Y435D02*
X4434Y435D01*
X4458Y435D02*
X4469Y435D01*
X4490Y435D02*
X4506Y435D01*
X4603Y435D02*
X4612Y435D01*
X4631Y435D02*
X4651Y435D01*
X4675Y435D02*
X4685Y435D01*
X4766Y435D02*
X4775Y435D01*
X4819Y435D02*
X4828Y435D01*
X4858Y435D02*
X4868Y435D01*
X4983Y435D02*
X4992Y435D01*
X5037Y435D02*
X5046Y435D01*
X5109Y435D02*
X5118Y435D01*
X5137Y435D02*
X5157Y435D01*
X5200Y435D02*
X5209Y435D01*
X5252Y435D02*
X5269Y435D01*
X5290Y435D02*
X5301Y435D01*
X5345Y435D02*
X5354Y435D01*
X5397Y435D02*
X5406Y435D01*
X5424Y435D02*
X5446Y435D01*
X5470Y435D02*
X5480Y435D01*
X5507Y435D02*
X5517Y435D01*
X5614Y435D02*
X5630Y435D01*
X5651Y435D02*
X5662Y435D01*
X5687Y435D02*
X5697Y435D01*
X5715Y435D02*
X5735Y435D01*
X5760Y435D02*
X5769Y435D01*
X5904Y435D02*
X5914Y435D01*
X5976Y435D02*
X5986Y435D01*
X6013Y435D02*
X6023Y435D01*
X6047Y435D02*
X6064Y435D01*
X6085Y435D02*
X6096Y435D01*
X6140Y435D02*
X6149Y435D01*
X3517Y434D02*
X3527Y434D01*
X3557Y434D02*
X3567Y434D01*
X3663Y434D02*
X3673Y434D01*
X3693Y434D02*
X3711Y434D01*
X3736Y434D02*
X3745Y434D01*
X3810Y434D02*
X3824Y434D01*
X3882Y434D02*
X3896Y434D01*
X3952Y434D02*
X3962Y434D01*
X4057Y434D02*
X4070Y434D01*
X4096Y434D02*
X4105Y434D01*
X4125Y434D02*
X4145Y434D01*
X4169Y434D02*
X4179Y434D01*
X4240Y434D02*
X4249Y434D01*
X4280Y434D02*
X4289Y434D01*
X4385Y434D02*
X4395Y434D01*
X4424Y434D02*
X4434Y434D01*
X4458Y434D02*
X4468Y434D01*
X4491Y434D02*
X4506Y434D01*
X4603Y434D02*
X4612Y434D01*
X4633Y434D02*
X4651Y434D01*
X4675Y434D02*
X4685Y434D01*
X4766Y434D02*
X4775Y434D01*
X4819Y434D02*
X4829Y434D01*
X4858Y434D02*
X4868Y434D01*
X4983Y434D02*
X4992Y434D01*
X5037Y434D02*
X5046Y434D01*
X5109Y434D02*
X5118Y434D01*
X5139Y434D02*
X5157Y434D01*
X5200Y434D02*
X5209Y434D01*
X5252Y434D02*
X5268Y434D01*
X5291Y434D02*
X5301Y434D01*
X5345Y434D02*
X5354Y434D01*
X5397Y434D02*
X5406Y434D01*
X5426Y434D02*
X5446Y434D01*
X5469Y434D02*
X5479Y434D01*
X5508Y434D02*
X5518Y434D01*
X5614Y434D02*
X5629Y434D01*
X5652Y434D02*
X5662Y434D01*
X5687Y434D02*
X5696Y434D01*
X5717Y434D02*
X5735Y434D01*
X5760Y434D02*
X5769Y434D01*
X5904Y434D02*
X5913Y434D01*
X5975Y434D02*
X5985Y434D01*
X6014Y434D02*
X6024Y434D01*
X6047Y434D02*
X6063Y434D01*
X6086Y434D02*
X6096Y434D01*
X6140Y434D02*
X6149Y434D01*
X3517Y433D02*
X3527Y433D01*
X3557Y433D02*
X3567Y433D01*
X3663Y433D02*
X3672Y433D01*
X3695Y433D02*
X3711Y433D01*
X3736Y433D02*
X3745Y433D01*
X3811Y433D02*
X3825Y433D01*
X3884Y433D02*
X3897Y433D01*
X3952Y433D02*
X3962Y433D01*
X4058Y433D02*
X4071Y433D01*
X4096Y433D02*
X4105Y433D01*
X4126Y433D02*
X4145Y433D01*
X4169Y433D02*
X4179Y433D01*
X4240Y433D02*
X4249Y433D01*
X4280Y433D02*
X4289Y433D01*
X4386Y433D02*
X4396Y433D01*
X4423Y433D02*
X4433Y433D01*
X4457Y433D02*
X4467Y433D01*
X4492Y433D02*
X4506Y433D01*
X4603Y433D02*
X4612Y433D01*
X4634Y433D02*
X4651Y433D01*
X4675Y433D02*
X4685Y433D01*
X4766Y433D02*
X4775Y433D01*
X4819Y433D02*
X4830Y433D01*
X4858Y433D02*
X4868Y433D01*
X4983Y433D02*
X4992Y433D01*
X5037Y433D02*
X5046Y433D01*
X5109Y433D02*
X5118Y433D01*
X5140Y433D02*
X5157Y433D01*
X5200Y433D02*
X5209Y433D01*
X5252Y433D02*
X5267Y433D01*
X5292Y433D02*
X5301Y433D01*
X5345Y433D02*
X5354Y433D01*
X5397Y433D02*
X5406Y433D01*
X5427Y433D02*
X5446Y433D01*
X5469Y433D02*
X5479Y433D01*
X5508Y433D02*
X5518Y433D01*
X5614Y433D02*
X5628Y433D01*
X5653Y433D02*
X5663Y433D01*
X5687Y433D02*
X5696Y433D01*
X5718Y433D02*
X5735Y433D01*
X5760Y433D02*
X5769Y433D01*
X5904Y433D02*
X5913Y433D01*
X5975Y433D02*
X5985Y433D01*
X6014Y433D02*
X6024Y433D01*
X6047Y433D02*
X6062Y433D01*
X6087Y433D02*
X6096Y433D01*
X6140Y433D02*
X6149Y433D01*
X3517Y432D02*
X3527Y432D01*
X3557Y432D02*
X3567Y432D01*
X3663Y432D02*
X3672Y432D01*
X3696Y432D02*
X3711Y432D01*
X3736Y432D02*
X3745Y432D01*
X3812Y432D02*
X3826Y432D01*
X3885Y432D02*
X3898Y432D01*
X3952Y432D02*
X3962Y432D01*
X4059Y432D02*
X4071Y432D01*
X4096Y432D02*
X4105Y432D01*
X4127Y432D02*
X4145Y432D01*
X4169Y432D02*
X4178Y432D01*
X4240Y432D02*
X4249Y432D01*
X4280Y432D02*
X4289Y432D01*
X4386Y432D02*
X4396Y432D01*
X4423Y432D02*
X4433Y432D01*
X4457Y432D02*
X4467Y432D01*
X4493Y432D02*
X4506Y432D01*
X4603Y432D02*
X4612Y432D01*
X4636Y432D02*
X4651Y432D01*
X4675Y432D02*
X4684Y432D01*
X4766Y432D02*
X4775Y432D01*
X4819Y432D02*
X4832Y432D01*
X4858Y432D02*
X4868Y432D01*
X4983Y432D02*
X4992Y432D01*
X5037Y432D02*
X5046Y432D01*
X5109Y432D02*
X5118Y432D01*
X5142Y432D02*
X5157Y432D01*
X5200Y432D02*
X5209Y432D01*
X5252Y432D02*
X5265Y432D01*
X5292Y432D02*
X5301Y432D01*
X5345Y432D02*
X5354Y432D01*
X5397Y432D02*
X5406Y432D01*
X5428Y432D02*
X5446Y432D01*
X5469Y432D02*
X5478Y432D01*
X5509Y432D02*
X5518Y432D01*
X5614Y432D02*
X5627Y432D01*
X5653Y432D02*
X5663Y432D01*
X5687Y432D02*
X5696Y432D01*
X5720Y432D02*
X5735Y432D01*
X5759Y432D02*
X5769Y432D01*
X5904Y432D02*
X5913Y432D01*
X5975Y432D02*
X5984Y432D01*
X6015Y432D02*
X6024Y432D01*
X6047Y432D02*
X6060Y432D01*
X6087Y432D02*
X6096Y432D01*
X6140Y432D02*
X6149Y432D01*
X3517Y431D02*
X3527Y431D01*
X3557Y431D02*
X3567Y431D01*
X3663Y431D02*
X3672Y431D01*
X3698Y431D02*
X3711Y431D01*
X3736Y431D02*
X3745Y431D01*
X3813Y431D02*
X3827Y431D01*
X3886Y431D02*
X3899Y431D01*
X3952Y431D02*
X3962Y431D01*
X4061Y431D02*
X4072Y431D01*
X4096Y431D02*
X4105Y431D01*
X4128Y431D02*
X4145Y431D01*
X4169Y431D02*
X4178Y431D01*
X4240Y431D02*
X4249Y431D01*
X4280Y431D02*
X4289Y431D01*
X4386Y431D02*
X4397Y431D01*
X4422Y431D02*
X4432Y431D01*
X4457Y431D02*
X4466Y431D01*
X4494Y431D02*
X4506Y431D01*
X4603Y431D02*
X4612Y431D01*
X4637Y431D02*
X4651Y431D01*
X4675Y431D02*
X4684Y431D01*
X4766Y431D02*
X4775Y431D01*
X4820Y431D02*
X4868Y431D01*
X4983Y431D02*
X4992Y431D01*
X5037Y431D02*
X5046Y431D01*
X5109Y431D02*
X5118Y431D01*
X5143Y431D02*
X5157Y431D01*
X5200Y431D02*
X5209Y431D01*
X5252Y431D02*
X5264Y431D01*
X5292Y431D02*
X5301Y431D01*
X5345Y431D02*
X5354Y431D01*
X5397Y431D02*
X5406Y431D01*
X5429Y431D02*
X5446Y431D01*
X5469Y431D02*
X5478Y431D01*
X5509Y431D02*
X5518Y431D01*
X5614Y431D02*
X5626Y431D01*
X5654Y431D02*
X5663Y431D01*
X5687Y431D02*
X5696Y431D01*
X5722Y431D02*
X5735Y431D01*
X5759Y431D02*
X5769Y431D01*
X5904Y431D02*
X5913Y431D01*
X5975Y431D02*
X5984Y431D01*
X6015Y431D02*
X6024Y431D01*
X6047Y431D02*
X6059Y431D01*
X6087Y431D02*
X6096Y431D01*
X6140Y431D02*
X6149Y431D01*
X3517Y430D02*
X3527Y430D01*
X3557Y430D02*
X3567Y430D01*
X3663Y430D02*
X3672Y430D01*
X3699Y430D02*
X3711Y430D01*
X3736Y430D02*
X3745Y430D01*
X3814Y430D02*
X3828Y430D01*
X3887Y430D02*
X3900Y430D01*
X3952Y430D02*
X3962Y430D01*
X4062Y430D02*
X4072Y430D01*
X4096Y430D02*
X4105Y430D01*
X4129Y430D02*
X4145Y430D01*
X4169Y430D02*
X4178Y430D01*
X4240Y430D02*
X4249Y430D01*
X4280Y430D02*
X4289Y430D01*
X4387Y430D02*
X4397Y430D01*
X4422Y430D02*
X4432Y430D01*
X4457Y430D02*
X4466Y430D01*
X4496Y430D02*
X4506Y430D01*
X4603Y430D02*
X4612Y430D01*
X4639Y430D02*
X4651Y430D01*
X4675Y430D02*
X4684Y430D01*
X4766Y430D02*
X4775Y430D01*
X4820Y430D02*
X4868Y430D01*
X4983Y430D02*
X4992Y430D01*
X5037Y430D02*
X5046Y430D01*
X5109Y430D02*
X5118Y430D01*
X5145Y430D02*
X5157Y430D01*
X5200Y430D02*
X5209Y430D01*
X5252Y430D02*
X5263Y430D01*
X5292Y430D02*
X5301Y430D01*
X5345Y430D02*
X5354Y430D01*
X5397Y430D02*
X5406Y430D01*
X5430Y430D02*
X5446Y430D01*
X5469Y430D02*
X5478Y430D01*
X5509Y430D02*
X5518Y430D01*
X5614Y430D02*
X5625Y430D01*
X5654Y430D02*
X5663Y430D01*
X5687Y430D02*
X5696Y430D01*
X5723Y430D02*
X5735Y430D01*
X5759Y430D02*
X5769Y430D01*
X5904Y430D02*
X5913Y430D01*
X5975Y430D02*
X5984Y430D01*
X6015Y430D02*
X6024Y430D01*
X6047Y430D02*
X6058Y430D01*
X6087Y430D02*
X6096Y430D01*
X6140Y430D02*
X6149Y430D01*
X3517Y429D02*
X3527Y429D01*
X3557Y429D02*
X3567Y429D01*
X3663Y429D02*
X3672Y429D01*
X3701Y429D02*
X3711Y429D01*
X3735Y429D02*
X3745Y429D01*
X3815Y429D02*
X3829Y429D01*
X3888Y429D02*
X3901Y429D01*
X3952Y429D02*
X3961Y429D01*
X4063Y429D02*
X4072Y429D01*
X4096Y429D02*
X4104Y429D01*
X4130Y429D02*
X4145Y429D01*
X4169Y429D02*
X4178Y429D01*
X4240Y429D02*
X4249Y429D01*
X4280Y429D02*
X4289Y429D01*
X4387Y429D02*
X4397Y429D01*
X4422Y429D02*
X4432Y429D01*
X4457Y429D02*
X4466Y429D01*
X4496Y429D02*
X4506Y429D01*
X4603Y429D02*
X4612Y429D01*
X4640Y429D02*
X4651Y429D01*
X4675Y429D02*
X4684Y429D01*
X4766Y429D02*
X4775Y429D01*
X4821Y429D02*
X4868Y429D01*
X4983Y429D02*
X4992Y429D01*
X5037Y429D02*
X5046Y429D01*
X5109Y429D02*
X5118Y429D01*
X5146Y429D02*
X5157Y429D01*
X5200Y429D02*
X5209Y429D01*
X5252Y429D02*
X5262Y429D01*
X5292Y429D02*
X5301Y429D01*
X5345Y429D02*
X5354Y429D01*
X5397Y429D02*
X5406Y429D01*
X5431Y429D02*
X5446Y429D01*
X5469Y429D02*
X5478Y429D01*
X5509Y429D02*
X5518Y429D01*
X5614Y429D02*
X5624Y429D01*
X5654Y429D02*
X5663Y429D01*
X5687Y429D02*
X5696Y429D01*
X5725Y429D02*
X5735Y429D01*
X5759Y429D02*
X5769Y429D01*
X5904Y429D02*
X5913Y429D01*
X5975Y429D02*
X5984Y429D01*
X6015Y429D02*
X6024Y429D01*
X6047Y429D02*
X6057Y429D01*
X6087Y429D02*
X6096Y429D01*
X6140Y429D02*
X6149Y429D01*
X3517Y428D02*
X3527Y428D01*
X3557Y428D02*
X3567Y428D01*
X3663Y428D02*
X3672Y428D01*
X3702Y428D02*
X3711Y428D01*
X3735Y428D02*
X3745Y428D01*
X3816Y428D02*
X3830Y428D01*
X3889Y428D02*
X3902Y428D01*
X3952Y428D02*
X3961Y428D01*
X4063Y428D02*
X4072Y428D01*
X4097Y428D02*
X4104Y428D01*
X4131Y428D02*
X4145Y428D01*
X4169Y428D02*
X4178Y428D01*
X4240Y428D02*
X4249Y428D01*
X4280Y428D02*
X4289Y428D01*
X4388Y428D02*
X4398Y428D01*
X4421Y428D02*
X4431Y428D01*
X4457Y428D02*
X4466Y428D01*
X4497Y428D02*
X4506Y428D01*
X4603Y428D02*
X4612Y428D01*
X4642Y428D02*
X4651Y428D01*
X4675Y428D02*
X4684Y428D01*
X4766Y428D02*
X4775Y428D01*
X4822Y428D02*
X4868Y428D01*
X4983Y428D02*
X4992Y428D01*
X5037Y428D02*
X5046Y428D01*
X5109Y428D02*
X5118Y428D01*
X5148Y428D02*
X5157Y428D01*
X5200Y428D02*
X5209Y428D01*
X5252Y428D02*
X5262Y428D01*
X5292Y428D02*
X5301Y428D01*
X5345Y428D02*
X5354Y428D01*
X5398Y428D02*
X5405Y428D01*
X5433Y428D02*
X5446Y428D01*
X5469Y428D02*
X5478Y428D01*
X5509Y428D02*
X5518Y428D01*
X5614Y428D02*
X5623Y428D01*
X5654Y428D02*
X5663Y428D01*
X5687Y428D02*
X5696Y428D01*
X5726Y428D02*
X5735Y428D01*
X5759Y428D02*
X5769Y428D01*
X5904Y428D02*
X5913Y428D01*
X5975Y428D02*
X5984Y428D01*
X6015Y428D02*
X6024Y428D01*
X6047Y428D02*
X6057Y428D01*
X6087Y428D02*
X6096Y428D01*
X6140Y428D02*
X6149Y428D01*
X3517Y427D02*
X3527Y427D01*
X3557Y427D02*
X3567Y427D01*
X3663Y427D02*
X3672Y427D01*
X3702Y427D02*
X3711Y427D01*
X3735Y427D02*
X3773Y427D01*
X3817Y427D02*
X3831Y427D01*
X3890Y427D02*
X3903Y427D01*
X3952Y427D02*
X3989Y427D01*
X4063Y427D02*
X4072Y427D01*
X4098Y427D02*
X4103Y427D01*
X4133Y427D02*
X4145Y427D01*
X4169Y427D02*
X4206Y427D01*
X4240Y427D02*
X4249Y427D01*
X4280Y427D02*
X4289Y427D01*
X4388Y427D02*
X4398Y427D01*
X4421Y427D02*
X4431Y427D01*
X4457Y427D02*
X4466Y427D01*
X4497Y427D02*
X4506Y427D01*
X4603Y427D02*
X4612Y427D01*
X4642Y427D02*
X4651Y427D01*
X4675Y427D02*
X4712Y427D01*
X4766Y427D02*
X4775Y427D01*
X4822Y427D02*
X4868Y427D01*
X4983Y427D02*
X4992Y427D01*
X5036Y427D02*
X5074Y427D01*
X5109Y427D02*
X5118Y427D01*
X5148Y427D02*
X5157Y427D01*
X5200Y427D02*
X5209Y427D01*
X5252Y427D02*
X5261Y427D01*
X5292Y427D02*
X5301Y427D01*
X5345Y427D02*
X5354Y427D01*
X5399Y427D02*
X5404Y427D01*
X5434Y427D02*
X5446Y427D01*
X5469Y427D02*
X5478Y427D01*
X5509Y427D02*
X5518Y427D01*
X5614Y427D02*
X5623Y427D01*
X5654Y427D02*
X5663Y427D01*
X5687Y427D02*
X5696Y427D01*
X5726Y427D02*
X5735Y427D01*
X5759Y427D02*
X5797Y427D01*
X5904Y427D02*
X5941Y427D01*
X5975Y427D02*
X5984Y427D01*
X6015Y427D02*
X6024Y427D01*
X6047Y427D02*
X6057Y427D01*
X6087Y427D02*
X6096Y427D01*
X6140Y427D02*
X6149Y427D01*
X3517Y426D02*
X3527Y426D01*
X3557Y426D02*
X3567Y426D01*
X3663Y426D02*
X3672Y426D01*
X3702Y426D02*
X3711Y426D01*
X3735Y426D02*
X3775Y426D01*
X3819Y426D02*
X3832Y426D01*
X3891Y426D02*
X3904Y426D01*
X3952Y426D02*
X3992Y426D01*
X4063Y426D02*
X4072Y426D01*
X4134Y426D02*
X4145Y426D01*
X4169Y426D02*
X4209Y426D01*
X4240Y426D02*
X4249Y426D01*
X4280Y426D02*
X4289Y426D01*
X4389Y426D02*
X4399Y426D01*
X4420Y426D02*
X4430Y426D01*
X4457Y426D02*
X4466Y426D01*
X4497Y426D02*
X4506Y426D01*
X4603Y426D02*
X4612Y426D01*
X4642Y426D02*
X4651Y426D01*
X4675Y426D02*
X4715Y426D01*
X4766Y426D02*
X4775Y426D01*
X4823Y426D02*
X4868Y426D01*
X4983Y426D02*
X4992Y426D01*
X5036Y426D02*
X5076Y426D01*
X5109Y426D02*
X5118Y426D01*
X5148Y426D02*
X5157Y426D01*
X5200Y426D02*
X5209Y426D01*
X5252Y426D02*
X5261Y426D01*
X5292Y426D02*
X5301Y426D01*
X5345Y426D02*
X5354Y426D01*
X5435Y426D02*
X5446Y426D01*
X5469Y426D02*
X5478Y426D01*
X5509Y426D02*
X5518Y426D01*
X5614Y426D02*
X5623Y426D01*
X5654Y426D02*
X5663Y426D01*
X5687Y426D02*
X5696Y426D01*
X5726Y426D02*
X5735Y426D01*
X5759Y426D02*
X5799Y426D01*
X5904Y426D02*
X5944Y426D01*
X5975Y426D02*
X5984Y426D01*
X6015Y426D02*
X6024Y426D01*
X6047Y426D02*
X6057Y426D01*
X6087Y426D02*
X6096Y426D01*
X6140Y426D02*
X6149Y426D01*
X3517Y425D02*
X3527Y425D01*
X3557Y425D02*
X3567Y425D01*
X3663Y425D02*
X3672Y425D01*
X3702Y425D02*
X3711Y425D01*
X3735Y425D02*
X3777Y425D01*
X3820Y425D02*
X3833Y425D01*
X3892Y425D02*
X3905Y425D01*
X3952Y425D02*
X3994Y425D01*
X4063Y425D02*
X4072Y425D01*
X4135Y425D02*
X4145Y425D01*
X4169Y425D02*
X4210Y425D01*
X4240Y425D02*
X4249Y425D01*
X4280Y425D02*
X4289Y425D01*
X4389Y425D02*
X4399Y425D01*
X4420Y425D02*
X4430Y425D01*
X4457Y425D02*
X4466Y425D01*
X4497Y425D02*
X4506Y425D01*
X4603Y425D02*
X4612Y425D01*
X4642Y425D02*
X4651Y425D01*
X4675Y425D02*
X4716Y425D01*
X4766Y425D02*
X4775Y425D01*
X4825Y425D02*
X4868Y425D01*
X4983Y425D02*
X4992Y425D01*
X5036Y425D02*
X5078Y425D01*
X5109Y425D02*
X5118Y425D01*
X5148Y425D02*
X5157Y425D01*
X5200Y425D02*
X5209Y425D01*
X5252Y425D02*
X5261Y425D01*
X5292Y425D02*
X5301Y425D01*
X5345Y425D02*
X5354Y425D01*
X5436Y425D02*
X5446Y425D01*
X5469Y425D02*
X5478Y425D01*
X5509Y425D02*
X5518Y425D01*
X5614Y425D02*
X5623Y425D01*
X5654Y425D02*
X5663Y425D01*
X5687Y425D02*
X5696Y425D01*
X5726Y425D02*
X5735Y425D01*
X5759Y425D02*
X5801Y425D01*
X5904Y425D02*
X5945Y425D01*
X5975Y425D02*
X5984Y425D01*
X6015Y425D02*
X6024Y425D01*
X6047Y425D02*
X6057Y425D01*
X6087Y425D02*
X6096Y425D01*
X6140Y425D02*
X6149Y425D01*
X3517Y424D02*
X3527Y424D01*
X3557Y424D02*
X3567Y424D01*
X3663Y424D02*
X3672Y424D01*
X3702Y424D02*
X3711Y424D01*
X3735Y424D02*
X3778Y424D01*
X3821Y424D02*
X3834Y424D01*
X3893Y424D02*
X3906Y424D01*
X3952Y424D02*
X3995Y424D01*
X4063Y424D02*
X4072Y424D01*
X4136Y424D02*
X4145Y424D01*
X4169Y424D02*
X4212Y424D01*
X4240Y424D02*
X4249Y424D01*
X4280Y424D02*
X4289Y424D01*
X4389Y424D02*
X4400Y424D01*
X4419Y424D02*
X4429Y424D01*
X4457Y424D02*
X4466Y424D01*
X4497Y424D02*
X4506Y424D01*
X4603Y424D02*
X4612Y424D01*
X4642Y424D02*
X4651Y424D01*
X4675Y424D02*
X4718Y424D01*
X4766Y424D02*
X4775Y424D01*
X4826Y424D02*
X4868Y424D01*
X4983Y424D02*
X4992Y424D01*
X5036Y424D02*
X5079Y424D01*
X5109Y424D02*
X5118Y424D01*
X5148Y424D02*
X5157Y424D01*
X5200Y424D02*
X5209Y424D01*
X5252Y424D02*
X5261Y424D01*
X5292Y424D02*
X5301Y424D01*
X5345Y424D02*
X5354Y424D01*
X5437Y424D02*
X5446Y424D01*
X5469Y424D02*
X5478Y424D01*
X5509Y424D02*
X5518Y424D01*
X5614Y424D02*
X5623Y424D01*
X5654Y424D02*
X5663Y424D01*
X5687Y424D02*
X5696Y424D01*
X5726Y424D02*
X5735Y424D01*
X5759Y424D02*
X5802Y424D01*
X5904Y424D02*
X5946Y424D01*
X5975Y424D02*
X5984Y424D01*
X6015Y424D02*
X6024Y424D01*
X6047Y424D02*
X6057Y424D01*
X6087Y424D02*
X6096Y424D01*
X6140Y424D02*
X6149Y424D01*
X3517Y423D02*
X3527Y423D01*
X3557Y423D02*
X3567Y423D01*
X3663Y423D02*
X3672Y423D01*
X3702Y423D02*
X3711Y423D01*
X3735Y423D02*
X3779Y423D01*
X3822Y423D02*
X3835Y423D01*
X3894Y423D02*
X3908Y423D01*
X3952Y423D02*
X3996Y423D01*
X4063Y423D02*
X4072Y423D01*
X4136Y423D02*
X4145Y423D01*
X4169Y423D02*
X4213Y423D01*
X4240Y423D02*
X4249Y423D01*
X4280Y423D02*
X4289Y423D01*
X4390Y423D02*
X4400Y423D01*
X4419Y423D02*
X4429Y423D01*
X4457Y423D02*
X4466Y423D01*
X4497Y423D02*
X4506Y423D01*
X4603Y423D02*
X4612Y423D01*
X4642Y423D02*
X4651Y423D01*
X4675Y423D02*
X4719Y423D01*
X4766Y423D02*
X4775Y423D01*
X4828Y423D02*
X4868Y423D01*
X4983Y423D02*
X4992Y423D01*
X5036Y423D02*
X5080Y423D01*
X5109Y423D02*
X5118Y423D01*
X5148Y423D02*
X5157Y423D01*
X5200Y423D02*
X5209Y423D01*
X5252Y423D02*
X5261Y423D01*
X5292Y423D02*
X5301Y423D01*
X5345Y423D02*
X5354Y423D01*
X5437Y423D02*
X5446Y423D01*
X5469Y423D02*
X5478Y423D01*
X5509Y423D02*
X5518Y423D01*
X5614Y423D02*
X5623Y423D01*
X5654Y423D02*
X5663Y423D01*
X5687Y423D02*
X5696Y423D01*
X5726Y423D02*
X5735Y423D01*
X5759Y423D02*
X5803Y423D01*
X5904Y423D02*
X5948Y423D01*
X5975Y423D02*
X6024Y423D01*
X6047Y423D02*
X6057Y423D01*
X6087Y423D02*
X6096Y423D01*
X6140Y423D02*
X6149Y423D01*
X3517Y422D02*
X3527Y422D01*
X3557Y422D02*
X3567Y422D01*
X3663Y422D02*
X3672Y422D01*
X3702Y422D02*
X3711Y422D01*
X3735Y422D02*
X3780Y422D01*
X3823Y422D02*
X3836Y422D01*
X3895Y422D02*
X3909Y422D01*
X3952Y422D02*
X3997Y422D01*
X4063Y422D02*
X4072Y422D01*
X4136Y422D02*
X4145Y422D01*
X4169Y422D02*
X4214Y422D01*
X4240Y422D02*
X4249Y422D01*
X4280Y422D02*
X4289Y422D01*
X4390Y422D02*
X4400Y422D01*
X4418Y422D02*
X4429Y422D01*
X4457Y422D02*
X4466Y422D01*
X4497Y422D02*
X4506Y422D01*
X4603Y422D02*
X4612Y422D01*
X4642Y422D02*
X4651Y422D01*
X4675Y422D02*
X4720Y422D01*
X4766Y422D02*
X4775Y422D01*
X4831Y422D02*
X4868Y422D01*
X4983Y422D02*
X4992Y422D01*
X5036Y422D02*
X5081Y422D01*
X5109Y422D02*
X5118Y422D01*
X5148Y422D02*
X5157Y422D01*
X5200Y422D02*
X5209Y422D01*
X5252Y422D02*
X5261Y422D01*
X5292Y422D02*
X5301Y422D01*
X5345Y422D02*
X5354Y422D01*
X5437Y422D02*
X5446Y422D01*
X5469Y422D02*
X5478Y422D01*
X5509Y422D02*
X5518Y422D01*
X5614Y422D02*
X5623Y422D01*
X5654Y422D02*
X5663Y422D01*
X5687Y422D02*
X5696Y422D01*
X5726Y422D02*
X5735Y422D01*
X5759Y422D02*
X5804Y422D01*
X5904Y422D02*
X5948Y422D01*
X5975Y422D02*
X6024Y422D01*
X6047Y422D02*
X6057Y422D01*
X6087Y422D02*
X6096Y422D01*
X6140Y422D02*
X6149Y422D01*
X3517Y421D02*
X3527Y421D01*
X3557Y421D02*
X3567Y421D01*
X3663Y421D02*
X3672Y421D01*
X3702Y421D02*
X3711Y421D01*
X3735Y421D02*
X3781Y421D01*
X3824Y421D02*
X3837Y421D01*
X3896Y421D02*
X3910Y421D01*
X3952Y421D02*
X3998Y421D01*
X4063Y421D02*
X4072Y421D01*
X4136Y421D02*
X4145Y421D01*
X4169Y421D02*
X4214Y421D01*
X4240Y421D02*
X4249Y421D01*
X4280Y421D02*
X4289Y421D01*
X4391Y421D02*
X4401Y421D01*
X4418Y421D02*
X4428Y421D01*
X4457Y421D02*
X4466Y421D01*
X4497Y421D02*
X4506Y421D01*
X4603Y421D02*
X4612Y421D01*
X4642Y421D02*
X4651Y421D01*
X4675Y421D02*
X4720Y421D01*
X4766Y421D02*
X4775Y421D01*
X4858Y421D02*
X4868Y421D01*
X4983Y421D02*
X4992Y421D01*
X5036Y421D02*
X5082Y421D01*
X5109Y421D02*
X5118Y421D01*
X5148Y421D02*
X5157Y421D01*
X5200Y421D02*
X5209Y421D01*
X5252Y421D02*
X5261Y421D01*
X5292Y421D02*
X5301Y421D01*
X5345Y421D02*
X5354Y421D01*
X5437Y421D02*
X5446Y421D01*
X5469Y421D02*
X5478Y421D01*
X5509Y421D02*
X5518Y421D01*
X5614Y421D02*
X5623Y421D01*
X5654Y421D02*
X5663Y421D01*
X5687Y421D02*
X5696Y421D01*
X5726Y421D02*
X5735Y421D01*
X5759Y421D02*
X5805Y421D01*
X5904Y421D02*
X5949Y421D01*
X5975Y421D02*
X6024Y421D01*
X6047Y421D02*
X6057Y421D01*
X6087Y421D02*
X6096Y421D01*
X6140Y421D02*
X6149Y421D01*
X3517Y420D02*
X3527Y420D01*
X3557Y420D02*
X3567Y420D01*
X3663Y420D02*
X3672Y420D01*
X3702Y420D02*
X3711Y420D01*
X3735Y420D02*
X3781Y420D01*
X3825Y420D02*
X3838Y420D01*
X3897Y420D02*
X3911Y420D01*
X3952Y420D02*
X3998Y420D01*
X4063Y420D02*
X4072Y420D01*
X4136Y420D02*
X4145Y420D01*
X4169Y420D02*
X4215Y420D01*
X4240Y420D02*
X4249Y420D01*
X4280Y420D02*
X4289Y420D01*
X4391Y420D02*
X4401Y420D01*
X4418Y420D02*
X4428Y420D01*
X4457Y420D02*
X4466Y420D01*
X4497Y420D02*
X4506Y420D01*
X4603Y420D02*
X4612Y420D01*
X4642Y420D02*
X4651Y420D01*
X4675Y420D02*
X4721Y420D01*
X4766Y420D02*
X4775Y420D01*
X4858Y420D02*
X4868Y420D01*
X4983Y420D02*
X4992Y420D01*
X5036Y420D02*
X5082Y420D01*
X5109Y420D02*
X5118Y420D01*
X5148Y420D02*
X5157Y420D01*
X5200Y420D02*
X5209Y420D01*
X5252Y420D02*
X5261Y420D01*
X5292Y420D02*
X5301Y420D01*
X5345Y420D02*
X5354Y420D01*
X5437Y420D02*
X5446Y420D01*
X5471Y420D02*
X5478Y420D01*
X5509Y420D02*
X5518Y420D01*
X5614Y420D02*
X5623Y420D01*
X5654Y420D02*
X5663Y420D01*
X5687Y420D02*
X5696Y420D01*
X5726Y420D02*
X5735Y420D01*
X5759Y420D02*
X5805Y420D01*
X5904Y420D02*
X5950Y420D01*
X5975Y420D02*
X6024Y420D01*
X6047Y420D02*
X6057Y420D01*
X6087Y420D02*
X6096Y420D01*
X6140Y420D02*
X6149Y420D01*
X3517Y419D02*
X3527Y419D01*
X3557Y419D02*
X3567Y419D01*
X3663Y419D02*
X3672Y419D01*
X3702Y419D02*
X3711Y419D01*
X3735Y419D02*
X3782Y419D01*
X3826Y419D02*
X3839Y419D01*
X3898Y419D02*
X3912Y419D01*
X3952Y419D02*
X3999Y419D01*
X4063Y419D02*
X4072Y419D01*
X4136Y419D02*
X4145Y419D01*
X4169Y419D02*
X4216Y419D01*
X4240Y419D02*
X4249Y419D01*
X4280Y419D02*
X4289Y419D01*
X4392Y419D02*
X4402Y419D01*
X4417Y419D02*
X4427Y419D01*
X4457Y419D02*
X4466Y419D01*
X4497Y419D02*
X4506Y419D01*
X4603Y419D02*
X4612Y419D01*
X4642Y419D02*
X4651Y419D01*
X4675Y419D02*
X4722Y419D01*
X4766Y419D02*
X4775Y419D01*
X4858Y419D02*
X4868Y419D01*
X4983Y419D02*
X4992Y419D01*
X5036Y419D02*
X5083Y419D01*
X5109Y419D02*
X5118Y419D01*
X5148Y419D02*
X5157Y419D01*
X5200Y419D02*
X5209Y419D01*
X5252Y419D02*
X5261Y419D01*
X5292Y419D02*
X5301Y419D01*
X5345Y419D02*
X5354Y419D01*
X5437Y419D02*
X5446Y419D01*
X5474Y419D02*
X5478Y419D01*
X5509Y419D02*
X5518Y419D01*
X5614Y419D02*
X5623Y419D01*
X5654Y419D02*
X5663Y419D01*
X5687Y419D02*
X5696Y419D01*
X5726Y419D02*
X5735Y419D01*
X5759Y419D02*
X5806Y419D01*
X5904Y419D02*
X5950Y419D01*
X5975Y419D02*
X6024Y419D01*
X6047Y419D02*
X6057Y419D01*
X6087Y419D02*
X6096Y419D01*
X6140Y419D02*
X6149Y419D01*
X3517Y418D02*
X3527Y418D01*
X3557Y418D02*
X3567Y418D01*
X3663Y418D02*
X3672Y418D01*
X3702Y418D02*
X3711Y418D01*
X3735Y418D02*
X3782Y418D01*
X3827Y418D02*
X3840Y418D01*
X3899Y418D02*
X3913Y418D01*
X3952Y418D02*
X3999Y418D01*
X4063Y418D02*
X4072Y418D01*
X4136Y418D02*
X4145Y418D01*
X4169Y418D02*
X4216Y418D01*
X4240Y418D02*
X4249Y418D01*
X4280Y418D02*
X4289Y418D01*
X4392Y418D02*
X4402Y418D01*
X4417Y418D02*
X4427Y418D01*
X4457Y418D02*
X4466Y418D01*
X4497Y418D02*
X4506Y418D01*
X4603Y418D02*
X4612Y418D01*
X4642Y418D02*
X4651Y418D01*
X4675Y418D02*
X4722Y418D01*
X4766Y418D02*
X4775Y418D01*
X4858Y418D02*
X4868Y418D01*
X4983Y418D02*
X4992Y418D01*
X5036Y418D02*
X5083Y418D01*
X5109Y418D02*
X5118Y418D01*
X5148Y418D02*
X5157Y418D01*
X5200Y418D02*
X5209Y418D01*
X5252Y418D02*
X5261Y418D01*
X5292Y418D02*
X5301Y418D01*
X5345Y418D02*
X5354Y418D01*
X5437Y418D02*
X5446Y418D01*
X5477Y418D02*
X5478Y418D01*
X5509Y418D02*
X5518Y418D01*
X5614Y418D02*
X5623Y418D01*
X5654Y418D02*
X5663Y418D01*
X5687Y418D02*
X5696Y418D01*
X5726Y418D02*
X5735Y418D01*
X5759Y418D02*
X5806Y418D01*
X5904Y418D02*
X5951Y418D01*
X5975Y418D02*
X6024Y418D01*
X6047Y418D02*
X6057Y418D01*
X6087Y418D02*
X6096Y418D01*
X6140Y418D02*
X6149Y418D01*
X3517Y417D02*
X3527Y417D01*
X3557Y417D02*
X3567Y417D01*
X3663Y417D02*
X3672Y417D01*
X3702Y417D02*
X3711Y417D01*
X3735Y417D02*
X3747Y417D01*
X3771Y417D02*
X3783Y417D01*
X3828Y417D02*
X3841Y417D01*
X3900Y417D02*
X3914Y417D01*
X3952Y417D02*
X3964Y417D01*
X3988Y417D02*
X3999Y417D01*
X4063Y417D02*
X4072Y417D01*
X4136Y417D02*
X4145Y417D01*
X4169Y417D02*
X4181Y417D01*
X4205Y417D02*
X4216Y417D01*
X4240Y417D02*
X4249Y417D01*
X4280Y417D02*
X4289Y417D01*
X4393Y417D02*
X4403Y417D01*
X4416Y417D02*
X4426Y417D01*
X4457Y417D02*
X4466Y417D01*
X4497Y417D02*
X4506Y417D01*
X4602Y417D02*
X4612Y417D01*
X4642Y417D02*
X4651Y417D01*
X4675Y417D02*
X4687Y417D01*
X4711Y417D02*
X4722Y417D01*
X4766Y417D02*
X4775Y417D01*
X4858Y417D02*
X4868Y417D01*
X4983Y417D02*
X4992Y417D01*
X5036Y417D02*
X5048Y417D01*
X5072Y417D02*
X5084Y417D01*
X5108Y417D02*
X5118Y417D01*
X5148Y417D02*
X5157Y417D01*
X5200Y417D02*
X5209Y417D01*
X5252Y417D02*
X5262Y417D01*
X5292Y417D02*
X5301Y417D01*
X5345Y417D02*
X5354Y417D01*
X5437Y417D02*
X5446Y417D01*
X5509Y417D02*
X5518Y417D01*
X5614Y417D02*
X5623Y417D01*
X5654Y417D02*
X5663Y417D01*
X5687Y417D02*
X5696Y417D01*
X5726Y417D02*
X5735Y417D01*
X5759Y417D02*
X5771Y417D01*
X5795Y417D02*
X5807Y417D01*
X5904Y417D02*
X5916Y417D01*
X5940Y417D02*
X5951Y417D01*
X5975Y417D02*
X6024Y417D01*
X6047Y417D02*
X6057Y417D01*
X6087Y417D02*
X6096Y417D01*
X6140Y417D02*
X6149Y417D01*
X3517Y416D02*
X3527Y416D01*
X3557Y416D02*
X3567Y416D01*
X3663Y416D02*
X3672Y416D01*
X3702Y416D02*
X3711Y416D01*
X3735Y416D02*
X3746Y416D01*
X3773Y416D02*
X3783Y416D01*
X3829Y416D02*
X3843Y416D01*
X3901Y416D02*
X3915Y416D01*
X3952Y416D02*
X3963Y416D01*
X3990Y416D02*
X4000Y416D01*
X4063Y416D02*
X4072Y416D01*
X4136Y416D02*
X4145Y416D01*
X4169Y416D02*
X4179Y416D01*
X4206Y416D02*
X4217Y416D01*
X4240Y416D02*
X4249Y416D01*
X4280Y416D02*
X4289Y416D01*
X4393Y416D02*
X4403Y416D01*
X4416Y416D02*
X4426Y416D01*
X4457Y416D02*
X4466Y416D01*
X4497Y416D02*
X4506Y416D01*
X4602Y416D02*
X4612Y416D01*
X4642Y416D02*
X4651Y416D01*
X4675Y416D02*
X4685Y416D01*
X4712Y416D02*
X4723Y416D01*
X4766Y416D02*
X4775Y416D01*
X4858Y416D02*
X4868Y416D01*
X4983Y416D02*
X4992Y416D01*
X5036Y416D02*
X5047Y416D01*
X5074Y416D02*
X5084Y416D01*
X5108Y416D02*
X5118Y416D01*
X5148Y416D02*
X5157Y416D01*
X5200Y416D02*
X5209Y416D01*
X5252Y416D02*
X5262Y416D01*
X5292Y416D02*
X5301Y416D01*
X5345Y416D02*
X5354Y416D01*
X5437Y416D02*
X5446Y416D01*
X5509Y416D02*
X5518Y416D01*
X5614Y416D02*
X5623Y416D01*
X5654Y416D02*
X5663Y416D01*
X5687Y416D02*
X5696Y416D01*
X5726Y416D02*
X5735Y416D01*
X5759Y416D02*
X5770Y416D01*
X5797Y416D02*
X5807Y416D01*
X5903Y416D02*
X5914Y416D01*
X5941Y416D02*
X5951Y416D01*
X5976Y416D02*
X6024Y416D01*
X6047Y416D02*
X6057Y416D01*
X6087Y416D02*
X6096Y416D01*
X6140Y416D02*
X6149Y416D01*
X3517Y415D02*
X3527Y415D01*
X3557Y415D02*
X3567Y415D01*
X3663Y415D02*
X3672Y415D01*
X3702Y415D02*
X3711Y415D01*
X3735Y415D02*
X3745Y415D01*
X3773Y415D02*
X3783Y415D01*
X3830Y415D02*
X3844Y415D01*
X3902Y415D02*
X3916Y415D01*
X3952Y415D02*
X3962Y415D01*
X3990Y415D02*
X4000Y415D01*
X4063Y415D02*
X4072Y415D01*
X4136Y415D02*
X4145Y415D01*
X4169Y415D02*
X4179Y415D01*
X4207Y415D02*
X4217Y415D01*
X4240Y415D02*
X4249Y415D01*
X4282Y415D02*
X4289Y415D01*
X4393Y415D02*
X4404Y415D01*
X4415Y415D02*
X4425Y415D01*
X4457Y415D02*
X4466Y415D01*
X4497Y415D02*
X4506Y415D01*
X4602Y415D02*
X4612Y415D01*
X4642Y415D02*
X4651Y415D01*
X4675Y415D02*
X4685Y415D01*
X4713Y415D02*
X4723Y415D01*
X4766Y415D02*
X4775Y415D01*
X4858Y415D02*
X4868Y415D01*
X4983Y415D02*
X4992Y415D01*
X5036Y415D02*
X5046Y415D01*
X5075Y415D02*
X5084Y415D01*
X5108Y415D02*
X5117Y415D01*
X5148Y415D02*
X5157Y415D01*
X5200Y415D02*
X5209Y415D01*
X5252Y415D02*
X5263Y415D01*
X5292Y415D02*
X5301Y415D01*
X5345Y415D02*
X5354Y415D01*
X5437Y415D02*
X5446Y415D01*
X5509Y415D02*
X5518Y415D01*
X5614Y415D02*
X5623Y415D01*
X5654Y415D02*
X5663Y415D01*
X5687Y415D02*
X5696Y415D01*
X5726Y415D02*
X5735Y415D01*
X5759Y415D02*
X5769Y415D01*
X5797Y415D02*
X5807Y415D01*
X5903Y415D02*
X5913Y415D01*
X5942Y415D02*
X5952Y415D01*
X5976Y415D02*
X6024Y415D01*
X6047Y415D02*
X6057Y415D01*
X6087Y415D02*
X6096Y415D01*
X6140Y415D02*
X6149Y415D01*
X3517Y414D02*
X3527Y414D01*
X3557Y414D02*
X3567Y414D01*
X3663Y414D02*
X3672Y414D01*
X3702Y414D02*
X3711Y414D01*
X3735Y414D02*
X3744Y414D01*
X3774Y414D02*
X3783Y414D01*
X3831Y414D02*
X3845Y414D01*
X3903Y414D02*
X3917Y414D01*
X3952Y414D02*
X3961Y414D01*
X3991Y414D02*
X4000Y414D01*
X4063Y414D02*
X4072Y414D01*
X4136Y414D02*
X4145Y414D01*
X4169Y414D02*
X4178Y414D01*
X4208Y414D02*
X4217Y414D01*
X4240Y414D02*
X4249Y414D01*
X4283Y414D02*
X4289Y414D01*
X4394Y414D02*
X4404Y414D01*
X4415Y414D02*
X4425Y414D01*
X4457Y414D02*
X4466Y414D01*
X4497Y414D02*
X4506Y414D01*
X4602Y414D02*
X4611Y414D01*
X4642Y414D02*
X4651Y414D01*
X4675Y414D02*
X4684Y414D01*
X4714Y414D02*
X4723Y414D01*
X4766Y414D02*
X4775Y414D01*
X4858Y414D02*
X4868Y414D01*
X4983Y414D02*
X4992Y414D01*
X5036Y414D02*
X5045Y414D01*
X5075Y414D02*
X5084Y414D01*
X5108Y414D02*
X5117Y414D01*
X5148Y414D02*
X5157Y414D01*
X5200Y414D02*
X5209Y414D01*
X5252Y414D02*
X5264Y414D01*
X5292Y414D02*
X5301Y414D01*
X5345Y414D02*
X5354Y414D01*
X5437Y414D02*
X5446Y414D01*
X5509Y414D02*
X5518Y414D01*
X5614Y414D02*
X5623Y414D01*
X5654Y414D02*
X5663Y414D01*
X5687Y414D02*
X5696Y414D01*
X5726Y414D02*
X5735Y414D01*
X5759Y414D02*
X5768Y414D01*
X5798Y414D02*
X5807Y414D01*
X5903Y414D02*
X5913Y414D01*
X5942Y414D02*
X5952Y414D01*
X5978Y414D02*
X6024Y414D01*
X6047Y414D02*
X6057Y414D01*
X6087Y414D02*
X6096Y414D01*
X6140Y414D02*
X6149Y414D01*
X3517Y413D02*
X3527Y413D01*
X3557Y413D02*
X3567Y413D01*
X3663Y413D02*
X3672Y413D01*
X3702Y413D02*
X3711Y413D01*
X3735Y413D02*
X3744Y413D01*
X3774Y413D02*
X3783Y413D01*
X3832Y413D02*
X3846Y413D01*
X3904Y413D02*
X3918Y413D01*
X3952Y413D02*
X3961Y413D01*
X3991Y413D02*
X4000Y413D01*
X4063Y413D02*
X4072Y413D01*
X4136Y413D02*
X4145Y413D01*
X4169Y413D02*
X4178Y413D01*
X4208Y413D02*
X4217Y413D01*
X4240Y413D02*
X4248Y413D01*
X4284Y413D02*
X4289Y413D01*
X4394Y413D02*
X4404Y413D01*
X4415Y413D02*
X4425Y413D01*
X4457Y413D02*
X4466Y413D01*
X4497Y413D02*
X4506Y413D01*
X4602Y413D02*
X4611Y413D01*
X4642Y413D02*
X4651Y413D01*
X4675Y413D02*
X4684Y413D01*
X4714Y413D02*
X4723Y413D01*
X4766Y413D02*
X4775Y413D01*
X4858Y413D02*
X4868Y413D01*
X4983Y413D02*
X4992Y413D01*
X5036Y413D02*
X5045Y413D01*
X5075Y413D02*
X5084Y413D01*
X5108Y413D02*
X5117Y413D01*
X5148Y413D02*
X5157Y413D01*
X5200Y413D02*
X5209Y413D01*
X5252Y413D02*
X5265Y413D01*
X5292Y413D02*
X5301Y413D01*
X5345Y413D02*
X5354Y413D01*
X5437Y413D02*
X5446Y413D01*
X5509Y413D02*
X5518Y413D01*
X5614Y413D02*
X5623Y413D01*
X5654Y413D02*
X5663Y413D01*
X5687Y413D02*
X5696Y413D01*
X5726Y413D02*
X5735Y413D01*
X5759Y413D02*
X5768Y413D01*
X5798Y413D02*
X5807Y413D01*
X5903Y413D02*
X5913Y413D01*
X5943Y413D02*
X5952Y413D01*
X6015Y413D02*
X6024Y413D01*
X6047Y413D02*
X6057Y413D01*
X6087Y413D02*
X6096Y413D01*
X6140Y413D02*
X6149Y413D01*
X3517Y412D02*
X3527Y412D01*
X3557Y412D02*
X3567Y412D01*
X3663Y412D02*
X3672Y412D01*
X3702Y412D02*
X3711Y412D01*
X3735Y412D02*
X3744Y412D01*
X3774Y412D02*
X3783Y412D01*
X3833Y412D02*
X3847Y412D01*
X3905Y412D02*
X3919Y412D01*
X3952Y412D02*
X3961Y412D01*
X3991Y412D02*
X4000Y412D01*
X4063Y412D02*
X4072Y412D01*
X4136Y412D02*
X4145Y412D01*
X4169Y412D02*
X4178Y412D01*
X4208Y412D02*
X4217Y412D01*
X4240Y412D02*
X4247Y412D01*
X4285Y412D02*
X4289Y412D01*
X4395Y412D02*
X4405Y412D01*
X4414Y412D02*
X4424Y412D01*
X4457Y412D02*
X4466Y412D01*
X4496Y412D02*
X4506Y412D01*
X4602Y412D02*
X4611Y412D01*
X4642Y412D02*
X4651Y412D01*
X4675Y412D02*
X4684Y412D01*
X4714Y412D02*
X4723Y412D01*
X4766Y412D02*
X4775Y412D01*
X4858Y412D02*
X4868Y412D01*
X4983Y412D02*
X4992Y412D01*
X5036Y412D02*
X5045Y412D01*
X5075Y412D02*
X5084Y412D01*
X5108Y412D02*
X5117Y412D01*
X5148Y412D02*
X5157Y412D01*
X5200Y412D02*
X5209Y412D01*
X5252Y412D02*
X5267Y412D01*
X5292Y412D02*
X5301Y412D01*
X5345Y412D02*
X5354Y412D01*
X5437Y412D02*
X5446Y412D01*
X5509Y412D02*
X5518Y412D01*
X5614Y412D02*
X5624Y412D01*
X5654Y412D02*
X5663Y412D01*
X5687Y412D02*
X5696Y412D01*
X5726Y412D02*
X5735Y412D01*
X5759Y412D02*
X5768Y412D01*
X5798Y412D02*
X5807Y412D01*
X5903Y412D02*
X5913Y412D01*
X5943Y412D02*
X5952Y412D01*
X6015Y412D02*
X6024Y412D01*
X6047Y412D02*
X6057Y412D01*
X6087Y412D02*
X6096Y412D01*
X6140Y412D02*
X6149Y412D01*
X3517Y411D02*
X3527Y411D01*
X3557Y411D02*
X3567Y411D01*
X3663Y411D02*
X3672Y411D01*
X3702Y411D02*
X3711Y411D01*
X3735Y411D02*
X3744Y411D01*
X3774Y411D02*
X3783Y411D01*
X3834Y411D02*
X3848Y411D01*
X3906Y411D02*
X3920Y411D01*
X3952Y411D02*
X3961Y411D01*
X3991Y411D02*
X4000Y411D01*
X4062Y411D02*
X4072Y411D01*
X4136Y411D02*
X4145Y411D01*
X4169Y411D02*
X4178Y411D01*
X4208Y411D02*
X4217Y411D01*
X4240Y411D02*
X4246Y411D01*
X4286Y411D02*
X4289Y411D01*
X4395Y411D02*
X4405Y411D01*
X4414Y411D02*
X4424Y411D01*
X4457Y411D02*
X4466Y411D01*
X4496Y411D02*
X4506Y411D01*
X4602Y411D02*
X4611Y411D01*
X4642Y411D02*
X4651Y411D01*
X4675Y411D02*
X4684Y411D01*
X4714Y411D02*
X4723Y411D01*
X4766Y411D02*
X4775Y411D01*
X4858Y411D02*
X4868Y411D01*
X4983Y411D02*
X4992Y411D01*
X5036Y411D02*
X5045Y411D01*
X5075Y411D02*
X5084Y411D01*
X5108Y411D02*
X5117Y411D01*
X5148Y411D02*
X5157Y411D01*
X5200Y411D02*
X5209Y411D01*
X5252Y411D02*
X5268Y411D01*
X5291Y411D02*
X5301Y411D01*
X5345Y411D02*
X5354Y411D01*
X5437Y411D02*
X5446Y411D01*
X5509Y411D02*
X5518Y411D01*
X5614Y411D02*
X5624Y411D01*
X5654Y411D02*
X5663Y411D01*
X5687Y411D02*
X5696Y411D01*
X5726Y411D02*
X5735Y411D01*
X5759Y411D02*
X5768Y411D01*
X5798Y411D02*
X5807Y411D01*
X5903Y411D02*
X5913Y411D01*
X5943Y411D02*
X5952Y411D01*
X6015Y411D02*
X6024Y411D01*
X6047Y411D02*
X6058Y411D01*
X6087Y411D02*
X6096Y411D01*
X6140Y411D02*
X6149Y411D01*
X3517Y410D02*
X3527Y410D01*
X3557Y410D02*
X3567Y410D01*
X3663Y410D02*
X3672Y410D01*
X3702Y410D02*
X3711Y410D01*
X3735Y410D02*
X3744Y410D01*
X3774Y410D02*
X3783Y410D01*
X3835Y410D02*
X3849Y410D01*
X3907Y410D02*
X3921Y410D01*
X3952Y410D02*
X3961Y410D01*
X3991Y410D02*
X4000Y410D01*
X4061Y410D02*
X4072Y410D01*
X4136Y410D02*
X4145Y410D01*
X4169Y410D02*
X4178Y410D01*
X4208Y410D02*
X4217Y410D01*
X4240Y410D02*
X4245Y410D01*
X4286Y410D02*
X4289Y410D01*
X4396Y410D02*
X4406Y410D01*
X4413Y410D02*
X4423Y410D01*
X4457Y410D02*
X4466Y410D01*
X4495Y410D02*
X4506Y410D01*
X4602Y410D02*
X4611Y410D01*
X4642Y410D02*
X4651Y410D01*
X4674Y410D02*
X4684Y410D01*
X4714Y410D02*
X4723Y410D01*
X4766Y410D02*
X4775Y410D01*
X4858Y410D02*
X4868Y410D01*
X4983Y410D02*
X4992Y410D01*
X5036Y410D02*
X5045Y410D01*
X5075Y410D02*
X5084Y410D01*
X5108Y410D02*
X5117Y410D01*
X5148Y410D02*
X5157Y410D01*
X5200Y410D02*
X5209Y410D01*
X5252Y410D02*
X5269Y410D01*
X5290Y410D02*
X5301Y410D01*
X5345Y410D02*
X5354Y410D01*
X5437Y410D02*
X5445Y410D01*
X5509Y410D02*
X5518Y410D01*
X5614Y410D02*
X5625Y410D01*
X5654Y410D02*
X5663Y410D01*
X5686Y410D02*
X5696Y410D01*
X5726Y410D02*
X5735Y410D01*
X5759Y410D02*
X5768Y410D01*
X5798Y410D02*
X5807Y410D01*
X5903Y410D02*
X5913Y410D01*
X5943Y410D02*
X5952Y410D01*
X6015Y410D02*
X6024Y410D01*
X6047Y410D02*
X6059Y410D01*
X6087Y410D02*
X6096Y410D01*
X6140Y410D02*
X6149Y410D01*
X3517Y409D02*
X3527Y409D01*
X3557Y409D02*
X3567Y409D01*
X3663Y409D02*
X3672Y409D01*
X3702Y409D02*
X3711Y409D01*
X3735Y409D02*
X3744Y409D01*
X3774Y409D02*
X3783Y409D01*
X3836Y409D02*
X3850Y409D01*
X3909Y409D02*
X3922Y409D01*
X3952Y409D02*
X3961Y409D01*
X3991Y409D02*
X4000Y409D01*
X4060Y409D02*
X4071Y409D01*
X4136Y409D02*
X4145Y409D01*
X4168Y409D02*
X4178Y409D01*
X4208Y409D02*
X4217Y409D01*
X4240Y409D02*
X4245Y409D01*
X4287Y409D02*
X4289Y409D01*
X4396Y409D02*
X4406Y409D01*
X4413Y409D02*
X4423Y409D01*
X4457Y409D02*
X4466Y409D01*
X4493Y409D02*
X4506Y409D01*
X4602Y409D02*
X4611Y409D01*
X4642Y409D02*
X4651Y409D01*
X4674Y409D02*
X4684Y409D01*
X4714Y409D02*
X4723Y409D01*
X4766Y409D02*
X4775Y409D01*
X4858Y409D02*
X4868Y409D01*
X4983Y409D02*
X4992Y409D01*
X5036Y409D02*
X5045Y409D01*
X5075Y409D02*
X5084Y409D01*
X5108Y409D02*
X5117Y409D01*
X5148Y409D02*
X5157Y409D01*
X5200Y409D02*
X5209Y409D01*
X5252Y409D02*
X5270Y409D01*
X5289Y409D02*
X5300Y409D01*
X5345Y409D02*
X5354Y409D01*
X5437Y409D02*
X5445Y409D01*
X5509Y409D02*
X5518Y409D01*
X5614Y409D02*
X5627Y409D01*
X5653Y409D02*
X5663Y409D01*
X5686Y409D02*
X5696Y409D01*
X5726Y409D02*
X5735Y409D01*
X5759Y409D02*
X5768Y409D01*
X5798Y409D02*
X5807Y409D01*
X5903Y409D02*
X5913Y409D01*
X5943Y409D02*
X5952Y409D01*
X6015Y409D02*
X6024Y409D01*
X6047Y409D02*
X6060Y409D01*
X6087Y409D02*
X6096Y409D01*
X6140Y409D02*
X6149Y409D01*
X3517Y408D02*
X3527Y408D01*
X3557Y408D02*
X3567Y408D01*
X3663Y408D02*
X3672Y408D01*
X3702Y408D02*
X3711Y408D01*
X3735Y408D02*
X3745Y408D01*
X3774Y408D02*
X3783Y408D01*
X3837Y408D02*
X3851Y408D01*
X3910Y408D02*
X3923Y408D01*
X3952Y408D02*
X3962Y408D01*
X3991Y408D02*
X4000Y408D01*
X4059Y408D02*
X4071Y408D01*
X4136Y408D02*
X4145Y408D01*
X4168Y408D02*
X4178Y408D01*
X4208Y408D02*
X4217Y408D01*
X4240Y408D02*
X4244Y408D01*
X4288Y408D02*
X4289Y408D01*
X4396Y408D02*
X4407Y408D01*
X4412Y408D02*
X4422Y408D01*
X4457Y408D02*
X4467Y408D01*
X4492Y408D02*
X4506Y408D01*
X4602Y408D02*
X4611Y408D01*
X4642Y408D02*
X4651Y408D01*
X4674Y408D02*
X4684Y408D01*
X4714Y408D02*
X4723Y408D01*
X4766Y408D02*
X4775Y408D01*
X4858Y408D02*
X4868Y408D01*
X4983Y408D02*
X4992Y408D01*
X5036Y408D02*
X5046Y408D01*
X5075Y408D02*
X5084Y408D01*
X5108Y408D02*
X5117Y408D01*
X5148Y408D02*
X5157Y408D01*
X5200Y408D02*
X5209Y408D01*
X5252Y408D02*
X5271Y408D01*
X5288Y408D02*
X5300Y408D01*
X5345Y408D02*
X5354Y408D01*
X5437Y408D02*
X5444Y408D01*
X5508Y408D02*
X5518Y408D01*
X5614Y408D02*
X5628Y408D01*
X5653Y408D02*
X5663Y408D01*
X5686Y408D02*
X5696Y408D01*
X5726Y408D02*
X5735Y408D01*
X5759Y408D02*
X5769Y408D01*
X5798Y408D02*
X5807Y408D01*
X5903Y408D02*
X5913Y408D01*
X5943Y408D02*
X5952Y408D01*
X6014Y408D02*
X6024Y408D01*
X6047Y408D02*
X6061Y408D01*
X6087Y408D02*
X6096Y408D01*
X6140Y408D02*
X6149Y408D01*
X3517Y407D02*
X3527Y407D01*
X3557Y407D02*
X3567Y407D01*
X3662Y407D02*
X3672Y407D01*
X3702Y407D02*
X3711Y407D01*
X3735Y407D02*
X3746Y407D01*
X3774Y407D02*
X3783Y407D01*
X3838Y407D02*
X3852Y407D01*
X3911Y407D02*
X3924Y407D01*
X3952Y407D02*
X3963Y407D01*
X3991Y407D02*
X4000Y407D01*
X4057Y407D02*
X4071Y407D01*
X4136Y407D02*
X4145Y407D01*
X4168Y407D02*
X4180Y407D01*
X4208Y407D02*
X4217Y407D01*
X4240Y407D02*
X4244Y407D01*
X4288Y407D02*
X4289Y407D01*
X4397Y407D02*
X4407Y407D01*
X4412Y407D02*
X4422Y407D01*
X4457Y407D02*
X4468Y407D01*
X4491Y407D02*
X4506Y407D01*
X4602Y407D02*
X4611Y407D01*
X4642Y407D02*
X4651Y407D01*
X4674Y407D02*
X4686Y407D01*
X4714Y407D02*
X4723Y407D01*
X4766Y407D02*
X4775Y407D01*
X4858Y407D02*
X4868Y407D01*
X4983Y407D02*
X4992Y407D01*
X5036Y407D02*
X5048Y407D01*
X5075Y407D02*
X5084Y407D01*
X5108Y407D02*
X5117Y407D01*
X5148Y407D02*
X5157Y407D01*
X5200Y407D02*
X5209Y407D01*
X5252Y407D02*
X5273Y407D01*
X5286Y407D02*
X5299Y407D01*
X5345Y407D02*
X5354Y407D01*
X5437Y407D02*
X5444Y407D01*
X5508Y407D02*
X5518Y407D01*
X5614Y407D02*
X5629Y407D01*
X5652Y407D02*
X5662Y407D01*
X5686Y407D02*
X5695Y407D01*
X5726Y407D02*
X5735Y407D01*
X5759Y407D02*
X5770Y407D01*
X5798Y407D02*
X5807Y407D01*
X5903Y407D02*
X5915Y407D01*
X5943Y407D02*
X5952Y407D01*
X6014Y407D02*
X6024Y407D01*
X6047Y407D02*
X6063Y407D01*
X6086Y407D02*
X6096Y407D01*
X6140Y407D02*
X6149Y407D01*
X3517Y406D02*
X3527Y406D01*
X3557Y406D02*
X3567Y406D01*
X3662Y406D02*
X3672Y406D01*
X3702Y406D02*
X3711Y406D01*
X3735Y406D02*
X3748Y406D01*
X3774Y406D02*
X3783Y406D01*
X3839Y406D02*
X3853Y406D01*
X3912Y406D02*
X3925Y406D01*
X3952Y406D02*
X3965Y406D01*
X3991Y406D02*
X4000Y406D01*
X4056Y406D02*
X4070Y406D01*
X4136Y406D02*
X4145Y406D01*
X4168Y406D02*
X4182Y406D01*
X4208Y406D02*
X4217Y406D01*
X4240Y406D02*
X4243Y406D01*
X4289Y406D02*
X4289Y406D01*
X4397Y406D02*
X4422Y406D01*
X4458Y406D02*
X4469Y406D01*
X4490Y406D02*
X4506Y406D01*
X4602Y406D02*
X4611Y406D01*
X4642Y406D02*
X4651Y406D01*
X4674Y406D02*
X4688Y406D01*
X4714Y406D02*
X4723Y406D01*
X4766Y406D02*
X4775Y406D01*
X4858Y406D02*
X4868Y406D01*
X4983Y406D02*
X4992Y406D01*
X5036Y406D02*
X5049Y406D01*
X5075Y406D02*
X5084Y406D01*
X5108Y406D02*
X5117Y406D01*
X5148Y406D02*
X5157Y406D01*
X5200Y406D02*
X5209Y406D01*
X5252Y406D02*
X5299Y406D01*
X5345Y406D02*
X5354Y406D01*
X5437Y406D02*
X5443Y406D01*
X5507Y406D02*
X5518Y406D01*
X5614Y406D02*
X5630Y406D01*
X5652Y406D02*
X5662Y406D01*
X5686Y406D02*
X5695Y406D01*
X5726Y406D02*
X5735Y406D01*
X5759Y406D02*
X5772Y406D01*
X5798Y406D02*
X5807Y406D01*
X5903Y406D02*
X5917Y406D01*
X5943Y406D02*
X5952Y406D01*
X6013Y406D02*
X6024Y406D01*
X6047Y406D02*
X6064Y406D01*
X6085Y406D02*
X6096Y406D01*
X6140Y406D02*
X6149Y406D01*
X3517Y405D02*
X3527Y405D01*
X3557Y405D02*
X3567Y405D01*
X3662Y405D02*
X3671Y405D01*
X3702Y405D02*
X3711Y405D01*
X3735Y405D02*
X3750Y405D01*
X3774Y405D02*
X3783Y405D01*
X3840Y405D02*
X3854Y405D01*
X3913Y405D02*
X3926Y405D01*
X3951Y405D02*
X3967Y405D01*
X3991Y405D02*
X4000Y405D01*
X4055Y405D02*
X4069Y405D01*
X4136Y405D02*
X4145Y405D01*
X4168Y405D02*
X4184Y405D01*
X4207Y405D02*
X4217Y405D01*
X4240Y405D02*
X4243Y405D01*
X4289Y405D02*
X4289Y405D01*
X4398Y405D02*
X4421Y405D01*
X4458Y405D02*
X4470Y405D01*
X4489Y405D02*
X4506Y405D01*
X4602Y405D02*
X4611Y405D01*
X4642Y405D02*
X4651Y405D01*
X4674Y405D02*
X4690Y405D01*
X4713Y405D02*
X4723Y405D01*
X4766Y405D02*
X4775Y405D01*
X4858Y405D02*
X4868Y405D01*
X4983Y405D02*
X4992Y405D01*
X5036Y405D02*
X5051Y405D01*
X5075Y405D02*
X5084Y405D01*
X5108Y405D02*
X5117Y405D01*
X5148Y405D02*
X5157Y405D01*
X5200Y405D02*
X5209Y405D01*
X5252Y405D02*
X5298Y405D01*
X5345Y405D02*
X5354Y405D01*
X5437Y405D02*
X5443Y405D01*
X5506Y405D02*
X5517Y405D01*
X5614Y405D02*
X5631Y405D01*
X5650Y405D02*
X5662Y405D01*
X5686Y405D02*
X5695Y405D01*
X5726Y405D02*
X5735Y405D01*
X5759Y405D02*
X5774Y405D01*
X5798Y405D02*
X5807Y405D01*
X5903Y405D02*
X5918Y405D01*
X5942Y405D02*
X5952Y405D01*
X6012Y405D02*
X6023Y405D01*
X6047Y405D02*
X6065Y405D01*
X6084Y405D02*
X6096Y405D01*
X6140Y405D02*
X6149Y405D01*
X3517Y404D02*
X3527Y404D01*
X3557Y404D02*
X3567Y404D01*
X3662Y404D02*
X3671Y404D01*
X3702Y404D02*
X3711Y404D01*
X3735Y404D02*
X3752Y404D01*
X3773Y404D02*
X3783Y404D01*
X3841Y404D02*
X3855Y404D01*
X3914Y404D02*
X3927Y404D01*
X3951Y404D02*
X3968Y404D01*
X3990Y404D02*
X4000Y404D01*
X4054Y404D02*
X4068Y404D01*
X4136Y404D02*
X4145Y404D01*
X4168Y404D02*
X4185Y404D01*
X4207Y404D02*
X4217Y404D01*
X4240Y404D02*
X4242Y404D01*
X4289Y404D02*
X4289Y404D01*
X4398Y404D02*
X4421Y404D01*
X4459Y404D02*
X4471Y404D01*
X4488Y404D02*
X4506Y404D01*
X4602Y404D02*
X4611Y404D01*
X4642Y404D02*
X4651Y404D01*
X4674Y404D02*
X4691Y404D01*
X4713Y404D02*
X4723Y404D01*
X4766Y404D02*
X4775Y404D01*
X4858Y404D02*
X4868Y404D01*
X4983Y404D02*
X4992Y404D01*
X5036Y404D02*
X5053Y404D01*
X5074Y404D02*
X5084Y404D01*
X5108Y404D02*
X5117Y404D01*
X5148Y404D02*
X5157Y404D01*
X5200Y404D02*
X5209Y404D01*
X5252Y404D02*
X5297Y404D01*
X5345Y404D02*
X5354Y404D01*
X5437Y404D02*
X5442Y404D01*
X5505Y404D02*
X5517Y404D01*
X5614Y404D02*
X5632Y404D01*
X5649Y404D02*
X5661Y404D01*
X5686Y404D02*
X5695Y404D01*
X5726Y404D02*
X5735Y404D01*
X5759Y404D02*
X5775Y404D01*
X5797Y404D02*
X5807Y404D01*
X5903Y404D02*
X5920Y404D01*
X5942Y404D02*
X5952Y404D01*
X6011Y404D02*
X6023Y404D01*
X6047Y404D02*
X6066Y404D01*
X6083Y404D02*
X6095Y404D01*
X6140Y404D02*
X6149Y404D01*
X3517Y403D02*
X3527Y403D01*
X3557Y403D02*
X3567Y403D01*
X3662Y403D02*
X3671Y403D01*
X3702Y403D02*
X3711Y403D01*
X3735Y403D02*
X3753Y403D01*
X3772Y403D02*
X3783Y403D01*
X3842Y403D02*
X3855Y403D01*
X3915Y403D02*
X3928Y403D01*
X3951Y403D02*
X3970Y403D01*
X3989Y403D02*
X4000Y403D01*
X4053Y403D02*
X4067Y403D01*
X4136Y403D02*
X4145Y403D01*
X4168Y403D02*
X4187Y403D01*
X4206Y403D02*
X4216Y403D01*
X4240Y403D02*
X4242Y403D01*
X4399Y403D02*
X4420Y403D01*
X4459Y403D02*
X4472Y403D01*
X4486Y403D02*
X4506Y403D01*
X4602Y403D02*
X4611Y403D01*
X4642Y403D02*
X4651Y403D01*
X4674Y403D02*
X4693Y403D01*
X4712Y403D02*
X4722Y403D01*
X4766Y403D02*
X4775Y403D01*
X4858Y403D02*
X4868Y403D01*
X4983Y403D02*
X4992Y403D01*
X5036Y403D02*
X5054Y403D01*
X5073Y403D02*
X5084Y403D01*
X5108Y403D02*
X5117Y403D01*
X5148Y403D02*
X5157Y403D01*
X5200Y403D02*
X5209Y403D01*
X5252Y403D02*
X5296Y403D01*
X5345Y403D02*
X5354Y403D01*
X5437Y403D02*
X5442Y403D01*
X5503Y403D02*
X5516Y403D01*
X5614Y403D02*
X5634Y403D01*
X5648Y403D02*
X5661Y403D01*
X5686Y403D02*
X5695Y403D01*
X5726Y403D02*
X5735Y403D01*
X5758Y403D02*
X5777Y403D01*
X5796Y403D02*
X5807Y403D01*
X5903Y403D02*
X5922Y403D01*
X5941Y403D02*
X5951Y403D01*
X6009Y403D02*
X6022Y403D01*
X6047Y403D02*
X6067Y403D01*
X6081Y403D02*
X6095Y403D01*
X6140Y403D02*
X6149Y403D01*
X3517Y402D02*
X3527Y402D01*
X3557Y402D02*
X3567Y402D01*
X3662Y402D02*
X3671Y402D01*
X3702Y402D02*
X3711Y402D01*
X3735Y402D02*
X3782Y402D01*
X3812Y402D02*
X3855Y402D01*
X3884Y402D02*
X3928Y402D01*
X3951Y402D02*
X3999Y402D01*
X4028Y402D02*
X4066Y402D01*
X4136Y402D02*
X4145Y402D01*
X4168Y402D02*
X4216Y402D01*
X4240Y402D02*
X4242Y402D01*
X4399Y402D02*
X4420Y402D01*
X4460Y402D02*
X4506Y402D01*
X4602Y402D02*
X4611Y402D01*
X4642Y402D02*
X4651Y402D01*
X4674Y402D02*
X4722Y402D01*
X4756Y402D02*
X4785Y402D01*
X4858Y402D02*
X4868Y402D01*
X4973Y402D02*
X5002Y402D01*
X5036Y402D02*
X5084Y402D01*
X5108Y402D02*
X5117Y402D01*
X5148Y402D02*
X5157Y402D01*
X5190Y402D02*
X5219Y402D01*
X5252Y402D02*
X5261Y402D01*
X5264Y402D02*
X5295Y402D01*
X5335Y402D02*
X5364Y402D01*
X5437Y402D02*
X5442Y402D01*
X5490Y402D02*
X5516Y402D01*
X5614Y402D02*
X5660Y402D01*
X5686Y402D02*
X5695Y402D01*
X5726Y402D02*
X5735Y402D01*
X5758Y402D02*
X5806Y402D01*
X5903Y402D02*
X5951Y402D01*
X5980Y402D02*
X6022Y402D01*
X6047Y402D02*
X6094Y402D01*
X6125Y402D02*
X6164Y402D01*
X3517Y401D02*
X3527Y401D01*
X3557Y401D02*
X3567Y401D01*
X3662Y401D02*
X3671Y401D01*
X3702Y401D02*
X3711Y401D01*
X3734Y401D02*
X3782Y401D01*
X3809Y401D02*
X3856Y401D01*
X3881Y401D02*
X3928Y401D01*
X3951Y401D02*
X3999Y401D01*
X4026Y401D02*
X4065Y401D01*
X4136Y401D02*
X4145Y401D01*
X4168Y401D02*
X4216Y401D01*
X4240Y401D02*
X4241Y401D01*
X4400Y401D02*
X4419Y401D01*
X4460Y401D02*
X4506Y401D01*
X4602Y401D02*
X4611Y401D01*
X4642Y401D02*
X4651Y401D01*
X4674Y401D02*
X4722Y401D01*
X4754Y401D02*
X4788Y401D01*
X4858Y401D02*
X4868Y401D01*
X4970Y401D02*
X5005Y401D01*
X5036Y401D02*
X5083Y401D01*
X5108Y401D02*
X5117Y401D01*
X5148Y401D02*
X5157Y401D01*
X5187Y401D02*
X5222Y401D01*
X5252Y401D02*
X5261Y401D01*
X5265Y401D02*
X5294Y401D01*
X5332Y401D02*
X5366Y401D01*
X5437Y401D02*
X5441Y401D01*
X5490Y401D02*
X5515Y401D01*
X5614Y401D02*
X5660Y401D01*
X5686Y401D02*
X5695Y401D01*
X5726Y401D02*
X5735Y401D01*
X5758Y401D02*
X5806Y401D01*
X5903Y401D02*
X5951Y401D01*
X5977Y401D02*
X6021Y401D01*
X6047Y401D02*
X6093Y401D01*
X6122Y401D02*
X6167Y401D01*
X3517Y400D02*
X3527Y400D01*
X3557Y400D02*
X3567Y400D01*
X3662Y400D02*
X3671Y400D01*
X3702Y400D02*
X3711Y400D01*
X3734Y400D02*
X3782Y400D01*
X3808Y400D02*
X3856Y400D01*
X3880Y400D02*
X3928Y400D01*
X3951Y400D02*
X3998Y400D01*
X4025Y400D02*
X4064Y400D01*
X4136Y400D02*
X4145Y400D01*
X4168Y400D02*
X4215Y400D01*
X4240Y400D02*
X4241Y400D01*
X4400Y400D02*
X4419Y400D01*
X4461Y400D02*
X4506Y400D01*
X4602Y400D02*
X4611Y400D01*
X4642Y400D02*
X4651Y400D01*
X4674Y400D02*
X4721Y400D01*
X4752Y400D02*
X4789Y400D01*
X4858Y400D02*
X4868Y400D01*
X4969Y400D02*
X5006Y400D01*
X5036Y400D02*
X5083Y400D01*
X5108Y400D02*
X5117Y400D01*
X5148Y400D02*
X5157Y400D01*
X5186Y400D02*
X5223Y400D01*
X5252Y400D02*
X5261Y400D01*
X5266Y400D02*
X5293Y400D01*
X5331Y400D02*
X5368Y400D01*
X5437Y400D02*
X5441Y400D01*
X5491Y400D02*
X5514Y400D01*
X5614Y400D02*
X5659Y400D01*
X5686Y400D02*
X5695Y400D01*
X5726Y400D02*
X5735Y400D01*
X5758Y400D02*
X5806Y400D01*
X5903Y400D02*
X5950Y400D01*
X5976Y400D02*
X6020Y400D01*
X6047Y400D02*
X6093Y400D01*
X6121Y400D02*
X6168Y400D01*
X3517Y399D02*
X3527Y399D01*
X3557Y399D02*
X3567Y399D01*
X3662Y399D02*
X3671Y399D01*
X3702Y399D02*
X3711Y399D01*
X3734Y399D02*
X3781Y399D01*
X3807Y399D02*
X3856Y399D01*
X3879Y399D02*
X3928Y399D01*
X3951Y399D02*
X3998Y399D01*
X4024Y399D02*
X4063Y399D01*
X4136Y399D02*
X4145Y399D01*
X4168Y399D02*
X4215Y399D01*
X4240Y399D02*
X4241Y399D01*
X4400Y399D02*
X4418Y399D01*
X4462Y399D02*
X4506Y399D01*
X4602Y399D02*
X4611Y399D01*
X4642Y399D02*
X4651Y399D01*
X4674Y399D02*
X4721Y399D01*
X4752Y399D02*
X4790Y399D01*
X4858Y399D02*
X4868Y399D01*
X4969Y399D02*
X5007Y399D01*
X5036Y399D02*
X5082Y399D01*
X5108Y399D02*
X5117Y399D01*
X5148Y399D02*
X5157Y399D01*
X5186Y399D02*
X5224Y399D01*
X5252Y399D02*
X5261Y399D01*
X5267Y399D02*
X5291Y399D01*
X5330Y399D02*
X5368Y399D01*
X5437Y399D02*
X5441Y399D01*
X5491Y399D02*
X5513Y399D01*
X5614Y399D02*
X5658Y399D01*
X5686Y399D02*
X5695Y399D01*
X5726Y399D02*
X5735Y399D01*
X5758Y399D02*
X5805Y399D01*
X5903Y399D02*
X5950Y399D01*
X5976Y399D02*
X6019Y399D01*
X6047Y399D02*
X6092Y399D01*
X6120Y399D02*
X6168Y399D01*
X3517Y398D02*
X3527Y398D01*
X3557Y398D02*
X3567Y398D01*
X3662Y398D02*
X3671Y398D01*
X3702Y398D02*
X3711Y398D01*
X3734Y398D02*
X3780Y398D01*
X3807Y398D02*
X3856Y398D01*
X3879Y398D02*
X3928Y398D01*
X3951Y398D02*
X3997Y398D01*
X4024Y398D02*
X4061Y398D01*
X4136Y398D02*
X4145Y398D01*
X4168Y398D02*
X4214Y398D01*
X4240Y398D02*
X4241Y398D01*
X4401Y398D02*
X4418Y398D01*
X4463Y398D02*
X4495Y398D01*
X4497Y398D02*
X4506Y398D01*
X4602Y398D02*
X4611Y398D01*
X4642Y398D02*
X4651Y398D01*
X4674Y398D02*
X4720Y398D01*
X4752Y398D02*
X4790Y398D01*
X4858Y398D02*
X4868Y398D01*
X4968Y398D02*
X5007Y398D01*
X5035Y398D02*
X5081Y398D01*
X5108Y398D02*
X5117Y398D01*
X5148Y398D02*
X5157Y398D01*
X5185Y398D02*
X5224Y398D01*
X5252Y398D02*
X5261Y398D01*
X5269Y398D02*
X5290Y398D01*
X5330Y398D02*
X5368Y398D01*
X5437Y398D02*
X5441Y398D01*
X5491Y398D02*
X5512Y398D01*
X5614Y398D02*
X5623Y398D01*
X5625Y398D02*
X5657Y398D01*
X5686Y398D02*
X5695Y398D01*
X5726Y398D02*
X5735Y398D01*
X5758Y398D02*
X5804Y398D01*
X5903Y398D02*
X5949Y398D01*
X5975Y398D02*
X6018Y398D01*
X6047Y398D02*
X6090Y398D01*
X6120Y398D02*
X6168Y398D01*
X3518Y397D02*
X3527Y397D01*
X3557Y397D02*
X3566Y397D01*
X3662Y397D02*
X3671Y397D01*
X3702Y397D02*
X3711Y397D01*
X3734Y397D02*
X3779Y397D01*
X3807Y397D02*
X3856Y397D01*
X3879Y397D02*
X3928Y397D01*
X3951Y397D02*
X3996Y397D01*
X4024Y397D02*
X4060Y397D01*
X4136Y397D02*
X4145Y397D01*
X4168Y397D02*
X4213Y397D01*
X4240Y397D02*
X4241Y397D01*
X4401Y397D02*
X4417Y397D01*
X4464Y397D02*
X4494Y397D01*
X4497Y397D02*
X4506Y397D01*
X4602Y397D02*
X4611Y397D01*
X4642Y397D02*
X4651Y397D01*
X4674Y397D02*
X4719Y397D01*
X4751Y397D02*
X4790Y397D01*
X4858Y397D02*
X4868Y397D01*
X4968Y397D02*
X5007Y397D01*
X5035Y397D02*
X5081Y397D01*
X5108Y397D02*
X5117Y397D01*
X5148Y397D02*
X5157Y397D01*
X5185Y397D02*
X5224Y397D01*
X5252Y397D02*
X5261Y397D01*
X5271Y397D02*
X5288Y397D01*
X5330Y397D02*
X5369Y397D01*
X5437Y397D02*
X5441Y397D01*
X5491Y397D02*
X5511Y397D01*
X5614Y397D02*
X5623Y397D01*
X5626Y397D02*
X5656Y397D01*
X5686Y397D02*
X5695Y397D01*
X5726Y397D02*
X5735Y397D01*
X5758Y397D02*
X5803Y397D01*
X5903Y397D02*
X5948Y397D01*
X5975Y397D02*
X6017Y397D01*
X6047Y397D02*
X6057Y397D01*
X6059Y397D02*
X6089Y397D01*
X6120Y397D02*
X6169Y397D01*
X3518Y396D02*
X3526Y396D01*
X3558Y396D02*
X3566Y396D01*
X3662Y396D02*
X3671Y396D01*
X3702Y396D02*
X3711Y396D01*
X3735Y396D02*
X3743Y396D01*
X3746Y396D02*
X3779Y396D01*
X3807Y396D02*
X3855Y396D01*
X3879Y396D02*
X3928Y396D01*
X3951Y396D02*
X3960Y396D01*
X3963Y396D02*
X3995Y396D01*
X4024Y396D02*
X4059Y396D01*
X4136Y396D02*
X4145Y396D01*
X4168Y396D02*
X4177Y396D01*
X4180Y396D02*
X4212Y396D01*
X4241Y396D02*
X4241Y396D01*
X4402Y396D02*
X4412Y396D01*
X4466Y396D02*
X4493Y396D01*
X4497Y396D02*
X4506Y396D01*
X4602Y396D02*
X4611Y396D01*
X4642Y396D02*
X4651Y396D01*
X4674Y396D02*
X4683Y396D01*
X4686Y396D02*
X4718Y396D01*
X4752Y396D02*
X4790Y396D01*
X4859Y396D02*
X4867Y396D01*
X4968Y396D02*
X5007Y396D01*
X5036Y396D02*
X5044Y396D01*
X5047Y396D02*
X5080Y396D01*
X5108Y396D02*
X5117Y396D01*
X5148Y396D02*
X5157Y396D01*
X5185Y396D02*
X5224Y396D01*
X5252Y396D02*
X5261Y396D01*
X5330Y396D02*
X5368Y396D01*
X5437Y396D02*
X5441Y396D01*
X5491Y396D02*
X5510Y396D01*
X5614Y396D02*
X5623Y396D01*
X5627Y396D02*
X5654Y396D01*
X5686Y396D02*
X5695Y396D01*
X5726Y396D02*
X5735Y396D01*
X5758Y396D02*
X5767Y396D01*
X5770Y396D02*
X5802Y396D01*
X5903Y396D02*
X5912Y396D01*
X5915Y396D02*
X5947Y396D01*
X5975Y396D02*
X6016Y396D01*
X6048Y396D02*
X6056Y396D01*
X6060Y396D02*
X6088Y396D01*
X6120Y396D02*
X6168Y396D01*
X3518Y395D02*
X3526Y395D01*
X3558Y395D02*
X3566Y395D01*
X3663Y395D02*
X3671Y395D01*
X3702Y395D02*
X3711Y395D01*
X3735Y395D02*
X3743Y395D01*
X3748Y395D02*
X3777Y395D01*
X3807Y395D02*
X3855Y395D01*
X3879Y395D02*
X3927Y395D01*
X3952Y395D02*
X3960Y395D01*
X3965Y395D02*
X3994Y395D01*
X4024Y395D02*
X4058Y395D01*
X4136Y395D02*
X4144Y395D01*
X4168Y395D02*
X4177Y395D01*
X4182Y395D02*
X4211Y395D01*
X4241Y395D02*
X4241Y395D01*
X4402Y395D02*
X4412Y395D01*
X4467Y395D02*
X4492Y395D01*
X4498Y395D02*
X4506Y395D01*
X4602Y395D02*
X4610Y395D01*
X4642Y395D02*
X4650Y395D01*
X4674Y395D02*
X4683Y395D01*
X4687Y395D02*
X4717Y395D01*
X4752Y395D02*
X4790Y395D01*
X4859Y395D02*
X4867Y395D01*
X4969Y395D02*
X5007Y395D01*
X5036Y395D02*
X5044Y395D01*
X5049Y395D02*
X5078Y395D01*
X5108Y395D02*
X5116Y395D01*
X5148Y395D02*
X5156Y395D01*
X5186Y395D02*
X5224Y395D01*
X5252Y395D02*
X5261Y395D01*
X5330Y395D02*
X5368Y395D01*
X5437Y395D02*
X5441Y395D01*
X5491Y395D02*
X5508Y395D01*
X5614Y395D02*
X5622Y395D01*
X5628Y395D02*
X5653Y395D01*
X5687Y395D02*
X5695Y395D01*
X5726Y395D02*
X5735Y395D01*
X5759Y395D02*
X5767Y395D01*
X5772Y395D02*
X5801Y395D01*
X5903Y395D02*
X5912Y395D01*
X5916Y395D02*
X5946Y395D01*
X5976Y395D02*
X6015Y395D01*
X6048Y395D02*
X6056Y395D01*
X6062Y395D02*
X6087Y395D01*
X6120Y395D02*
X6168Y395D01*
X3519Y394D02*
X3526Y394D01*
X3558Y394D02*
X3565Y394D01*
X3663Y394D02*
X3670Y394D01*
X3703Y394D02*
X3710Y394D01*
X3735Y394D02*
X3742Y394D01*
X3750Y394D02*
X3776Y394D01*
X3808Y394D02*
X3855Y394D01*
X3880Y394D02*
X3927Y394D01*
X3952Y394D02*
X3959Y394D01*
X3966Y394D02*
X3993Y394D01*
X4025Y394D02*
X4056Y394D01*
X4137Y394D02*
X4144Y394D01*
X4169Y394D02*
X4176Y394D01*
X4183Y394D02*
X4210Y394D01*
X4241Y394D02*
X4241Y394D01*
X4403Y394D02*
X4413Y394D01*
X4468Y394D02*
X4490Y394D01*
X4498Y394D02*
X4505Y394D01*
X4603Y394D02*
X4610Y394D01*
X4643Y394D02*
X4650Y394D01*
X4675Y394D02*
X4682Y394D01*
X4689Y394D02*
X4716Y394D01*
X4752Y394D02*
X4789Y394D01*
X4860Y394D02*
X4867Y394D01*
X4969Y394D02*
X5006Y394D01*
X5037Y394D02*
X5044Y394D01*
X5051Y394D02*
X5077Y394D01*
X5109Y394D02*
X5116Y394D01*
X5149Y394D02*
X5156Y394D01*
X5186Y394D02*
X5223Y394D01*
X5252Y394D02*
X5261Y394D01*
X5331Y394D02*
X5368Y394D01*
X5438Y394D02*
X5441Y394D01*
X5491Y394D02*
X5507Y394D01*
X5615Y394D02*
X5622Y394D01*
X5630Y394D02*
X5652Y394D01*
X5687Y394D02*
X5694Y394D01*
X5727Y394D02*
X5734Y394D01*
X5759Y394D02*
X5766Y394D01*
X5773Y394D02*
X5800Y394D01*
X5904Y394D02*
X5911Y394D01*
X5918Y394D02*
X5944Y394D01*
X5976Y394D02*
X6013Y394D01*
X6049Y394D02*
X6055Y394D01*
X6063Y394D02*
X6085Y394D01*
X6121Y394D02*
X6168Y394D01*
X3520Y393D02*
X3525Y393D01*
X3559Y393D02*
X3564Y393D01*
X3664Y393D02*
X3669Y393D01*
X3704Y393D02*
X3709Y393D01*
X3736Y393D02*
X3741Y393D01*
X3751Y393D02*
X3774Y393D01*
X3809Y393D02*
X3854Y393D01*
X3881Y393D02*
X3926Y393D01*
X3953Y393D02*
X3958Y393D01*
X3968Y393D02*
X3991Y393D01*
X4026Y393D02*
X4054Y393D01*
X4138Y393D02*
X4143Y393D01*
X4170Y393D02*
X4175Y393D01*
X4185Y393D02*
X4208Y393D01*
X4403Y393D02*
X4413Y393D01*
X4470Y393D02*
X4488Y393D01*
X4499Y393D02*
X4504Y393D01*
X4604Y393D02*
X4609Y393D01*
X4644Y393D02*
X4649Y393D01*
X4676Y393D02*
X4681Y393D01*
X4691Y393D02*
X4714Y393D01*
X4753Y393D02*
X4788Y393D01*
X4861Y393D02*
X4866Y393D01*
X4970Y393D02*
X5005Y393D01*
X5038Y393D02*
X5043Y393D01*
X5052Y393D02*
X5075Y393D01*
X5110Y393D02*
X5115Y393D01*
X5150Y393D02*
X5155Y393D01*
X5187Y393D02*
X5222Y393D01*
X5252Y393D02*
X5261Y393D01*
X5332Y393D02*
X5367Y393D01*
X5439Y393D02*
X5441Y393D01*
X5491Y393D02*
X5505Y393D01*
X5616Y393D02*
X5621Y393D01*
X5632Y393D02*
X5650Y393D01*
X5688Y393D02*
X5693Y393D01*
X5728Y393D02*
X5733Y393D01*
X5760Y393D02*
X5765Y393D01*
X5775Y393D02*
X5798Y393D01*
X5905Y393D02*
X5910Y393D01*
X5920Y393D02*
X5942Y393D01*
X5977Y393D02*
X6011Y393D01*
X6050Y393D02*
X6054Y393D01*
X6066Y393D02*
X6083Y393D01*
X6122Y393D02*
X6167Y393D01*
X3522Y392D02*
X3522Y392D01*
X3562Y392D02*
X3562Y392D01*
X3667Y392D02*
X3667Y392D01*
X3707Y392D02*
X3707Y392D01*
X3739Y392D02*
X3739Y392D01*
X3754Y392D02*
X3769Y392D01*
X3811Y392D02*
X3851Y392D01*
X3884Y392D02*
X3923Y392D01*
X3956Y392D02*
X3956Y392D01*
X3971Y392D02*
X3986Y392D01*
X4028Y392D02*
X4050Y392D01*
X4140Y392D02*
X4140Y392D01*
X4173Y392D02*
X4173Y392D01*
X4187Y392D02*
X4203Y392D01*
X4403Y392D02*
X4414Y392D01*
X4475Y392D02*
X4483Y392D01*
X4502Y392D02*
X4502Y392D01*
X4606Y392D02*
X4606Y392D01*
X4646Y392D02*
X4646Y392D01*
X4679Y392D02*
X4679Y392D01*
X4693Y392D02*
X4709Y392D01*
X4756Y392D02*
X4786Y392D01*
X4863Y392D02*
X4863Y392D01*
X4973Y392D02*
X5003Y392D01*
X5040Y392D02*
X5040Y392D01*
X5055Y392D02*
X5070Y392D01*
X5112Y392D02*
X5112Y392D01*
X5152Y392D02*
X5152Y392D01*
X5190Y392D02*
X5219Y392D01*
X5252Y392D02*
X5261Y392D01*
X5334Y392D02*
X5364Y392D01*
X5441Y392D02*
X5441Y392D01*
X5491Y392D02*
X5500Y392D01*
X5618Y392D02*
X5618Y392D01*
X5637Y392D02*
X5646Y392D01*
X5691Y392D02*
X5691Y392D01*
X5763Y392D02*
X5763Y392D01*
X5778Y392D02*
X5793Y392D01*
X5922Y392D02*
X5938Y392D01*
X5980Y392D02*
X6007Y392D01*
X6052Y392D02*
X6052Y392D01*
X6070Y392D02*
X6079Y392D01*
X6124Y392D02*
X6164Y392D01*
X3592Y391D02*
X3636Y391D01*
X4404Y391D02*
X4414Y391D01*
X5252Y391D02*
X5261Y391D01*
X3591Y390D02*
X3638Y390D01*
X4404Y390D02*
X4414Y390D01*
X5252Y390D02*
X5261Y390D01*
X3590Y389D02*
X3638Y389D01*
X4405Y389D02*
X4415Y389D01*
X5252Y389D02*
X5261Y389D01*
X3590Y388D02*
X3639Y388D01*
X4405Y388D02*
X4415Y388D01*
X5252Y388D02*
X5262Y388D01*
X3590Y387D02*
X3639Y387D01*
X4406Y387D02*
X4416Y387D01*
X5252Y387D02*
X5262Y387D01*
X3590Y386D02*
X3639Y386D01*
X4406Y386D02*
X4416Y386D01*
X5252Y386D02*
X5262Y386D01*
X3590Y385D02*
X3638Y385D01*
X4407Y385D02*
X4417Y385D01*
X5253Y385D02*
X5263Y385D01*
X3591Y384D02*
X3638Y384D01*
X4407Y384D02*
X4417Y384D01*
X5253Y384D02*
X5264Y384D01*
X3592Y383D02*
X3637Y383D01*
X4407Y383D02*
X4418Y383D01*
X5253Y383D02*
X5266Y383D01*
X3594Y382D02*
X3635Y382D01*
X4408Y382D02*
X4418Y382D01*
X5254Y382D02*
X5267Y382D01*
X4408Y381D02*
X4419Y381D01*
X5255Y381D02*
X5269Y381D01*
X4409Y380D02*
X4431Y380D01*
X5255Y380D02*
X5294Y380D01*
X4409Y379D02*
X4433Y379D01*
X5256Y379D02*
X5295Y379D01*
X4410Y378D02*
X4433Y378D01*
X5257Y378D02*
X5296Y378D01*
X4410Y377D02*
X4434Y377D01*
X5258Y377D02*
X5296Y377D01*
X4410Y376D02*
X4434Y376D01*
X5259Y376D02*
X5296Y376D01*
X4411Y375D02*
X4434Y375D01*
X5260Y375D02*
X5296Y375D01*
X4411Y374D02*
X4434Y374D01*
X5262Y374D02*
X5296Y374D01*
X4412Y373D02*
X4433Y373D01*
X5263Y373D02*
X5295Y373D01*
X4413Y372D02*
X4432Y372D01*
X5265Y372D02*
X5295Y372D01*
X4414Y371D02*
X4431Y371D01*
X5268Y371D02*
X5293Y371D01*
D02*
G04 End of Silk0*
M02*