G04 MADE WITH FRITZING*
G04 WWW.FRITZING.ORG*
G04 DOUBLE SIDED*
G04 HOLES PLATED*
G04 CONTOUR ON CENTER OF CONTOUR VECTOR*
%ASAXBY*%
%FSLAX23Y23*%
%MOIN*%
%OFA0B0*%
%SFA1.0B1.0*%
%ADD10C,0.039370*%
%ADD11C,0.080000*%
%ADD12C,0.078000*%
%ADD13C,0.075000*%
%ADD14C,0.070000*%
%ADD15C,0.070925*%
%ADD16C,0.070866*%
%ADD17R,0.080000X0.080000*%
%ADD18R,0.075000X0.075000*%
%ADD19C,0.024000*%
%LNCOPPER1*%
G90*
G70*
G54D10*
X3865Y195D03*
X1665Y95D03*
X365Y1595D03*
X565Y1495D03*
X565Y1695D03*
X665Y1395D03*
X665Y1695D03*
X765Y1295D03*
X865Y1195D03*
X765Y1695D03*
X865Y1695D03*
X965Y1695D03*
X1065Y1695D03*
X965Y695D03*
X765Y1095D03*
X1565Y2495D03*
X1665Y2395D03*
X1765Y2295D03*
X1865Y2195D03*
X1965Y2095D03*
X2065Y1995D03*
X2165Y1895D03*
X365Y2495D03*
X465Y2395D03*
X565Y2295D03*
X665Y2195D03*
X765Y2095D03*
X865Y1995D03*
X965Y1895D03*
X2765Y2495D03*
X2865Y2395D03*
X2965Y2295D03*
X3065Y2195D03*
X3165Y2095D03*
X3265Y1995D03*
X2265Y2495D03*
X2265Y2395D03*
X2265Y2295D03*
X2265Y2195D03*
X2265Y2095D03*
X2265Y1995D03*
X3965Y2595D03*
X4065Y2495D03*
X4165Y2395D03*
X4265Y2295D03*
X4365Y2195D03*
X4465Y2095D03*
X4565Y1995D03*
X4565Y696D03*
X4465Y595D03*
X4365Y495D03*
X4265Y395D03*
X4165Y295D03*
X4065Y195D03*
X3965Y95D03*
X5165Y95D03*
X5265Y195D03*
X5366Y297D03*
X5465Y395D03*
X5565Y495D03*
X5665Y595D03*
X5765Y695D03*
X3765Y695D03*
X3665Y695D03*
X3565Y695D03*
X3465Y695D03*
X3365Y795D03*
X3265Y795D03*
X3165Y795D03*
X3365Y1895D03*
X3365Y1595D03*
X3265Y1595D03*
X3165Y1595D03*
X3065Y1595D03*
X2965Y1595D03*
X2865Y1595D03*
G54D11*
X128Y295D03*
X265Y295D03*
G54D12*
X2765Y695D03*
X2765Y395D03*
X2365Y495D03*
X2965Y95D03*
X2565Y95D03*
X2165Y95D03*
X1765Y95D03*
X3965Y1895D03*
X4065Y1895D03*
X4165Y1895D03*
X4265Y1895D03*
X4365Y1895D03*
X4465Y1895D03*
X4565Y1895D03*
X5165Y1895D03*
X5265Y1895D03*
X5365Y1895D03*
X5465Y1895D03*
X5565Y1895D03*
X5665Y1895D03*
X5765Y1895D03*
X5165Y3795D03*
X5265Y3795D03*
X5365Y3795D03*
X5465Y3795D03*
X5565Y3795D03*
X5665Y3795D03*
X5765Y3795D03*
X3965Y3795D03*
X4065Y3795D03*
X4165Y3795D03*
X4265Y3795D03*
X4365Y3795D03*
X4465Y3795D03*
X4565Y3795D03*
X2765Y3795D03*
X2865Y3795D03*
X2965Y3795D03*
X3065Y3795D03*
X3165Y3795D03*
X3265Y3795D03*
X3365Y3795D03*
X1565Y3795D03*
X1665Y3795D03*
X1765Y3795D03*
X1865Y3795D03*
X1965Y3795D03*
X2065Y3795D03*
X2165Y3795D03*
X365Y3795D03*
X465Y3795D03*
X565Y3795D03*
X665Y3795D03*
X765Y3795D03*
X865Y3795D03*
X965Y3795D03*
G54D13*
X1165Y1695D03*
X1465Y1695D03*
X1165Y1595D03*
X1465Y1595D03*
X1165Y1495D03*
X1465Y1495D03*
X1165Y1395D03*
X1465Y1395D03*
X1165Y1295D03*
X1465Y1295D03*
X1165Y1195D03*
X1465Y1195D03*
X1165Y1095D03*
X1465Y1095D03*
X1165Y995D03*
X1465Y995D03*
X1165Y895D03*
X1465Y895D03*
X1165Y795D03*
X1465Y795D03*
X1165Y695D03*
X1465Y695D03*
X1165Y595D03*
X1465Y595D03*
X1165Y495D03*
X1465Y495D03*
X1165Y395D03*
X1465Y395D03*
X165Y1073D03*
X421Y1073D03*
X165Y895D03*
X421Y895D03*
X2165Y1695D03*
X2465Y1695D03*
X2165Y1595D03*
X2465Y1595D03*
X2165Y1495D03*
X2465Y1495D03*
X2165Y1395D03*
X2465Y1395D03*
X2165Y1295D03*
X2465Y1295D03*
X2165Y1195D03*
X2465Y1195D03*
X2165Y1095D03*
X2465Y1095D03*
X2165Y995D03*
X2465Y995D03*
G54D14*
X666Y295D03*
X565Y295D03*
X765Y195D03*
X865Y195D03*
G54D15*
X762Y492D03*
G54D16*
X569Y492D03*
G54D13*
X2865Y695D03*
X2965Y695D03*
X3065Y695D03*
X2865Y395D03*
X2965Y395D03*
X3065Y395D03*
X2465Y495D03*
X2565Y495D03*
X2665Y495D03*
X3065Y95D03*
X3165Y95D03*
X3265Y95D03*
X2665Y95D03*
X2765Y95D03*
X2865Y95D03*
X2265Y95D03*
X2365Y95D03*
X2465Y95D03*
X1865Y95D03*
X1965Y95D03*
X2065Y95D03*
X265Y2695D03*
X265Y2995D03*
X365Y2695D03*
X365Y2995D03*
X465Y2695D03*
X465Y2995D03*
X565Y2695D03*
X565Y2995D03*
X665Y2695D03*
X665Y2995D03*
X765Y2695D03*
X765Y2995D03*
X865Y2695D03*
X865Y2995D03*
X965Y2695D03*
X965Y2995D03*
X1065Y2695D03*
X1065Y2995D03*
X1165Y2695D03*
X1165Y2995D03*
X1465Y2695D03*
X1465Y2995D03*
X1565Y2695D03*
X1565Y2995D03*
X1665Y2695D03*
X1665Y2995D03*
X1765Y2695D03*
X1765Y2995D03*
X1865Y2695D03*
X1865Y2995D03*
X1965Y2695D03*
X1965Y2995D03*
X2065Y2695D03*
X2065Y2995D03*
X2165Y2695D03*
X2165Y2995D03*
X2265Y2695D03*
X2265Y2995D03*
X2365Y2695D03*
X2365Y2995D03*
X2665Y2695D03*
X2665Y2995D03*
X2765Y2695D03*
X2765Y2995D03*
X2865Y2695D03*
X2865Y2995D03*
X2965Y2695D03*
X2965Y2995D03*
X3065Y2695D03*
X3065Y2995D03*
X3165Y2695D03*
X3165Y2995D03*
X3265Y2695D03*
X3265Y2995D03*
X3365Y2695D03*
X3365Y2995D03*
X3465Y2695D03*
X3465Y2995D03*
X3565Y2695D03*
X3565Y2995D03*
X3865Y2695D03*
X3865Y2995D03*
X3965Y2695D03*
X3965Y2995D03*
X4065Y2695D03*
X4065Y2995D03*
X4165Y2695D03*
X4165Y2995D03*
X4265Y2695D03*
X4265Y2995D03*
X4365Y2695D03*
X4365Y2995D03*
X4465Y2695D03*
X4465Y2995D03*
X4565Y2695D03*
X4565Y2995D03*
X4665Y2695D03*
X4665Y2995D03*
X4765Y2695D03*
X4765Y2995D03*
X5065Y2695D03*
X5065Y2995D03*
X5165Y2695D03*
X5165Y2995D03*
X5265Y2695D03*
X5265Y2995D03*
X5365Y2695D03*
X5365Y2995D03*
X5465Y2695D03*
X5465Y2995D03*
X5565Y2695D03*
X5565Y2995D03*
X5665Y2695D03*
X5665Y2995D03*
X5765Y2695D03*
X5765Y2995D03*
X5865Y2695D03*
X5865Y2995D03*
X5965Y2695D03*
X5965Y2995D03*
X5065Y794D03*
X5065Y1094D03*
X5165Y794D03*
X5165Y1094D03*
X5265Y794D03*
X5265Y1094D03*
X5365Y794D03*
X5365Y1094D03*
X5465Y794D03*
X5465Y1094D03*
X5565Y794D03*
X5565Y1094D03*
X5665Y794D03*
X5665Y1094D03*
X5765Y794D03*
X5765Y1094D03*
X5865Y794D03*
X5865Y1094D03*
X5965Y794D03*
X5965Y1094D03*
X3864Y794D03*
X3864Y1094D03*
X3964Y794D03*
X3964Y1094D03*
X4064Y794D03*
X4064Y1094D03*
X4164Y794D03*
X4164Y1094D03*
X4264Y794D03*
X4264Y1094D03*
X4364Y794D03*
X4364Y1094D03*
X4464Y794D03*
X4464Y1094D03*
X4564Y794D03*
X4564Y1094D03*
X4664Y794D03*
X4664Y1094D03*
X4764Y794D03*
X4764Y1094D03*
X5365Y1795D03*
X5365Y1395D03*
X5465Y1795D03*
X5465Y1395D03*
X5665Y1795D03*
X5665Y1395D03*
X5565Y1795D03*
X5565Y1395D03*
X1965Y395D03*
X1565Y395D03*
X1965Y495D03*
X1565Y495D03*
X1965Y595D03*
X1565Y595D03*
X1965Y695D03*
X1565Y695D03*
X1965Y795D03*
X1565Y795D03*
X1565Y295D03*
X1165Y295D03*
X1565Y195D03*
X1165Y195D03*
X165Y1295D03*
X165Y1695D03*
X4565Y1795D03*
X4565Y1395D03*
X4465Y1795D03*
X4465Y1395D03*
X4365Y1795D03*
X4365Y1395D03*
X4265Y1795D03*
X4265Y1395D03*
X4165Y1795D03*
X4165Y1395D03*
X4065Y1795D03*
X4065Y1395D03*
X3965Y1795D03*
X3965Y1395D03*
X5765Y1795D03*
X5765Y1395D03*
X5265Y1795D03*
X5265Y1395D03*
X5165Y1795D03*
X5165Y1395D03*
X5765Y3695D03*
X5765Y3295D03*
X5665Y3695D03*
X5665Y3295D03*
X5565Y3695D03*
X5565Y3295D03*
X5465Y3695D03*
X5465Y3295D03*
X5265Y3695D03*
X5265Y3295D03*
X4565Y3695D03*
X4565Y3295D03*
X4365Y3695D03*
X4365Y3295D03*
X4465Y3695D03*
X4465Y3295D03*
X5165Y3695D03*
X5165Y3295D03*
X5365Y3695D03*
X5365Y3295D03*
X4165Y3695D03*
X4165Y3295D03*
X3965Y3695D03*
X3965Y3295D03*
X3265Y3695D03*
X3265Y3295D03*
X3365Y3695D03*
X3365Y3295D03*
X4065Y3695D03*
X4065Y3295D03*
X4265Y3695D03*
X4265Y3295D03*
X3065Y3695D03*
X3065Y3295D03*
X2865Y3695D03*
X2865Y3295D03*
X2165Y3695D03*
X2165Y3295D03*
X2765Y3695D03*
X2765Y3295D03*
X2965Y3695D03*
X2965Y3295D03*
X3165Y3695D03*
X3165Y3295D03*
X1965Y3695D03*
X1965Y3295D03*
X1765Y3695D03*
X1765Y3295D03*
X1565Y3695D03*
X1565Y3295D03*
X1665Y3695D03*
X1665Y3295D03*
X1865Y3695D03*
X1865Y3295D03*
X2065Y3695D03*
X2065Y3295D03*
X965Y3695D03*
X965Y3295D03*
X865Y3695D03*
X865Y3295D03*
X765Y3695D03*
X765Y3295D03*
X665Y3695D03*
X665Y3295D03*
X565Y3695D03*
X565Y3295D03*
X465Y3695D03*
X465Y3295D03*
X365Y3695D03*
X365Y3295D03*
G54D14*
X4965Y2895D03*
X4965Y2795D03*
X3765Y2895D03*
X3765Y2795D03*
X2565Y2895D03*
X2565Y2795D03*
X1365Y2895D03*
X1365Y2795D03*
X165Y2895D03*
X165Y2795D03*
X4965Y995D03*
X4965Y895D03*
X3765Y995D03*
X3765Y895D03*
X2265Y1795D03*
X2366Y1795D03*
X1565Y1095D03*
X1565Y995D03*
G54D17*
X128Y295D03*
G54D18*
X1165Y1695D03*
X2165Y1695D03*
X265Y2695D03*
X1465Y2695D03*
X2665Y2695D03*
X3865Y2695D03*
X5065Y2695D03*
X5065Y794D03*
X3864Y794D03*
G54D19*
X3973Y95D02*
X5158Y95D01*
D02*
X4073Y195D02*
X5258Y195D01*
D02*
X4173Y295D02*
X5358Y297D01*
D02*
X5458Y395D02*
X4273Y395D01*
D02*
X4373Y495D02*
X5558Y495D01*
D02*
X4473Y595D02*
X5658Y595D01*
D02*
X4573Y696D02*
X5758Y695D01*
D02*
X4058Y195D02*
X3873Y195D01*
D02*
X2065Y195D02*
X1666Y195D01*
D02*
X1666Y195D02*
X1666Y103D01*
D02*
X2065Y113D02*
X2065Y195D01*
D02*
X567Y1503D02*
X566Y1496D01*
D02*
X566Y1496D02*
X565Y1688D01*
D02*
X965Y1688D02*
X965Y703D01*
D02*
X865Y1688D02*
X865Y1203D01*
D02*
X765Y1688D02*
X765Y1303D01*
D02*
X665Y1688D02*
X665Y1403D01*
D02*
X1067Y594D02*
X1148Y595D01*
D02*
X1066Y1688D02*
X1067Y594D01*
D02*
X565Y794D02*
X164Y794D01*
D02*
X565Y1095D02*
X565Y794D01*
D02*
X164Y494D02*
X256Y313D01*
D02*
X164Y794D02*
X164Y494D01*
D02*
X758Y1095D02*
X565Y1095D01*
D02*
X965Y2678D02*
X965Y1895D01*
D02*
X365Y2503D02*
X365Y2678D01*
D02*
X465Y2403D02*
X465Y2678D01*
D02*
X565Y2303D02*
X565Y2678D01*
D02*
X665Y2203D02*
X665Y2678D01*
D02*
X765Y2103D02*
X765Y2678D01*
D02*
X865Y2003D02*
X865Y2678D01*
D02*
X3165Y2678D02*
X3165Y2103D01*
D02*
X3065Y2678D02*
X3065Y2203D01*
D02*
X2965Y2678D02*
X2965Y2303D01*
D02*
X2865Y2678D02*
X2865Y2403D01*
D02*
X2765Y2678D02*
X2765Y2503D01*
D02*
X1673Y2395D02*
X2258Y2395D01*
D02*
X1773Y2295D02*
X2258Y2295D01*
D02*
X1873Y2195D02*
X2258Y2195D01*
D02*
X1973Y2095D02*
X2258Y2095D01*
D02*
X2073Y1995D02*
X2258Y1995D01*
D02*
X1573Y2495D02*
X2258Y2495D01*
D02*
X3265Y2678D02*
X3265Y2003D01*
D02*
X4465Y2103D02*
X4465Y2678D01*
D02*
X4365Y2203D02*
X4365Y2678D01*
D02*
X4265Y2303D02*
X4265Y2678D01*
D02*
X4165Y2403D02*
X4165Y2678D01*
D02*
X4065Y2503D02*
X4065Y2678D01*
D02*
X3965Y2603D02*
X3965Y2678D01*
D02*
X4565Y2003D02*
X4565Y2678D01*
D02*
X3365Y2678D02*
X3365Y1896D01*
D02*
X3365Y1896D02*
X3365Y1903D01*
D02*
X3167Y2088D02*
X3264Y1603D01*
D02*
X3267Y1988D02*
X3364Y1603D01*
D02*
X3665Y594D02*
X4458Y595D01*
D02*
X3665Y688D02*
X3665Y594D01*
D02*
X3765Y695D02*
X4558Y696D01*
D02*
X3765Y688D02*
X3765Y695D01*
D02*
X2766Y2488D02*
X2865Y1603D01*
D02*
X2866Y2388D02*
X2965Y1603D01*
D02*
X2967Y2288D02*
X3064Y1603D01*
D02*
X3067Y2188D02*
X3164Y1603D01*
D02*
X3865Y296D02*
X4158Y295D01*
D02*
X3665Y296D02*
X3865Y296D01*
D02*
X3364Y296D02*
X3665Y296D01*
D02*
X3365Y788D02*
X3364Y296D01*
D02*
X3865Y394D02*
X4258Y395D01*
D02*
X3466Y394D02*
X3865Y394D01*
D02*
X3465Y688D02*
X3466Y394D01*
D02*
X3567Y496D02*
X4358Y495D01*
D02*
X3566Y688D02*
X3567Y496D01*
D02*
X467Y1094D02*
X469Y1794D01*
D02*
X165Y1090D02*
X165Y1278D01*
D02*
X164Y494D02*
X256Y313D01*
D02*
X265Y794D02*
X164Y794D01*
D02*
X164Y794D02*
X164Y494D01*
D02*
X265Y1697D02*
X265Y794D01*
D02*
X183Y1696D02*
X265Y1697D01*
D02*
X469Y1794D02*
X1165Y1795D01*
D02*
X1165Y1795D02*
X1164Y1797D01*
D02*
X437Y1080D02*
X467Y1094D01*
D02*
X1164Y1797D02*
X1165Y1713D01*
D02*
X2366Y1697D02*
X2448Y1696D01*
D02*
X2367Y1194D02*
X2366Y1697D01*
D02*
X2468Y2994D02*
X2464Y2597D01*
D02*
X2664Y2597D02*
X2665Y1895D01*
D02*
X2464Y2597D02*
X2664Y2597D01*
D02*
X2665Y1895D02*
X2664Y1496D01*
D02*
X2664Y1496D02*
X2483Y1496D01*
D02*
X2383Y2995D02*
X2468Y2994D01*
D02*
X1266Y2994D02*
X1183Y2995D01*
D02*
X1265Y2596D02*
X1266Y2994D01*
D02*
X2366Y2596D02*
X1265Y2596D01*
D02*
X2366Y2495D02*
X2366Y2596D01*
D02*
X2566Y2495D02*
X2366Y2495D01*
D02*
X2565Y1795D02*
X2566Y2495D01*
D02*
X2483Y1596D02*
X2563Y1597D01*
D02*
X2563Y1597D02*
X2565Y1795D01*
D02*
X2183Y1195D02*
X2367Y1194D01*
D02*
X1180Y1086D02*
X1451Y905D01*
D02*
X3765Y1195D02*
X3665Y1095D01*
D02*
X3665Y1095D02*
X3165Y1095D01*
D02*
X4765Y1195D02*
X3765Y1195D01*
D02*
X3165Y1095D02*
X3166Y993D01*
D02*
X3166Y993D02*
X2483Y995D01*
D02*
X4764Y1111D02*
X4765Y1195D01*
D02*
X3765Y1295D02*
X3665Y1195D01*
D02*
X3665Y1195D02*
X3065Y1195D01*
D02*
X5965Y1295D02*
X3765Y1295D01*
D02*
X3065Y1195D02*
X3066Y1094D01*
D02*
X3066Y1094D02*
X2483Y1095D01*
D02*
X5965Y1111D02*
X5965Y1295D01*
D02*
X6165Y2996D02*
X6165Y1494D01*
D02*
X3765Y1396D02*
X3665Y1295D01*
D02*
X3765Y1496D02*
X3765Y1396D01*
D02*
X3665Y1295D02*
X2965Y1295D01*
D02*
X6165Y1494D02*
X3765Y1496D01*
D02*
X2965Y1295D02*
X2965Y1194D01*
D02*
X2965Y1194D02*
X2483Y1195D01*
D02*
X5983Y2995D02*
X6165Y2996D01*
D02*
X4866Y2994D02*
X4865Y1595D01*
D02*
X3665Y1396D02*
X2865Y1396D01*
D02*
X3665Y1595D02*
X3665Y1396D01*
D02*
X3765Y1595D02*
X3665Y1595D01*
D02*
X4865Y1595D02*
X3765Y1595D01*
D02*
X2865Y1396D02*
X2865Y1295D01*
D02*
X2865Y1295D02*
X2483Y1295D01*
D02*
X4783Y2995D02*
X4866Y2994D01*
D02*
X3664Y2994D02*
X3583Y2995D01*
D02*
X3664Y2597D02*
X3664Y2994D01*
D02*
X3665Y1695D02*
X3664Y2597D01*
D02*
X2766Y1495D02*
X3565Y1495D01*
D02*
X3565Y1495D02*
X3566Y1695D01*
D02*
X3566Y1695D02*
X3665Y1695D01*
D02*
X2764Y1396D02*
X2766Y1495D01*
D02*
X2483Y1395D02*
X2764Y1396D01*
D02*
X3066Y294D02*
X3166Y295D01*
D02*
X3166Y295D02*
X3258Y111D01*
D02*
X3066Y378D02*
X3066Y294D01*
D02*
X3166Y196D02*
X2865Y194D01*
D02*
X3166Y295D02*
X3166Y196D01*
D02*
X2865Y194D02*
X2865Y113D01*
D02*
X3258Y111D02*
X3166Y295D01*
D02*
X2865Y194D02*
X2468Y194D01*
D02*
X2468Y194D02*
X2466Y113D01*
D02*
X2865Y113D02*
X2865Y194D01*
D02*
X2468Y194D02*
X2065Y194D01*
D02*
X2065Y194D02*
X2065Y113D01*
D02*
X2466Y113D02*
X2468Y194D01*
D02*
X2267Y993D02*
X2267Y697D01*
D02*
X2267Y697D02*
X2664Y697D01*
D02*
X2664Y697D02*
X2665Y513D01*
D02*
X2183Y995D02*
X2267Y993D01*
D02*
X3066Y496D02*
X2683Y495D01*
D02*
X3066Y678D02*
X3066Y496D01*
D02*
X3065Y678D02*
X3065Y413D01*
D02*
X66Y1697D02*
X66Y2894D01*
D02*
X66Y2894D02*
X150Y2895D01*
D02*
X164Y1697D02*
X66Y1697D01*
D02*
X153Y1707D02*
X164Y1697D01*
D02*
X3865Y997D02*
X4950Y995D01*
D02*
X3864Y1076D02*
X3865Y997D01*
D02*
X4980Y996D02*
X5066Y997D01*
D02*
X5066Y997D02*
X5065Y1076D01*
D02*
X3865Y997D02*
X3864Y1076D01*
D02*
X3780Y996D02*
X3865Y997D01*
D02*
X2366Y1697D02*
X2366Y895D01*
D02*
X2366Y895D02*
X3266Y895D01*
D02*
X3266Y997D02*
X3750Y995D01*
D02*
X3266Y895D02*
X3266Y997D01*
D02*
X2448Y1696D02*
X2366Y1697D01*
D02*
X2366Y1697D02*
X2366Y1780D01*
D02*
X2448Y1696D02*
X2366Y1697D01*
D02*
X1564Y895D02*
X1483Y895D01*
D02*
X1565Y980D02*
X1564Y895D01*
D02*
X2148Y1196D02*
X2065Y1196D01*
D02*
X2065Y1196D02*
X2065Y997D01*
D02*
X2065Y997D02*
X1580Y995D01*
G04 End of Copper1*
M02*